<svg xmlns="http://www.w3.org/2000/svg" viewBox="0 0 85 85"><defs><style>.cls-1{fill:#1d6fed;}.cls-2{fill:#fff;fill-rule:evenodd;}</style></defs><title>Behance_3</title><g id="Square_Color" data-name="Square Color"><g id="Behance"><rect id="back" class="cls-1" width="85" height="85"/><path id="Behance-2" data-name="Behance" class="cls-2" d="M32.26,44.14H24.64v8h7.5c2.57,0,4.62-.82,4.62-3.86S35,44.14,32.26,44.14Zm-1-11.7H24.64v6.84h7.14c2.26,0,4-1,4-3.48C35.74,33,33.6,32.44,31.28,32.44Zm12.15,16c0,5.94-5.1,8.48-10.41,8.48H18.7V27.5H32.6c5.61,0,9.43,2,9.43,7.44A6.45,6.45,0,0,1,38,41C41.61,42.06,43.43,44.8,43.43,48.44Zm7-19H62.27v3.94H50.43Zm5.3,10.08c-3.72,0-4.8,2.08-4.88,3.7h9.56C59.87,40.32,58.59,39.56,55.73,39.56Zm-4.88,7.52c.16,3.68,2,6,5.24,6A5.59,5.59,0,0,0,61,49.88h5.16c-1.64,5-5.42,7.62-10.26,7.62-6.74,0-11-4.58-11-11.14,0-6.34,4.5-11.18,11-11.18,7.28,0,10.8,5.38,10.38,11.9Z"/></g></g></svg>