<svg xmlns="http://www.w3.org/2000/svg" viewBox="0 0 85 85"><defs><style>.cls-1{fill:#dc4b3e;}.cls-2{fill:#fff;}</style></defs><title>Google+_3</title><g id="Square_Color" data-name="Square Color"><g id="Google_" data-name="Google+"><rect id="back" class="cls-1" width="85" height="85"/><g id="Google_2" data-name="Google+"><path class="cls-2" d="M18.71,42.52c-.3-7.8,6.53-15,14.34-15.1a15.12,15.12,0,0,1,10.86,3.73c-1.24,1.35-2.49,2.7-3.83,4-2.66-1.61-5.85-2.83-8.94-1.74a9.55,9.55,0,1,0,6.43,18,8.36,8.36,0,0,0,4.91-5.73c-2.89-.05-5.78,0-8.67-.1,0-1.72,0-3.43,0-5.15,4.81,0,9.64,0,14.46,0,.29,4.2-.33,8.71-3.06,12.09-3.75,4.82-10.67,6.24-16.31,4.35a15.12,15.12,0,0,1-10.19-14.3"/><path class="cls-2" d="M57.66,36H62l0,4.32,4.32,0v4.3l-4.32,0L62,49c-1.43,0-2.87,0-4.3,0,0-1.45,0-2.88,0-4.32l-4.32,0v-4.3l4.32,0c0-1.44,0-2.88,0-4.32"/></g></g></g></svg>