<svg xmlns="http://www.w3.org/2000/svg" viewBox="0 0 85 85"><defs><style>.cls-1{fill:#ffea00;}.cls-2{fill:#fff;}</style></defs><title>Snapchat_3</title><g id="Square_Color" data-name="Square Color"><g id="Snapchat"><rect class="cls-1" width="85" height="85"/><g id="Snapchat-2" data-name="Snapchat"><path class="cls-2" d="M42.79,64.38h-.58c-2.77,0-4.54-1.26-6.25-2.47a9.09,9.09,0,0,0-3.62-1.84,11.25,11.25,0,0,0-1.9-.16,13.47,13.47,0,0,0-2.63.29,5.32,5.32,0,0,1-1,.14.61.61,0,0,1-.68-.48c-.11-.37-.19-.73-.26-1.08-.2-.9-.34-1.45-.72-1.51-4.37-.67-5.63-1.6-5.91-2.25a1,1,0,0,1-.07-.28.52.52,0,0,1,.42-.52c6.73-1.1,9.75-8,9.87-8.28l0,0a2.59,2.59,0,0,0,.24-2.16c-.47-1.08-2-1.56-3-1.88l-.66-.22c-2-.79-2.15-1.6-2.08-2a1.89,1.89,0,0,1,1.83-1.19,1.35,1.35,0,0,1,.55.11,5.76,5.76,0,0,0,2.4.63,1.93,1.93,0,0,0,1.43-.46c0-.45,0-.93-.09-1.42-.2-3.18-.45-7.14.56-9.39A12.19,12.19,0,0,1,42,20.63H43a12.21,12.21,0,0,1,11.33,7.3c1,2.26.76,6.22.56,9.4v.14c0,.44-.06.87-.08,1.28a2,2,0,0,0,1.31.46h0a6.16,6.16,0,0,0,2.26-.63,1.77,1.77,0,0,1,.7-.14,2.17,2.17,0,0,1,.81.16h0A1.48,1.48,0,0,1,61,39.8c0,.47-.34,1.17-2.09,1.86l-.66.22c-1,.32-2.5.8-3,1.88a2.55,2.55,0,0,0,.23,2.16l0,0c.12.29,3.14,7.17,9.87,8.28a.51.51,0,0,1,.42.52,1,1,0,0,1-.07.28c-.28.65-1.53,1.57-5.91,2.25-.36,0-.5.52-.71,1.5-.08.35-.16.7-.27,1.07a.58.58,0,0,1-.63.47h0a5.65,5.65,0,0,1-1-.12,12.68,12.68,0,0,0-2.63-.28,11.25,11.25,0,0,0-1.9.16,9,9,0,0,0-3.61,1.84C47.33,63.12,45.56,64.38,42.79,64.38Z"/></g></g></g></svg>