<svg xmlns="http://www.w3.org/2000/svg" viewBox="0 0 85 85"><defs><style>.cls-1{fill:#ea4b24;}.cls-2{fill:#fff;}</style></defs><title>Stumbleupon_3</title><g id="Square_Color" data-name="Square Color"><g id="Stumbleupon"><rect id="back" class="cls-1" width="85" height="85"/><path id="Stumbleupon-2" data-name="Stumbleupon" class="cls-2" d="M55.66,60.34c-5.85,0-11-4.62-11-10.34V42.66l3.65,2.8,4.15-3v7.64c0,1.35,1.82,2.56,3.21,2.56a2.76,2.76,0,0,0,2.72-2.56v-7.7H66.3V49.9A10.53,10.53,0,0,1,55.66,60.34ZM42.5,32.67c-1.39,0-2,1.1-2,2.47V50c-.1,5.72-5.3,10.3-11.14,10.3A10.54,10.54,0,0,1,18.7,49.9V42.52h7.84v7.3a2.79,2.79,0,0,0,2.82,2.47c1.39,0,3.12-1.12,3.12-2.47V34.72A10.12,10.12,0,0,1,42.62,24.65c5.78,0,9.61,4.51,9.79,10.13v3.31l-3.63,2.29L44.66,38V35.14A2.21,2.21,0,0,0,42.5,32.67Z"/></g></g></svg>