<svg xmlns="http://www.w3.org/2000/svg" viewBox="0 0 85 85"><defs><style>.cls-1{fill:#ee1d52;}.cls-2{fill:#fff;}.cls-3{fill:#69c9d0;}</style></defs><title>TikTok_3</title><g id="Square_Color" data-name="Square Color"><g id="TikTok"><rect id="back" width="85" height="85"/><path class="cls-1" d="M20.86,61.36l.17.49C21,61.8,21,61.63,20.86,61.36Zm6.88-11.12a7.4,7.4,0,0,1,9.59-6.52V36.84a14.39,14.39,0,0,1,2.54.16v8.85a7.4,7.4,0,0,0-9.59,6.52,8.1,8.1,0,0,0,1.43,4.92c-.3-.16-.59-.34-.9-.54A7.54,7.54,0,0,1,27.74,50.24ZM54.3,24.11a12.22,12.22,0,0,1-2.92-6H53.8a11.3,11.3,0,0,0,3,8.11l.05.06a13.54,13.54,0,0,1-2.58-2.19ZM66,30.35V39a30.73,30.73,0,0,1-5.38-.73,20.39,20.39,0,0,1-5.23-2.15l-1.53-1V53.06a18.3,18.3,0,0,1-1.06,5.57,16.3,16.3,0,0,1-8.36,8.9A15.83,15.83,0,0,1,37.73,69a16.49,16.49,0,0,1-9-2.69,17,17,0,0,1-2.56-2.15l0,0a16.37,16.37,0,0,0,9,2.69,16,16,0,0,0,6.66-1.47,16.77,16.77,0,0,0,5.41-4A17,17,0,0,0,50.2,56.5a18,18,0,0,0,1.06-5.57V33c.12.06,1.53,1,1.53,1A20.57,20.57,0,0,0,58,36.17a30.73,30.73,0,0,0,5.38.73V30.1A8.17,8.17,0,0,0,66,30.35Z"/><path class="cls-2" d="M63.41,30.09v6.8A30.73,30.73,0,0,1,58,36.16,20.57,20.57,0,0,1,52.79,34s-1.42-.94-1.53-1V50.93A18,18,0,0,1,50.2,56.5a17,17,0,0,1-2.94,4.86,16.77,16.77,0,0,1-5.41,4,16,16,0,0,1-6.66,1.47,16.47,16.47,0,0,1-9-2.69l0,0a15.41,15.41,0,0,1-3.66-5.78h0a17.51,17.51,0,0,1-.95-5.79,15.72,15.72,0,0,1,1.95-7.33,17.22,17.22,0,0,1,3.76-4.61A16.06,16.06,0,0,1,31.77,38a15,15,0,0,1,5.56-1.16v6.88a7.38,7.38,0,0,0-6.51,13c.31.2.6.38.9.54a7.11,7.11,0,0,0,1.64,1.6,7.19,7.19,0,0,0,7.43.71,7,7,0,0,0,3.83-4.21A10.22,10.22,0,0,0,45,51.91V18.13h6.36a12.13,12.13,0,0,0,2.92,6,14.18,14.18,0,0,0,2.58,2.19A13.6,13.6,0,0,0,60.43,29a13.11,13.11,0,0,0,3,1.08Z"/><path class="cls-3" d="M20,56.28l.16.46C20.14,56.69,20.08,56.53,20,56.28Z"/><path class="cls-3" d="M31.77,38a15.92,15.92,0,0,0-4.47,2.65,17.08,17.08,0,0,0-3.76,4.62,15.67,15.67,0,0,0-1.95,7.33,17.73,17.73,0,0,0,.95,5.79h0a17.51,17.51,0,0,0,2.39,4.35,17.29,17.29,0,0,0,1.27,1.43,17.41,17.41,0,0,1-3.81-3.56A17.14,17.14,0,0,1,20,56.29v0a17.06,17.06,0,0,1-.94-5.8A16,16,0,0,1,21,43.13a17.41,17.41,0,0,1,3.77-4.61,17.11,17.11,0,0,1,7.63-3.58,15.74,15.74,0,0,1,4.94-.08v2A15,15,0,0,0,31.77,38Z"/><path class="cls-3" d="M51.38,18.13H45V51.91a10.47,10.47,0,0,1-.39,3.48,7.36,7.36,0,0,1-11.25,3.5,6.74,6.74,0,0,1-1.65-1.59,7,7,0,0,0,6.52.17,7,7,0,0,0,3.83-4.21,10.22,10.22,0,0,0,.39-3.48V16h8.79A7.68,7.68,0,0,0,51.38,18.13Zm12,10.09v1.87a13.11,13.11,0,0,1-3-1.08,13.75,13.75,0,0,1-3.56-2.71c.33.21.66.4,1,.58A11.6,11.6,0,0,0,63.41,28.22Z"/></g></g></svg>