<svg xmlns="http://www.w3.org/2000/svg" viewBox="0 0 85 85"><defs><style>.cls-1{fill:#3b445c;}.cls-2{fill:#fff;}</style></defs><title>Tumblr_3</title><g id="Square_Color" data-name="Square Color"><g id="Tumblr"><rect id="back" class="cls-1" width="85" height="85"/><g id="Tumblr-2" data-name="Tumblr"><path class="cls-2" d="M48.89,68c5.1,0,10.16-1.82,11.83-4l.34-.44L57.9,54.17a.23.23,0,0,0-.21-.15H50.63a.21.21,0,0,1-.21-.15,5.27,5.27,0,0,1-.14-1.17V41.23a.21.21,0,0,1,.21-.21h8.32a.21.21,0,0,0,.21-.21V29.07a.21.21,0,0,0-.21-.21H50.53a.21.21,0,0,1-.21-.21V17.21A.22.22,0,0,0,50.1,17H35.59a2.48,2.48,0,0,0-2.42,2.2c-.72,5.9-3.43,9.44-8.52,11.14l-.56.19a.21.21,0,0,0-.15.2V40.81a.22.22,0,0,0,.21.21h5.2v12.4C29.35,63.33,36.21,68,48.89,68Zm9.73-4.79c-1.6,1.53-4.87,2.67-8,2.72h-.35c-10.3,0-13.05-7.87-13.05-12.52V39.14a.22.22,0,0,0-.22-.21H32a.21.21,0,0,1-.21-.21V32.21a.2.2,0,0,1,.13-.19c5.33-2.08,8.3-6.2,9.09-12.57a.37.37,0,0,1,.33-.36H48a.21.21,0,0,1,.22.21V30.74a.21.21,0,0,0,.21.21h8.28a.21.21,0,0,1,.21.21v7.56a.21.21,0,0,1-.21.21H48.41a.22.22,0,0,0-.22.21V52.72c.05,3.05,1.53,4.6,4.4,4.6a10.8,10.8,0,0,0,3.69-.73.2.2,0,0,1,.27.13L58.67,63A.22.22,0,0,1,58.62,63.21Z"/></g></g></g></svg>