<svg xmlns="http://www.w3.org/2000/svg" viewBox="0 0 85 85"><defs><style>.cls-1{fill:#25d366;}.cls-2,.cls-3{fill:#fff;}.cls-3{fill-rule:evenodd;}</style></defs><title>WhatsApp_3</title><g id="Square_Color" data-name="Square Color"><g id="WhatsApp"><rect id="back" class="cls-1" width="85" height="85"/><g id="whatsApp-2" data-name="whatsApp"><path class="cls-2" d="M18.7,66.41l3.36-12.28A23.7,23.7,0,1,1,42.6,66h0a23.67,23.67,0,0,1-11.33-2.88Zm13.15-7.58.72.42a19.59,19.59,0,0,0,10,2.75h0A19.7,19.7,0,0,0,56.53,28.37a19.5,19.5,0,0,0-13.92-5.78,19.71,19.71,0,0,0-16.7,30.18l.47.74-2,7.27Z"/><path class="cls-3" d="M54.54,47.94c-.15-.25-.54-.4-1.13-.69s-3.51-1.73-4-1.93-.94-.3-1.33.3-1.53,1.92-1.88,2.32-.69.44-1.28.15a16.21,16.21,0,0,1-4.76-2.94,18.13,18.13,0,0,1-3.3-4.1.86.86,0,0,1,.26-1.21c.27-.27.59-.69.89-1a4.32,4.32,0,0,0,.59-1,1.08,1.08,0,0,0,0-1c-.15-.29-1.33-3.21-1.82-4.39s-1-1-1.34-1-.74,0-1.13,0a2.17,2.17,0,0,0-1.58.74A6.66,6.66,0,0,0,30.56,37c0,2.92,2.12,5.73,2.41,6.13s4.18,6.37,10.12,8.94a35.85,35.85,0,0,0,3.38,1.25,8.15,8.15,0,0,0,3.73.23c1.14-.17,3.5-1.43,4-2.81A4.9,4.9,0,0,0,54.54,47.94Z"/></g></g></g></svg>