<svg xmlns="http://www.w3.org/2000/svg" viewBox="0 0 85 85"><defs><style>.cls-1{fill:#929292;}.cls-2{fill:#fff;}</style></defs><title>Reddit_4</title><g id="Square_Grey" data-name="Square Grey"><g id="Reddit"><rect id="back" class="cls-1" width="85" height="85"/><g id="reddit-2" data-name="reddit"><path class="cls-2" d="M39,33.54a3,3,0,1,0-3,3A3,3,0,0,0,39,33.54Z"/><path class="cls-2" d="M49,30.58a3,3,0,1,0,3,3A3,3,0,0,0,49,30.58Z"/><path class="cls-2" d="M48.25,40.8c-1.12,1.12-3,1.67-5.75,1.67s-4.63-.55-5.75-1.67A.82.82,0,0,0,35.59,42c1.44,1.44,3.72,2.14,6.91,2.14S48,43.41,49.41,42a.82.82,0,0,0,0-1.17A.83.83,0,0,0,48.25,40.8Z"/><path class="cls-2" d="M63.92,30.31a4.88,4.88,0,0,0-4.87-4.87,4.83,4.83,0,0,0-3.23,1.24,24.36,24.36,0,0,0-12.15-3.56l2.51-7.94L53,16.79a4,4,0,1,0,.33-1.62L45.81,13.4a.81.81,0,0,0-1,.56L42,23.1a24.66,24.66,0,0,0-12.77,3.57,4.87,4.87,0,1,0-5.72,7.83,7.87,7.87,0,0,0-.11,1.38c0,3.48,2,6.73,5.74,9.15A20.74,20.74,0,0,0,33,47a8.92,8.92,0,0,0-4.66,8.16c0,4.17,2.46,7.67,5.76,8.57A22.72,22.72,0,0,0,34.93,66l-.46,0c-3,0-5.38,2-5.38,4.51a4,4,0,0,0,.2,1.18.83.83,0,0,0,.79.57H54.8a.83.83,0,0,0,.79-.58,4,4,0,0,0,.2-1.17C55.79,68,53.37,66,50.41,66h-.33c.31-.72.59-1.48.85-2.28,3.3-.9,5.76-4.4,5.76-8.57A9,9,0,0,0,52,47,20.12,20.12,0,0,0,55.91,45c3.7-2.42,5.74-5.67,5.74-9.15a7.87,7.87,0,0,0-.11-1.38A4.88,4.88,0,0,0,63.92,30.31ZM59.39,16.76A2.37,2.37,0,1,1,57,14.4,2.37,2.37,0,0,1,59.39,16.76ZM54.14,70.5a.31.31,0,0,1,0,.1h-7a13.37,13.37,0,0,0,2-2.8,4.79,4.79,0,0,1,1.22-.16C52.46,67.64,54.14,68.93,54.14,70.5ZM34.47,67.64a4.61,4.61,0,0,1,1.36.2,13.65,13.65,0,0,0,2,2.76h-7.1v-.1C30.74,68.93,32.41,67.64,34.47,67.64Zm10.07,3H40.46c-3.66-2.09-6.3-9.4-6.3-17.53a38,38,0,0,1,.41-5.54,28.15,28.15,0,0,0,15.86,0,37.88,37.88,0,0,1,.41,5.54C50.84,61.2,48.2,68.51,44.54,70.6ZM32.71,49.06a40,40,0,0,0-.2,4,36.64,36.64,0,0,0,1,8.68A7.34,7.34,0,0,1,30,55.15,7.65,7.65,0,0,1,32.71,49.06ZM51.48,61.75a36.64,36.64,0,0,0,1-8.68,40,40,0,0,0-.2-4,7.65,7.65,0,0,1,2.76,6.09A7.34,7.34,0,0,1,51.48,61.75ZM42.5,47C32.85,47,25,42,25,35.88S32.85,24.74,42.5,24.74,60,29.74,60,35.88,52.15,47,42.5,47ZM26,27.09a3.19,3.19,0,0,1,1.84.58A11.79,11.79,0,0,0,23.9,32.8,3.22,3.22,0,0,1,26,27.09Zm31.26.58a3.17,3.17,0,0,1,1.84-.58A3.22,3.22,0,0,1,61.1,32.8,11.87,11.87,0,0,0,57.21,27.67Z"/></g></g></g></svg>