<svg xmlns="http://www.w3.org/2000/svg" viewBox="0 0 85 85"><defs><style>.cls-1{fill:#929292;}.cls-2{fill:#fff;}</style></defs><title>Yelp_4</title><g id="Square_Grey" data-name="Square Grey"><g id="Yelp"><rect id="back" class="cls-1" width="85" height="85"/><g id="yelp-2" data-name="yelp"><path class="cls-2" d="M25.29,41.62c-.78,1.23-1.1,5.13-.83,7.73a6.17,6.17,0,0,0,.47,2,1.67,1.67,0,0,0,1.42,1c.38,0,.62,0,7.76-2.34l3.19-1a1.93,1.93,0,0,0,1.38-1.86A2,2,0,0,0,37.43,45l-2.25-.92c-7.68-3.16-8-3.29-8.41-3.29A1.63,1.63,0,0,0,25.29,41.62Z"/><path class="cls-2" d="M42.46,65.21c.13-.36.14-.6.16-8.11,0,0,0-3.32,0-3.35a2,2,0,0,0-1.34-1.89,2.07,2.07,0,0,0-2.38.54s-1.56,1.86-1.57,1.86c-5.38,6.32-5.6,6.61-5.73,7a1.38,1.38,0,0,0-.09.69,1.82,1.82,0,0,0,.43,1c1.25,1.48,7.23,3.68,9.14,3.36A1.68,1.68,0,0,0,42.46,65.21Z"/><path class="cls-2" d="M54.6,62.6c1.8-.72,5.74-5.72,6-7.65A1.68,1.68,0,0,0,60,53.33c-.31-.22-.54-.31-7.68-2.65l-3.17-1.06a1.93,1.93,0,0,0-2.2.7,2,2,0,0,0-.22,2.44L48,54.81c4.24,6.89,4.57,7.37,4.87,7.61a1.65,1.65,0,0,0,1.7.18Z"/><path class="cls-2" d="M50.91,44.88c8.12-2,8.43-2.07,8.75-2.28a1.68,1.68,0,0,0,.7-1.56V41c-.21-2-3.71-7.18-5.43-8a1.68,1.68,0,0,0-1.72.07c-.32.2-.54.51-4.89,6.45,0,0-2,2.68-2,2.71a1.93,1.93,0,0,0,0,2.3,2.07,2.07,0,0,0,2.23,1l0,.06C48.89,45.36,49.61,45.19,50.91,44.88Z"/><path class="cls-2" d="M42.76,38.18h0C42.62,35,41.66,20.64,41.54,20a1.7,1.7,0,0,0-1.31-1.2c-2.07-.52-10,1.7-11.45,3.21a1.74,1.74,0,0,0-.51,1.64c.23.47,10,15.91,10,15.91,1.45,2.35,2.64,2,3,1.86S42.89,40.92,42.76,38.18Z"/></g></g></g></svg>