<?xml version="1.0" encoding="iso-8859-1"?>
<!-- Generator: Adobe Illustrator 16.0.0, SVG Export Plug-In . SVG Version: 6.00 Build 0)  -->
<!-- <!DOCTYPE svg PUBLIC "-//W3C//DTD SVG 1.1//EN" "http://www.w3.org/Graphics/SVG/1.1/DTD/svg11.dtd"> -->
<svg version="1.1" id="Layer_1" xmlns="http://www.w3.org/2000/svg" xmlns:xlink="http://www.w3.org/1999/xlink" x="0px" y="0px"
	 viewBox="0 0 260 260" style="enable-background:new 0 0 410.155 410.155;" xml:space="preserve">
	 <!-- width="256px" height="256px" viewBox="0 0 256 256" enable-background="new 0 0 256 256" xml:space="preserve"> -->
<path fill="#76A9EA" d="M128,23.063c34.178,0,38.226,0.13,51.723,0.746c12.479,0.569,19.258,2.655,23.768,4.407
	c5.975,2.322,10.239,5.096,14.719,9.575c4.479,4.479,7.252,8.743,9.574,14.717c1.752,4.511,3.838,11.289,4.407,23.768
	c0.616,13.498,0.746,17.546,0.746,51.723c0,34.178-0.13,38.227-0.746,51.723c-0.569,12.48-2.655,19.258-4.407,23.769
	c-2.322,5.974-5.096,10.239-9.574,14.718c-4.479,4.479-8.744,7.253-14.719,9.574c-4.51,1.753-11.288,3.838-23.768,4.408
	c-13.495,0.615-17.543,0.746-51.723,0.746c-34.179,0-38.228-0.131-51.723-0.746c-12.479-0.57-19.257-2.655-23.768-4.408
	c-5.975-2.321-10.239-5.096-14.718-9.574c-4.479-4.479-7.253-8.744-9.574-14.718c-1.753-4.511-3.838-11.288-4.408-23.768
	c-0.616-13.497-0.746-17.546-0.746-51.724c0-34.177,0.13-38.226,0.746-51.723c0.569-12.479,2.655-19.257,4.408-23.768
	c2.321-5.974,5.096-10.239,9.574-14.717c4.479-4.479,8.744-7.253,14.718-9.575c4.51-1.752,11.288-3.838,23.767-4.407
	C89.774,23.193,93.822,23.063,128,23.063 M128,0C93.237,0,88.878,0.147,75.226,0.771C61.601,1.392,52.297,3.556,44.155,6.72
	c-8.417,3.271-15.556,7.648-22.671,14.764S9.991,35.738,6.72,44.155c-3.165,8.142-5.328,17.446-5.95,31.071
	C0.147,88.878,0,93.237,0,128c0,34.764,0.147,39.122,0.77,52.774c0.622,13.624,2.786,22.929,5.95,31.071
	c3.271,8.416,7.648,15.555,14.764,22.671s14.254,11.493,22.671,14.764c8.142,3.165,17.446,5.328,31.071,5.95
	C88.878,255.854,93.237,256,128,256c34.763,0,39.122-0.146,52.774-0.77c13.625-0.622,22.93-2.785,31.071-5.95
	c8.417-3.271,15.556-7.647,22.671-14.764c7.116-7.116,11.493-14.254,14.764-22.671c3.165-8.143,5.328-17.447,5.95-31.071
	C255.853,167.122,256,162.764,256,128c0-34.763-0.147-39.122-0.771-52.774c-0.622-13.625-2.785-22.929-5.95-31.071
	c-3.271-8.417-7.647-15.556-14.764-22.671C227.4,14.368,220.262,9.991,211.845,6.72c-8.142-3.165-17.446-5.328-31.071-5.95
	C167.121,0.147,162.763,0,128,0z M128,62.271C91.698,62.271,62.27,91.699,62.27,128c0,36.302,29.428,65.73,65.729,65.73
	s65.73-29.429,65.73-65.73C193.729,91.699,164.301,62.271,128,62.271z M128,170.667c-23.564,0-42.667-19.103-42.667-42.667
	c0-23.564,19.103-42.667,42.667-42.667c23.565,0,42.667,19.103,42.667,42.667C170.666,151.564,151.564,170.667,128,170.667z
	 M211.687,59.673c0,8.483-6.877,15.36-15.36,15.36c-8.482,0-15.359-6.877-15.359-15.36c0-8.483,6.877-15.36,15.359-15.36
	C204.81,44.313,211.687,51.19,211.687,59.673z"/>
</svg>
