<svg xmlns="http://www.w3.org/2000/svg" xmlns:xlink="http://www.w3.org/1999/xlink" width="512" zoomAndPan="magnify" viewBox="0 0 384 383.999986" height="512" preserveAspectRatio="xMidYMid meet" version="1.0"><defs><g/><clipPath id="88c7600980"><path d="M 33.53125 44.921875 L 350.78125 44.921875 L 350.78125 319.421875 L 33.53125 319.421875 Z M 33.53125 44.921875 " clip-rule="nonzero"/></clipPath><clipPath id="e70462ec3e"><path d="M 60.578125 273.433594 L 166.328125 273.433594 L 166.328125 364.933594 L 60.578125 364.933594 Z M 60.578125 273.433594 " clip-rule="nonzero"/></clipPath><clipPath id="6ca9d5b576"><path d="M 17.289062 189.421875 L 111.789062 189.421875 L 111.789062 271.171875 L 17.289062 271.171875 Z M 17.289062 189.421875 " clip-rule="nonzero"/></clipPath><clipPath id="62bcc6455b"><path d="M 116.476562 193.789062 L 201.226562 193.789062 L 201.226562 267.289062 L 116.476562 267.289062 Z M 116.476562 193.789062 " clip-rule="nonzero"/></clipPath><clipPath id="74b87a4241"><path d="M 81.578125 132.910156 L 146.828125 132.910156 L 146.828125 189.160156 L 81.578125 189.160156 Z M 81.578125 132.910156 " clip-rule="nonzero"/></clipPath><clipPath id="9b8e514291"><path d="M 158.773438 140.664062 L 206.023438 140.664062 L 206.023438 181.914062 L 158.773438 181.914062 Z M 158.773438 140.664062 " clip-rule="nonzero"/></clipPath></defs><g clip-path="url(#88c7600980)"><path fill="#fc6d6d" d="M 265.902344 54.429688 L 339.644531 182.171875 L 265.902344 309.910156 L 118.410156 309.910156 L 44.601562 182.171875 L 118.410156 54.429688 L 265.902344 54.429688 M 271.417969 44.921875 L 112.894531 44.921875 L 33.632812 182.171875 L 112.894531 319.421875 L 271.417969 319.421875 L 350.679688 182.171875 Z M 271.417969 44.921875 " fill-opacity="1" fill-rule="nonzero"/></g><g clip-path="url(#e70462ec3e)"><path fill="#fc6d6d" d="M 87.03125 364.933594 L 60.613281 319.183594 L 87.03125 273.433594 L 139.871094 273.433594 L 166.289062 319.183594 L 139.871094 364.933594 Z M 87.03125 364.933594 " fill-opacity="1" fill-rule="nonzero"/></g><g clip-path="url(#6ca9d5b576)"><path fill="#fc6d6d" d="M 40.929688 271.171875 L 17.320312 230.296875 L 40.929688 189.421875 L 88.148438 189.421875 L 111.761719 230.296875 L 88.148438 271.171875 Z M 40.929688 271.171875 " fill-opacity="1" fill-rule="nonzero"/></g><g clip-path="url(#62bcc6455b)"><path fill="#fc6d6d" d="M 137.675781 267.289062 L 116.503906 230.539062 L 137.675781 193.789062 L 180.027344 193.789062 L 201.203125 230.539062 L 180.027344 267.289062 Z M 137.675781 267.289062 " fill-opacity="1" fill-rule="nonzero"/></g><g clip-path="url(#74b87a4241)"><path fill="#fc6d6d" d="M 97.902344 189.160156 L 81.601562 161.035156 L 97.902344 132.910156 L 130.503906 132.910156 L 146.804688 161.035156 L 130.503906 189.160156 Z M 97.902344 189.160156 " fill-opacity="1" fill-rule="nonzero"/></g><g clip-path="url(#9b8e514291)"><path fill="#fc6d6d" d="M 170.59375 181.914062 L 158.789062 161.289062 L 170.59375 140.664062 L 194.203125 140.664062 L 206.007812 161.289062 L 194.203125 181.914062 Z M 170.59375 181.914062 " fill-opacity="1" fill-rule="nonzero"/></g><g fill="#000000" fill-opacity="0.502"><g transform="translate(282.92771, 272.216855)"><g><path d="M -6.609375 -4.921875 L -7.140625 -4.1875 L -7.40625 -4.34375 C -7.375 -4.613281 -7.304688 -4.894531 -7.203125 -5.1875 C -7.109375 -5.488281 -7.023438 -5.765625 -6.953125 -6.015625 L -6.8125 -6.28125 L -3.15625 -4.15625 L -3.140625 -4.171875 C -3.421875 -4.503906 -3.582031 -4.867188 -3.625 -5.265625 C -3.675781 -5.660156 -3.601562 -6.03125 -3.40625 -6.375 C -3.039062 -7.007812 -2.546875 -7.363281 -1.921875 -7.4375 C -1.296875 -7.519531 -0.535156 -7.300781 0.359375 -6.78125 C 1.265625 -6.25 1.816406 -5.613281 2.015625 -4.875 C 2.222656 -4.144531 2.078125 -3.347656 1.578125 -2.484375 C 1.484375 -2.316406 1.375 -2.148438 1.25 -1.984375 C 1.125 -1.828125 0.992188 -1.679688 0.859375 -1.546875 C 0.734375 -1.410156 0.609375 -1.296875 0.484375 -1.203125 C 0.359375 -1.109375 0.253906 -1.03125 0.171875 -0.96875 Z M -2.921875 -5.71875 C -3.117188 -5.382812 -3.164062 -5.046875 -3.0625 -4.703125 C -2.957031 -4.367188 -2.757812 -4.050781 -2.46875 -3.75 L 0.421875 -2.078125 C 0.566406 -2.160156 0.710938 -2.28125 0.859375 -2.4375 C 1.003906 -2.59375 1.132812 -2.769531 1.25 -2.96875 C 1.507812 -3.425781 1.515625 -3.898438 1.265625 -4.390625 C 1.023438 -4.890625 0.523438 -5.359375 -0.234375 -5.796875 C -0.503906 -5.953125 -0.773438 -6.078125 -1.046875 -6.171875 C -1.316406 -6.265625 -1.566406 -6.3125 -1.796875 -6.3125 C -2.035156 -6.320312 -2.25 -6.28125 -2.4375 -6.1875 C -2.632812 -6.09375 -2.796875 -5.9375 -2.921875 -5.71875 Z M -2.921875 -5.71875 "/></g></g></g><g fill="#000000" fill-opacity="0.502"><g transform="translate(286.217003, 266.564217)"><g><path d="M -4.421875 -3.15625 C -4.503906 -3.070312 -4.585938 -3 -4.671875 -2.9375 C -4.765625 -2.875 -4.867188 -2.8125 -4.984375 -2.75 L -5.25 -2.90625 L -4 -5.0625 L -3.734375 -4.921875 C -3.722656 -4.722656 -3.753906 -4.472656 -3.828125 -4.171875 L 0.03125 -3.71875 L 0.78125 -3.546875 L 0.796875 -3.578125 L 0.234375 -4.09375 L -2.265625 -6.859375 C -2.421875 -6.671875 -2.613281 -6.53125 -2.84375 -6.4375 L -3.109375 -6.59375 L -2.078125 -8.359375 L -1.8125 -8.203125 C -1.789062 -8.003906 -1.816406 -7.765625 -1.890625 -7.484375 L 1.828125 -3.140625 C 2.171875 -2.710938 2.4375 -2.34375 2.625 -2.03125 C 2.8125 -1.726562 2.9375 -1.457031 3 -1.21875 C 3.070312 -0.976562 3.097656 -0.757812 3.078125 -0.5625 C 3.066406 -0.375 3.03125 -0.175781 2.96875 0.03125 C 2.800781 0.0390625 2.613281 0.03125 2.40625 0 C 2.207031 -0.0390625 2.03125 -0.0859375 1.875 -0.140625 L 1.703125 -0.40625 L 2.328125 -1.484375 C 2.285156 -1.566406 2.25 -1.632812 2.21875 -1.6875 C 2.1875 -1.75 2.144531 -1.820312 2.09375 -1.90625 C 2.039062 -1.988281 1.96875 -2.082031 1.875 -2.1875 C 1.78125 -2.300781 1.660156 -2.4375 1.515625 -2.59375 Z M -4.421875 -3.15625 "/></g></g></g><g fill="#000000" fill-opacity="0.502"><g transform="translate(289.26488, 261.326451)"><g/></g></g><g fill="#000000" fill-opacity="0.502"><g transform="translate(290.731479, 258.806105)"><g><path d="M -4.96875 -8.1875 L -3.625 -10.484375 L -3.3125 -10.296875 C -3.332031 -10.117188 -3.359375 -9.953125 -3.390625 -9.796875 C -3.421875 -9.648438 -3.460938 -9.503906 -3.515625 -9.359375 L -1.96875 -5.671875 C -1.632812 -5.710938 -1.265625 -5.765625 -0.859375 -5.828125 C -0.453125 -5.890625 -0.0234375 -5.953125 0.421875 -6.015625 C 0.867188 -6.085938 1.320312 -6.160156 1.78125 -6.234375 C 2.238281 -6.316406 2.675781 -6.40625 3.09375 -6.5 L 3.640625 -6.859375 L 3.890625 -6.703125 L 3.140625 -5.40625 L 2.6875 -5.1875 C 1.976562 -5.0625 1.226562 -4.957031 0.4375 -4.875 C -0.351562 -4.800781 -1.140625 -4.734375 -1.921875 -4.671875 L -2.21875 -4.15625 L 0.703125 -2.46875 C 0.941406 -2.757812 1.175781 -2.972656 1.40625 -3.109375 L 1.703125 -2.9375 L 0.171875 -0.296875 L -0.125 -0.46875 C -0.0703125 -0.820312 0.0078125 -1.15625 0.125 -1.46875 L -6.03125 -5.03125 C -6.25 -4.757812 -6.5 -4.53125 -6.78125 -4.34375 L -7.09375 -4.53125 L -5.5625 -7.171875 L -5.25 -6.984375 C -5.269531 -6.835938 -5.296875 -6.679688 -5.328125 -6.515625 C -5.359375 -6.359375 -5.398438 -6.195312 -5.453125 -6.03125 L -2.578125 -4.359375 L -2.359375 -5.078125 L -3.953125 -8.609375 C -4.078125 -8.484375 -4.191406 -8.367188 -4.296875 -8.265625 C -4.410156 -8.171875 -4.53125 -8.082031 -4.65625 -8 Z M -4.96875 -8.1875 "/></g></g></g><g fill="#000000" fill-opacity="0.502"><g transform="translate(294.630344, 252.105918)"><g><path d="M 1.109375 -5.046875 C 1.253906 -4.953125 1.382812 -4.875 1.5 -4.8125 C 1.625 -4.757812 1.75 -4.703125 1.875 -4.640625 L 2.390625 -5.296875 L 2.609375 -5.171875 C 2.609375 -4.941406 2.578125 -4.703125 2.515625 -4.453125 C 2.460938 -4.203125 2.398438 -3.972656 2.328125 -3.765625 L 2.171875 -3.484375 C 1.972656 -3.515625 1.773438 -3.578125 1.578125 -3.671875 C 1.378906 -3.773438 1.164062 -3.890625 0.9375 -4.015625 L 0.90625 -3.953125 C 1.019531 -3.847656 1.125 -3.710938 1.21875 -3.546875 C 1.3125 -3.390625 1.378906 -3.210938 1.421875 -3.015625 C 1.460938 -2.828125 1.46875 -2.625 1.4375 -2.40625 C 1.40625 -2.195312 1.320312 -1.984375 1.1875 -1.765625 C 0.945312 -1.335938 0.617188 -1.066406 0.203125 -0.953125 C -0.203125 -0.835938 -0.613281 -0.898438 -1.03125 -1.140625 C -1.34375 -1.328125 -1.5625 -1.539062 -1.6875 -1.78125 C -1.820312 -2.03125 -1.875 -2.316406 -1.84375 -2.640625 C -1.820312 -2.960938 -1.726562 -3.320312 -1.5625 -3.71875 C -1.40625 -4.113281 -1.203125 -4.554688 -0.953125 -5.046875 C -1.222656 -5.253906 -1.476562 -5.421875 -1.71875 -5.546875 C -1.96875 -5.671875 -2.195312 -5.75 -2.40625 -5.78125 C -2.625 -5.8125 -2.8125 -5.789062 -2.96875 -5.71875 C -3.132812 -5.65625 -3.273438 -5.519531 -3.390625 -5.3125 C -3.453125 -5.21875 -3.515625 -5.101562 -3.578125 -4.96875 C -3.648438 -4.84375 -3.691406 -4.707031 -3.703125 -4.5625 L -2.75 -3.359375 L -2.90625 -3.09375 C -3.15625 -3.132812 -3.40625 -3.191406 -3.65625 -3.265625 C -3.90625 -3.347656 -4.144531 -3.441406 -4.375 -3.546875 C -4.363281 -3.898438 -4.3125 -4.265625 -4.21875 -4.640625 C -4.125 -5.023438 -3.960938 -5.410156 -3.734375 -5.796875 C -3.523438 -6.148438 -3.3125 -6.398438 -3.09375 -6.546875 C -2.875 -6.703125 -2.648438 -6.789062 -2.421875 -6.8125 C -2.203125 -6.832031 -1.984375 -6.800781 -1.765625 -6.71875 C -1.554688 -6.644531 -1.351562 -6.550781 -1.15625 -6.4375 C -0.738281 -6.195312 -0.347656 -5.953125 0.015625 -5.703125 C 0.390625 -5.460938 0.753906 -5.242188 1.109375 -5.046875 Z M 0.796875 -2.546875 C 0.898438 -2.722656 0.953125 -2.894531 0.953125 -3.0625 C 0.953125 -3.238281 0.929688 -3.398438 0.890625 -3.546875 C 0.847656 -3.691406 0.789062 -3.816406 0.71875 -3.921875 C 0.644531 -4.035156 0.585938 -4.128906 0.546875 -4.203125 L -0.546875 -4.84375 C -0.785156 -4.4375 -0.957031 -4.09375 -1.0625 -3.8125 C -1.175781 -3.53125 -1.226562 -3.289062 -1.21875 -3.09375 C -1.21875 -2.894531 -1.164062 -2.726562 -1.0625 -2.59375 C -0.957031 -2.46875 -0.816406 -2.351562 -0.640625 -2.25 C -0.335938 -2.070312 -0.0625 -2.007812 0.1875 -2.0625 C 0.4375 -2.113281 0.640625 -2.273438 0.796875 -2.546875 Z M 0.796875 -2.546875 "/></g></g></g><g fill="#000000" fill-opacity="0.502"><g transform="translate(297.678222, 246.868152)"><g><path d="M 1.59375 -2.734375 L 0.25 -0.421875 L 0 -0.578125 C 0.0195312 -0.867188 0.0625 -1.144531 0.125 -1.40625 L -6.4375 -5.234375 L -6.96875 -4.5 L -7.234375 -4.65625 C -7.210938 -4.875 -7.15625 -5.132812 -7.0625 -5.4375 C -6.96875 -5.75 -6.875 -6.046875 -6.78125 -6.328125 L -6.625 -6.59375 L 0.671875 -2.34375 C 0.867188 -2.539062 1.09375 -2.722656 1.34375 -2.890625 Z M 1.59375 -2.734375 "/></g></g></g><g fill="#000000" fill-opacity="0.502"><g transform="translate(299.494877, 243.746237)"><g><path d="M 1.96875 -5.046875 C 2.050781 -4.921875 2.109375 -4.769531 2.140625 -4.59375 C 2.171875 -4.414062 2.179688 -4.226562 2.171875 -4.03125 C 2.160156 -3.84375 2.125 -3.644531 2.0625 -3.4375 C 2.007812 -3.226562 1.929688 -3.03125 1.828125 -2.84375 C 1.585938 -2.425781 1.3125 -2.097656 1 -1.859375 C 0.695312 -1.628906 0.363281 -1.476562 0 -1.40625 C -0.351562 -1.34375 -0.726562 -1.351562 -1.125 -1.4375 C -1.519531 -1.519531 -1.925781 -1.6875 -2.34375 -1.9375 C -3.226562 -2.445312 -3.785156 -3.039062 -4.015625 -3.71875 C -4.242188 -4.394531 -4.140625 -5.109375 -3.703125 -5.859375 C -3.554688 -6.109375 -3.382812 -6.328125 -3.1875 -6.515625 C -2.988281 -6.710938 -2.757812 -6.859375 -2.5 -6.953125 C -2.238281 -7.054688 -1.945312 -7.085938 -1.625 -7.046875 C -1.3125 -7.015625 -0.960938 -6.890625 -0.578125 -6.671875 C -0.460938 -6.609375 -0.347656 -6.535156 -0.234375 -6.453125 C -0.117188 -6.367188 0 -6.273438 0.125 -6.171875 L -1.765625 -2.9375 C -1.472656 -2.757812 -1.179688 -2.632812 -0.890625 -2.5625 C -0.597656 -2.488281 -0.316406 -2.46875 -0.046875 -2.5 C 0.222656 -2.539062 0.476562 -2.640625 0.71875 -2.796875 C 0.957031 -2.953125 1.164062 -3.179688 1.34375 -3.484375 C 1.476562 -3.722656 1.582031 -3.988281 1.65625 -4.28125 C 1.726562 -4.570312 1.75 -4.8125 1.71875 -5 Z M -3.25 -5.5625 C -3.488281 -5.164062 -3.535156 -4.785156 -3.390625 -4.421875 C -3.242188 -4.054688 -2.847656 -3.660156 -2.203125 -3.234375 L -0.875 -5.515625 C -0.9375 -5.546875 -0.992188 -5.582031 -1.046875 -5.625 C -1.109375 -5.664062 -1.164062 -5.703125 -1.21875 -5.734375 C -1.65625 -5.984375 -2.050781 -6.101562 -2.40625 -6.09375 C -2.769531 -6.082031 -3.050781 -5.90625 -3.25 -5.5625 Z M -3.25 -5.5625 "/></g></g></g><g fill="#000000" fill-opacity="0.502"><g transform="translate(302.530684, 238.529212)"><g><path d="M -6.609375 -4.921875 L -7.140625 -4.1875 L -7.40625 -4.34375 C -7.375 -4.613281 -7.304688 -4.894531 -7.203125 -5.1875 C -7.109375 -5.488281 -7.023438 -5.765625 -6.953125 -6.015625 L -6.8125 -6.28125 L -3.15625 -4.15625 L -3.140625 -4.171875 C -3.421875 -4.503906 -3.582031 -4.867188 -3.625 -5.265625 C -3.675781 -5.660156 -3.601562 -6.03125 -3.40625 -6.375 C -3.039062 -7.007812 -2.546875 -7.363281 -1.921875 -7.4375 C -1.296875 -7.519531 -0.535156 -7.300781 0.359375 -6.78125 C 1.265625 -6.25 1.816406 -5.613281 2.015625 -4.875 C 2.222656 -4.144531 2.078125 -3.347656 1.578125 -2.484375 C 1.484375 -2.316406 1.375 -2.148438 1.25 -1.984375 C 1.125 -1.828125 0.992188 -1.679688 0.859375 -1.546875 C 0.734375 -1.410156 0.609375 -1.296875 0.484375 -1.203125 C 0.359375 -1.109375 0.253906 -1.03125 0.171875 -0.96875 Z M -2.921875 -5.71875 C -3.117188 -5.382812 -3.164062 -5.046875 -3.0625 -4.703125 C -2.957031 -4.367188 -2.757812 -4.050781 -2.46875 -3.75 L 0.421875 -2.078125 C 0.566406 -2.160156 0.710938 -2.28125 0.859375 -2.4375 C 1.003906 -2.59375 1.132812 -2.769531 1.25 -2.96875 C 1.507812 -3.425781 1.515625 -3.898438 1.265625 -4.390625 C 1.023438 -4.890625 0.523438 -5.359375 -0.234375 -5.796875 C -0.503906 -5.953125 -0.773438 -6.078125 -1.046875 -6.171875 C -1.316406 -6.265625 -1.566406 -6.3125 -1.796875 -6.3125 C -2.035156 -6.320312 -2.25 -6.28125 -2.4375 -6.1875 C -2.632812 -6.09375 -2.796875 -5.9375 -2.921875 -5.71875 Z M -2.921875 -5.71875 "/></g></g></g><g fill="#000000" fill-opacity="0.502"><g transform="translate(305.819976, 232.876575)"><g/></g></g><g fill="#000000" fill-opacity="0.502"><g transform="translate(307.286576, 230.356229)"><g><path d="M 0.703125 -2.46875 C 0.828125 -2.613281 0.953125 -2.742188 1.078125 -2.859375 C 1.203125 -2.984375 1.332031 -3.097656 1.46875 -3.203125 L 1.765625 -3.03125 L 0.171875 -0.296875 L -0.125 -0.46875 C -0.101562 -0.664062 -0.0703125 -0.84375 -0.03125 -1 C 0.0078125 -1.164062 0.0625 -1.320312 0.125 -1.46875 L -6.03125 -5.03125 C -6.164062 -4.875 -6.296875 -4.742188 -6.421875 -4.640625 C -6.546875 -4.535156 -6.664062 -4.4375 -6.78125 -4.34375 L -7.09375 -4.53125 L -6.5625 -5.453125 C -6.394531 -5.734375 -6.226562 -6.046875 -6.0625 -6.390625 C -5.894531 -6.734375 -5.722656 -7.054688 -5.546875 -7.359375 C -5.347656 -7.703125 -5.125 -7.992188 -4.875 -8.234375 C -4.632812 -8.484375 -4.367188 -8.664062 -4.078125 -8.78125 C -3.785156 -8.90625 -3.472656 -8.953125 -3.140625 -8.921875 C -2.816406 -8.898438 -2.476562 -8.785156 -2.125 -8.578125 C -1.613281 -8.273438 -1.269531 -7.890625 -1.09375 -7.421875 C -0.914062 -6.960938 -0.882812 -6.46875 -1 -5.9375 C -0.375 -5.957031 0.265625 -5.992188 0.921875 -6.046875 C 1.578125 -6.109375 2.238281 -6.179688 2.90625 -6.265625 L 3.53125 -6.671875 L 3.78125 -6.515625 L 3.0625 -5.25 L 2.53125 -5.015625 C 2.1875 -4.960938 1.847656 -4.925781 1.515625 -4.90625 C 1.191406 -4.882812 0.867188 -4.875 0.546875 -4.875 C 0.234375 -4.875 -0.078125 -4.882812 -0.390625 -4.90625 C -0.710938 -4.925781 -1.050781 -4.957031 -1.40625 -5 L -1.96875 -4.015625 Z M -5.15625 -6.796875 C -5.25 -6.640625 -5.320312 -6.503906 -5.375 -6.390625 C -5.425781 -6.273438 -5.46875 -6.164062 -5.5 -6.0625 L -2.390625 -4.265625 L -1.953125 -5.015625 C -1.679688 -5.492188 -1.617188 -5.957031 -1.765625 -6.40625 C -1.910156 -6.863281 -2.234375 -7.238281 -2.734375 -7.53125 C -3.242188 -7.820312 -3.707031 -7.890625 -4.125 -7.734375 C -4.539062 -7.578125 -4.882812 -7.265625 -5.15625 -6.796875 Z M -5.15625 -6.796875 "/></g></g></g><g fill="#000000" fill-opacity="0.502"><g transform="translate(311.131124, 223.749387)"><g><path d="M -1.578125 -1.984375 C -2.015625 -2.242188 -2.4375 -2.503906 -2.84375 -2.765625 C -3.25 -3.023438 -3.660156 -3.273438 -4.078125 -3.515625 L -4.5625 -2.890625 L -4.828125 -3.046875 C -4.785156 -3.328125 -4.726562 -3.597656 -4.65625 -3.859375 C -4.582031 -4.128906 -4.503906 -4.390625 -4.421875 -4.640625 L -4.265625 -4.890625 C -3.742188 -4.585938 -3.234375 -4.273438 -2.734375 -3.953125 C -2.242188 -3.640625 -1.742188 -3.332031 -1.234375 -3.03125 C -0.972656 -2.875 -0.722656 -2.75 -0.484375 -2.65625 C -0.242188 -2.5625 -0.03125 -2.507812 0.15625 -2.5 C 0.351562 -2.5 0.53125 -2.546875 0.6875 -2.640625 C 0.851562 -2.734375 0.992188 -2.882812 1.109375 -3.09375 C 1.296875 -3.40625 1.335938 -3.734375 1.234375 -4.078125 C 1.128906 -4.421875 0.929688 -4.753906 0.640625 -5.078125 L -2.203125 -6.734375 L -2.6875 -6.125 L -2.953125 -6.28125 C -2.910156 -6.550781 -2.851562 -6.816406 -2.78125 -7.078125 C -2.71875 -7.347656 -2.640625 -7.601562 -2.546875 -7.84375 L -2.390625 -8.109375 L 2.328125 -5.359375 L 2.796875 -6 L 3.015625 -5.875 C 2.992188 -5.613281 2.957031 -5.359375 2.90625 -5.109375 C 2.851562 -4.867188 2.78125 -4.625 2.6875 -4.375 L 2.546875 -4.125 L 1.25 -4.78125 L 1.234375 -4.734375 C 1.359375 -4.617188 1.46875 -4.472656 1.5625 -4.296875 C 1.664062 -4.128906 1.738281 -3.9375 1.78125 -3.71875 C 1.820312 -3.507812 1.828125 -3.296875 1.796875 -3.078125 C 1.773438 -2.859375 1.707031 -2.644531 1.59375 -2.4375 C 1.425781 -2.15625 1.25 -1.925781 1.0625 -1.75 C 0.875 -1.582031 0.65625 -1.472656 0.40625 -1.421875 C 0.15625 -1.378906 -0.128906 -1.398438 -0.453125 -1.484375 C -0.773438 -1.566406 -1.148438 -1.734375 -1.578125 -1.984375 Z M -1.578125 -1.984375 "/></g></g></g><g fill="#000000" fill-opacity="0.502"><g transform="translate(314.595444, 217.795964)"><g><path d="M 3.609375 -1.421875 L 2.265625 0.875 L 2 0.71875 C 2.019531 0.425781 2.066406 0.15625 2.140625 -0.09375 L -4 -3.65625 L -4.484375 -3.046875 L -4.75 -3.203125 C -4.71875 -3.460938 -4.660156 -3.726562 -4.578125 -4 C -4.503906 -4.269531 -4.425781 -4.523438 -4.34375 -4.765625 L -4.1875 -5.03125 L -3.015625 -4.34375 C -3.285156 -4.695312 -3.453125 -5.0625 -3.515625 -5.4375 C -3.585938 -5.8125 -3.503906 -6.203125 -3.265625 -6.609375 C -2.910156 -7.210938 -2.429688 -7.5625 -1.828125 -7.65625 C -1.222656 -7.757812 -0.457031 -7.546875 0.46875 -7.015625 C 0.90625 -6.753906 1.265625 -6.46875 1.546875 -6.15625 C 1.828125 -5.84375 2.023438 -5.507812 2.140625 -5.15625 C 2.265625 -4.800781 2.304688 -4.429688 2.265625 -4.046875 C 2.222656 -3.671875 2.09375 -3.300781 1.875 -2.9375 C 1.726562 -2.6875 1.597656 -2.5 1.484375 -2.375 C 1.367188 -2.25 1.222656 -2.117188 1.046875 -1.984375 L 2.6875 -1.03125 C 2.769531 -1.132812 2.863281 -1.226562 2.96875 -1.3125 C 3.070312 -1.40625 3.195312 -1.492188 3.34375 -1.578125 Z M -2.828125 -5.890625 C -3.023438 -5.546875 -3.070312 -5.210938 -2.96875 -4.890625 C -2.875 -4.566406 -2.664062 -4.253906 -2.34375 -3.953125 L 0.578125 -2.265625 C 0.710938 -2.347656 0.84375 -2.457031 0.96875 -2.59375 C 1.101562 -2.726562 1.242188 -2.921875 1.390625 -3.171875 C 1.515625 -3.398438 1.570312 -3.640625 1.5625 -3.890625 C 1.5625 -4.140625 1.488281 -4.382812 1.34375 -4.625 C 1.207031 -4.875 1.015625 -5.113281 0.765625 -5.34375 C 0.515625 -5.582031 0.21875 -5.804688 -0.125 -6.015625 C -0.414062 -6.179688 -0.691406 -6.3125 -0.953125 -6.40625 C -1.210938 -6.5 -1.457031 -6.546875 -1.6875 -6.546875 C -1.925781 -6.554688 -2.140625 -6.507812 -2.328125 -6.40625 C -2.523438 -6.300781 -2.691406 -6.128906 -2.828125 -5.890625 Z M -2.828125 -5.890625 "/></g></g></g><g fill="#000000" fill-opacity="0.502"><g transform="translate(318.011479, 211.92552)"><g><path d="M 1.96875 -5.046875 C 2.050781 -4.921875 2.109375 -4.769531 2.140625 -4.59375 C 2.171875 -4.414062 2.179688 -4.226562 2.171875 -4.03125 C 2.160156 -3.84375 2.125 -3.644531 2.0625 -3.4375 C 2.007812 -3.226562 1.929688 -3.03125 1.828125 -2.84375 C 1.585938 -2.425781 1.3125 -2.097656 1 -1.859375 C 0.695312 -1.628906 0.363281 -1.476562 0 -1.40625 C -0.351562 -1.34375 -0.726562 -1.351562 -1.125 -1.4375 C -1.519531 -1.519531 -1.925781 -1.6875 -2.34375 -1.9375 C -3.226562 -2.445312 -3.785156 -3.039062 -4.015625 -3.71875 C -4.242188 -4.394531 -4.140625 -5.109375 -3.703125 -5.859375 C -3.554688 -6.109375 -3.382812 -6.328125 -3.1875 -6.515625 C -2.988281 -6.710938 -2.757812 -6.859375 -2.5 -6.953125 C -2.238281 -7.054688 -1.945312 -7.085938 -1.625 -7.046875 C -1.3125 -7.015625 -0.960938 -6.890625 -0.578125 -6.671875 C -0.460938 -6.609375 -0.347656 -6.535156 -0.234375 -6.453125 C -0.117188 -6.367188 0 -6.273438 0.125 -6.171875 L -1.765625 -2.9375 C -1.472656 -2.757812 -1.179688 -2.632812 -0.890625 -2.5625 C -0.597656 -2.488281 -0.316406 -2.46875 -0.046875 -2.5 C 0.222656 -2.539062 0.476562 -2.640625 0.71875 -2.796875 C 0.957031 -2.953125 1.164062 -3.179688 1.34375 -3.484375 C 1.476562 -3.722656 1.582031 -3.988281 1.65625 -4.28125 C 1.726562 -4.570312 1.75 -4.8125 1.71875 -5 Z M -3.25 -5.5625 C -3.488281 -5.164062 -3.535156 -4.785156 -3.390625 -4.421875 C -3.242188 -4.054688 -2.847656 -3.660156 -2.203125 -3.234375 L -0.875 -5.515625 C -0.9375 -5.546875 -0.992188 -5.582031 -1.046875 -5.625 C -1.109375 -5.664062 -1.164062 -5.703125 -1.21875 -5.734375 C -1.65625 -5.984375 -2.050781 -6.101562 -2.40625 -6.09375 C -2.769531 -6.082031 -3.050781 -5.90625 -3.25 -5.5625 Z M -3.25 -5.5625 "/></g></g></g><g fill="#3382d7" fill-opacity="1"><g transform="translate(282.558629, 272.150468)"><g><path d="M -6.609375 -4.921875 L -7.140625 -4.1875 L -7.40625 -4.34375 C -7.375 -4.613281 -7.304688 -4.894531 -7.203125 -5.1875 C -7.109375 -5.488281 -7.023438 -5.765625 -6.953125 -6.015625 L -6.8125 -6.28125 L -3.15625 -4.15625 L -3.140625 -4.171875 C -3.421875 -4.503906 -3.582031 -4.867188 -3.625 -5.265625 C -3.675781 -5.660156 -3.601562 -6.03125 -3.40625 -6.375 C -3.039062 -7.007812 -2.546875 -7.363281 -1.921875 -7.4375 C -1.296875 -7.519531 -0.535156 -7.300781 0.359375 -6.78125 C 1.265625 -6.25 1.816406 -5.613281 2.015625 -4.875 C 2.222656 -4.144531 2.078125 -3.347656 1.578125 -2.484375 C 1.484375 -2.316406 1.375 -2.148438 1.25 -1.984375 C 1.125 -1.828125 0.992188 -1.679688 0.859375 -1.546875 C 0.734375 -1.410156 0.609375 -1.296875 0.484375 -1.203125 C 0.359375 -1.109375 0.253906 -1.03125 0.171875 -0.96875 Z M -2.921875 -5.71875 C -3.117188 -5.382812 -3.164062 -5.046875 -3.0625 -4.703125 C -2.957031 -4.367188 -2.757812 -4.050781 -2.46875 -3.75 L 0.421875 -2.078125 C 0.566406 -2.160156 0.710938 -2.28125 0.859375 -2.4375 C 1.003906 -2.59375 1.132812 -2.769531 1.25 -2.96875 C 1.507812 -3.425781 1.515625 -3.898438 1.265625 -4.390625 C 1.023438 -4.890625 0.523438 -5.359375 -0.234375 -5.796875 C -0.503906 -5.953125 -0.773438 -6.078125 -1.046875 -6.171875 C -1.316406 -6.265625 -1.566406 -6.3125 -1.796875 -6.3125 C -2.035156 -6.320312 -2.25 -6.28125 -2.4375 -6.1875 C -2.632812 -6.09375 -2.796875 -5.9375 -2.921875 -5.71875 Z M -2.921875 -5.71875 "/></g></g></g><g fill="#3382d7" fill-opacity="1"><g transform="translate(285.847921, 266.497831)"><g><path d="M -4.421875 -3.15625 C -4.503906 -3.070312 -4.585938 -3 -4.671875 -2.9375 C -4.765625 -2.875 -4.867188 -2.8125 -4.984375 -2.75 L -5.25 -2.90625 L -4 -5.0625 L -3.734375 -4.921875 C -3.722656 -4.722656 -3.753906 -4.472656 -3.828125 -4.171875 L 0.03125 -3.71875 L 0.78125 -3.546875 L 0.796875 -3.578125 L 0.234375 -4.09375 L -2.265625 -6.859375 C -2.421875 -6.671875 -2.613281 -6.53125 -2.84375 -6.4375 L -3.109375 -6.59375 L -2.078125 -8.359375 L -1.8125 -8.203125 C -1.789062 -8.003906 -1.816406 -7.765625 -1.890625 -7.484375 L 1.828125 -3.140625 C 2.171875 -2.710938 2.4375 -2.34375 2.625 -2.03125 C 2.8125 -1.726562 2.9375 -1.457031 3 -1.21875 C 3.070312 -0.976562 3.097656 -0.757812 3.078125 -0.5625 C 3.066406 -0.375 3.03125 -0.175781 2.96875 0.03125 C 2.800781 0.0390625 2.613281 0.03125 2.40625 0 C 2.207031 -0.0390625 2.03125 -0.0859375 1.875 -0.140625 L 1.703125 -0.40625 L 2.328125 -1.484375 C 2.285156 -1.566406 2.25 -1.632812 2.21875 -1.6875 C 2.1875 -1.75 2.144531 -1.820312 2.09375 -1.90625 C 2.039062 -1.988281 1.96875 -2.082031 1.875 -2.1875 C 1.78125 -2.300781 1.660156 -2.4375 1.515625 -2.59375 Z M -4.421875 -3.15625 "/></g></g></g><g fill="#3382d7" fill-opacity="1"><g transform="translate(288.895798, 261.260065)"><g/></g></g><g fill="#3382d7" fill-opacity="1"><g transform="translate(290.362397, 258.739719)"><g><path d="M -4.96875 -8.1875 L -3.625 -10.484375 L -3.3125 -10.296875 C -3.332031 -10.117188 -3.359375 -9.953125 -3.390625 -9.796875 C -3.421875 -9.648438 -3.460938 -9.503906 -3.515625 -9.359375 L -1.96875 -5.671875 C -1.632812 -5.710938 -1.265625 -5.765625 -0.859375 -5.828125 C -0.453125 -5.890625 -0.0234375 -5.953125 0.421875 -6.015625 C 0.867188 -6.085938 1.320312 -6.160156 1.78125 -6.234375 C 2.238281 -6.316406 2.675781 -6.40625 3.09375 -6.5 L 3.640625 -6.859375 L 3.890625 -6.703125 L 3.140625 -5.40625 L 2.6875 -5.1875 C 1.976562 -5.0625 1.226562 -4.957031 0.4375 -4.875 C -0.351562 -4.800781 -1.140625 -4.734375 -1.921875 -4.671875 L -2.21875 -4.15625 L 0.703125 -2.46875 C 0.941406 -2.757812 1.175781 -2.972656 1.40625 -3.109375 L 1.703125 -2.9375 L 0.171875 -0.296875 L -0.125 -0.46875 C -0.0703125 -0.820312 0.0078125 -1.15625 0.125 -1.46875 L -6.03125 -5.03125 C -6.25 -4.757812 -6.5 -4.53125 -6.78125 -4.34375 L -7.09375 -4.53125 L -5.5625 -7.171875 L -5.25 -6.984375 C -5.269531 -6.835938 -5.296875 -6.679688 -5.328125 -6.515625 C -5.359375 -6.359375 -5.398438 -6.195312 -5.453125 -6.03125 L -2.578125 -4.359375 L -2.359375 -5.078125 L -3.953125 -8.609375 C -4.078125 -8.484375 -4.191406 -8.367188 -4.296875 -8.265625 C -4.410156 -8.171875 -4.53125 -8.082031 -4.65625 -8 Z M -4.96875 -8.1875 "/></g></g></g><g fill="#3382d7" fill-opacity="1"><g transform="translate(294.261263, 252.039532)"><g><path d="M 1.109375 -5.046875 C 1.253906 -4.953125 1.382812 -4.875 1.5 -4.8125 C 1.625 -4.757812 1.75 -4.703125 1.875 -4.640625 L 2.390625 -5.296875 L 2.609375 -5.171875 C 2.609375 -4.941406 2.578125 -4.703125 2.515625 -4.453125 C 2.460938 -4.203125 2.398438 -3.972656 2.328125 -3.765625 L 2.171875 -3.484375 C 1.972656 -3.515625 1.773438 -3.578125 1.578125 -3.671875 C 1.378906 -3.773438 1.164062 -3.890625 0.9375 -4.015625 L 0.90625 -3.953125 C 1.019531 -3.847656 1.125 -3.710938 1.21875 -3.546875 C 1.3125 -3.390625 1.378906 -3.210938 1.421875 -3.015625 C 1.460938 -2.828125 1.46875 -2.625 1.4375 -2.40625 C 1.40625 -2.195312 1.320312 -1.984375 1.1875 -1.765625 C 0.945312 -1.335938 0.617188 -1.066406 0.203125 -0.953125 C -0.203125 -0.835938 -0.613281 -0.898438 -1.03125 -1.140625 C -1.34375 -1.328125 -1.5625 -1.539062 -1.6875 -1.78125 C -1.820312 -2.03125 -1.875 -2.316406 -1.84375 -2.640625 C -1.820312 -2.960938 -1.726562 -3.320312 -1.5625 -3.71875 C -1.40625 -4.113281 -1.203125 -4.554688 -0.953125 -5.046875 C -1.222656 -5.253906 -1.476562 -5.421875 -1.71875 -5.546875 C -1.96875 -5.671875 -2.195312 -5.75 -2.40625 -5.78125 C -2.625 -5.8125 -2.8125 -5.789062 -2.96875 -5.71875 C -3.132812 -5.65625 -3.273438 -5.519531 -3.390625 -5.3125 C -3.453125 -5.21875 -3.515625 -5.101562 -3.578125 -4.96875 C -3.648438 -4.84375 -3.691406 -4.707031 -3.703125 -4.5625 L -2.75 -3.359375 L -2.90625 -3.09375 C -3.15625 -3.132812 -3.40625 -3.191406 -3.65625 -3.265625 C -3.90625 -3.347656 -4.144531 -3.441406 -4.375 -3.546875 C -4.363281 -3.898438 -4.3125 -4.265625 -4.21875 -4.640625 C -4.125 -5.023438 -3.960938 -5.410156 -3.734375 -5.796875 C -3.523438 -6.148438 -3.3125 -6.398438 -3.09375 -6.546875 C -2.875 -6.703125 -2.648438 -6.789062 -2.421875 -6.8125 C -2.203125 -6.832031 -1.984375 -6.800781 -1.765625 -6.71875 C -1.554688 -6.644531 -1.351562 -6.550781 -1.15625 -6.4375 C -0.738281 -6.195312 -0.347656 -5.953125 0.015625 -5.703125 C 0.390625 -5.460938 0.753906 -5.242188 1.109375 -5.046875 Z M 0.796875 -2.546875 C 0.898438 -2.722656 0.953125 -2.894531 0.953125 -3.0625 C 0.953125 -3.238281 0.929688 -3.398438 0.890625 -3.546875 C 0.847656 -3.691406 0.789062 -3.816406 0.71875 -3.921875 C 0.644531 -4.035156 0.585938 -4.128906 0.546875 -4.203125 L -0.546875 -4.84375 C -0.785156 -4.4375 -0.957031 -4.09375 -1.0625 -3.8125 C -1.175781 -3.53125 -1.226562 -3.289062 -1.21875 -3.09375 C -1.21875 -2.894531 -1.164062 -2.726562 -1.0625 -2.59375 C -0.957031 -2.46875 -0.816406 -2.351562 -0.640625 -2.25 C -0.335938 -2.070312 -0.0625 -2.007812 0.1875 -2.0625 C 0.4375 -2.113281 0.640625 -2.273438 0.796875 -2.546875 Z M 0.796875 -2.546875 "/></g></g></g><g fill="#3382d7" fill-opacity="1"><g transform="translate(297.30914, 246.801766)"><g><path d="M 1.59375 -2.734375 L 0.25 -0.421875 L 0 -0.578125 C 0.0195312 -0.867188 0.0625 -1.144531 0.125 -1.40625 L -6.4375 -5.234375 L -6.96875 -4.5 L -7.234375 -4.65625 C -7.210938 -4.875 -7.15625 -5.132812 -7.0625 -5.4375 C -6.96875 -5.75 -6.875 -6.046875 -6.78125 -6.328125 L -6.625 -6.59375 L 0.671875 -2.34375 C 0.867188 -2.539062 1.09375 -2.722656 1.34375 -2.890625 Z M 1.59375 -2.734375 "/></g></g></g><g fill="#3382d7" fill-opacity="1"><g transform="translate(299.125795, 243.67985)"><g><path d="M 1.96875 -5.046875 C 2.050781 -4.921875 2.109375 -4.769531 2.140625 -4.59375 C 2.171875 -4.414062 2.179688 -4.226562 2.171875 -4.03125 C 2.160156 -3.84375 2.125 -3.644531 2.0625 -3.4375 C 2.007812 -3.226562 1.929688 -3.03125 1.828125 -2.84375 C 1.585938 -2.425781 1.3125 -2.097656 1 -1.859375 C 0.695312 -1.628906 0.363281 -1.476562 0 -1.40625 C -0.351562 -1.34375 -0.726562 -1.351562 -1.125 -1.4375 C -1.519531 -1.519531 -1.925781 -1.6875 -2.34375 -1.9375 C -3.226562 -2.445312 -3.785156 -3.039062 -4.015625 -3.71875 C -4.242188 -4.394531 -4.140625 -5.109375 -3.703125 -5.859375 C -3.554688 -6.109375 -3.382812 -6.328125 -3.1875 -6.515625 C -2.988281 -6.710938 -2.757812 -6.859375 -2.5 -6.953125 C -2.238281 -7.054688 -1.945312 -7.085938 -1.625 -7.046875 C -1.3125 -7.015625 -0.960938 -6.890625 -0.578125 -6.671875 C -0.460938 -6.609375 -0.347656 -6.535156 -0.234375 -6.453125 C -0.117188 -6.367188 0 -6.273438 0.125 -6.171875 L -1.765625 -2.9375 C -1.472656 -2.757812 -1.179688 -2.632812 -0.890625 -2.5625 C -0.597656 -2.488281 -0.316406 -2.46875 -0.046875 -2.5 C 0.222656 -2.539062 0.476562 -2.640625 0.71875 -2.796875 C 0.957031 -2.953125 1.164062 -3.179688 1.34375 -3.484375 C 1.476562 -3.722656 1.582031 -3.988281 1.65625 -4.28125 C 1.726562 -4.570312 1.75 -4.8125 1.71875 -5 Z M -3.25 -5.5625 C -3.488281 -5.164062 -3.535156 -4.785156 -3.390625 -4.421875 C -3.242188 -4.054688 -2.847656 -3.660156 -2.203125 -3.234375 L -0.875 -5.515625 C -0.9375 -5.546875 -0.992188 -5.582031 -1.046875 -5.625 C -1.109375 -5.664062 -1.164062 -5.703125 -1.21875 -5.734375 C -1.65625 -5.984375 -2.050781 -6.101562 -2.40625 -6.09375 C -2.769531 -6.082031 -3.050781 -5.90625 -3.25 -5.5625 Z M -3.25 -5.5625 "/></g></g></g><g fill="#3382d7" fill-opacity="1"><g transform="translate(302.161602, 238.462826)"><g><path d="M -6.609375 -4.921875 L -7.140625 -4.1875 L -7.40625 -4.34375 C -7.375 -4.613281 -7.304688 -4.894531 -7.203125 -5.1875 C -7.109375 -5.488281 -7.023438 -5.765625 -6.953125 -6.015625 L -6.8125 -6.28125 L -3.15625 -4.15625 L -3.140625 -4.171875 C -3.421875 -4.503906 -3.582031 -4.867188 -3.625 -5.265625 C -3.675781 -5.660156 -3.601562 -6.03125 -3.40625 -6.375 C -3.039062 -7.007812 -2.546875 -7.363281 -1.921875 -7.4375 C -1.296875 -7.519531 -0.535156 -7.300781 0.359375 -6.78125 C 1.265625 -6.25 1.816406 -5.613281 2.015625 -4.875 C 2.222656 -4.144531 2.078125 -3.347656 1.578125 -2.484375 C 1.484375 -2.316406 1.375 -2.148438 1.25 -1.984375 C 1.125 -1.828125 0.992188 -1.679688 0.859375 -1.546875 C 0.734375 -1.410156 0.609375 -1.296875 0.484375 -1.203125 C 0.359375 -1.109375 0.253906 -1.03125 0.171875 -0.96875 Z M -2.921875 -5.71875 C -3.117188 -5.382812 -3.164062 -5.046875 -3.0625 -4.703125 C -2.957031 -4.367188 -2.757812 -4.050781 -2.46875 -3.75 L 0.421875 -2.078125 C 0.566406 -2.160156 0.710938 -2.28125 0.859375 -2.4375 C 1.003906 -2.59375 1.132812 -2.769531 1.25 -2.96875 C 1.507812 -3.425781 1.515625 -3.898438 1.265625 -4.390625 C 1.023438 -4.890625 0.523438 -5.359375 -0.234375 -5.796875 C -0.503906 -5.953125 -0.773438 -6.078125 -1.046875 -6.171875 C -1.316406 -6.265625 -1.566406 -6.3125 -1.796875 -6.3125 C -2.035156 -6.320312 -2.25 -6.28125 -2.4375 -6.1875 C -2.632812 -6.09375 -2.796875 -5.9375 -2.921875 -5.71875 Z M -2.921875 -5.71875 "/></g></g></g><g fill="#3382d7" fill-opacity="1"><g transform="translate(305.450895, 232.810189)"><g/></g></g><g fill="#3382d7" fill-opacity="1"><g transform="translate(306.917494, 230.289843)"><g><path d="M 0.703125 -2.46875 C 0.828125 -2.613281 0.953125 -2.742188 1.078125 -2.859375 C 1.203125 -2.984375 1.332031 -3.097656 1.46875 -3.203125 L 1.765625 -3.03125 L 0.171875 -0.296875 L -0.125 -0.46875 C -0.101562 -0.664062 -0.0703125 -0.84375 -0.03125 -1 C 0.0078125 -1.164062 0.0625 -1.320312 0.125 -1.46875 L -6.03125 -5.03125 C -6.164062 -4.875 -6.296875 -4.742188 -6.421875 -4.640625 C -6.546875 -4.535156 -6.664062 -4.4375 -6.78125 -4.34375 L -7.09375 -4.53125 L -6.5625 -5.453125 C -6.394531 -5.734375 -6.226562 -6.046875 -6.0625 -6.390625 C -5.894531 -6.734375 -5.722656 -7.054688 -5.546875 -7.359375 C -5.347656 -7.703125 -5.125 -7.992188 -4.875 -8.234375 C -4.632812 -8.484375 -4.367188 -8.664062 -4.078125 -8.78125 C -3.785156 -8.90625 -3.472656 -8.953125 -3.140625 -8.921875 C -2.816406 -8.898438 -2.476562 -8.785156 -2.125 -8.578125 C -1.613281 -8.273438 -1.269531 -7.890625 -1.09375 -7.421875 C -0.914062 -6.960938 -0.882812 -6.46875 -1 -5.9375 C -0.375 -5.957031 0.265625 -5.992188 0.921875 -6.046875 C 1.578125 -6.109375 2.238281 -6.179688 2.90625 -6.265625 L 3.53125 -6.671875 L 3.78125 -6.515625 L 3.0625 -5.25 L 2.53125 -5.015625 C 2.1875 -4.960938 1.847656 -4.925781 1.515625 -4.90625 C 1.191406 -4.882812 0.867188 -4.875 0.546875 -4.875 C 0.234375 -4.875 -0.078125 -4.882812 -0.390625 -4.90625 C -0.710938 -4.925781 -1.050781 -4.957031 -1.40625 -5 L -1.96875 -4.015625 Z M -5.15625 -6.796875 C -5.25 -6.640625 -5.320312 -6.503906 -5.375 -6.390625 C -5.425781 -6.273438 -5.46875 -6.164062 -5.5 -6.0625 L -2.390625 -4.265625 L -1.953125 -5.015625 C -1.679688 -5.492188 -1.617188 -5.957031 -1.765625 -6.40625 C -1.910156 -6.863281 -2.234375 -7.238281 -2.734375 -7.53125 C -3.242188 -7.820312 -3.707031 -7.890625 -4.125 -7.734375 C -4.539062 -7.578125 -4.882812 -7.265625 -5.15625 -6.796875 Z M -5.15625 -6.796875 "/></g></g></g><g fill="#3382d7" fill-opacity="1"><g transform="translate(310.762042, 223.683)"><g><path d="M -1.578125 -1.984375 C -2.015625 -2.242188 -2.4375 -2.503906 -2.84375 -2.765625 C -3.25 -3.023438 -3.660156 -3.273438 -4.078125 -3.515625 L -4.5625 -2.890625 L -4.828125 -3.046875 C -4.785156 -3.328125 -4.726562 -3.597656 -4.65625 -3.859375 C -4.582031 -4.128906 -4.503906 -4.390625 -4.421875 -4.640625 L -4.265625 -4.890625 C -3.742188 -4.585938 -3.234375 -4.273438 -2.734375 -3.953125 C -2.242188 -3.640625 -1.742188 -3.332031 -1.234375 -3.03125 C -0.972656 -2.875 -0.722656 -2.75 -0.484375 -2.65625 C -0.242188 -2.5625 -0.03125 -2.507812 0.15625 -2.5 C 0.351562 -2.5 0.53125 -2.546875 0.6875 -2.640625 C 0.851562 -2.734375 0.992188 -2.882812 1.109375 -3.09375 C 1.296875 -3.40625 1.335938 -3.734375 1.234375 -4.078125 C 1.128906 -4.421875 0.929688 -4.753906 0.640625 -5.078125 L -2.203125 -6.734375 L -2.6875 -6.125 L -2.953125 -6.28125 C -2.910156 -6.550781 -2.851562 -6.816406 -2.78125 -7.078125 C -2.71875 -7.347656 -2.640625 -7.601562 -2.546875 -7.84375 L -2.390625 -8.109375 L 2.328125 -5.359375 L 2.796875 -6 L 3.015625 -5.875 C 2.992188 -5.613281 2.957031 -5.359375 2.90625 -5.109375 C 2.851562 -4.867188 2.78125 -4.625 2.6875 -4.375 L 2.546875 -4.125 L 1.25 -4.78125 L 1.234375 -4.734375 C 1.359375 -4.617188 1.46875 -4.472656 1.5625 -4.296875 C 1.664062 -4.128906 1.738281 -3.9375 1.78125 -3.71875 C 1.820312 -3.507812 1.828125 -3.296875 1.796875 -3.078125 C 1.773438 -2.859375 1.707031 -2.644531 1.59375 -2.4375 C 1.425781 -2.15625 1.25 -1.925781 1.0625 -1.75 C 0.875 -1.582031 0.65625 -1.472656 0.40625 -1.421875 C 0.15625 -1.378906 -0.128906 -1.398438 -0.453125 -1.484375 C -0.773438 -1.566406 -1.148438 -1.734375 -1.578125 -1.984375 Z M -1.578125 -1.984375 "/></g></g></g><g fill="#3382d7" fill-opacity="1"><g transform="translate(314.226362, 217.729578)"><g><path d="M 3.609375 -1.421875 L 2.265625 0.875 L 2 0.71875 C 2.019531 0.425781 2.066406 0.15625 2.140625 -0.09375 L -4 -3.65625 L -4.484375 -3.046875 L -4.75 -3.203125 C -4.71875 -3.460938 -4.660156 -3.726562 -4.578125 -4 C -4.503906 -4.269531 -4.425781 -4.523438 -4.34375 -4.765625 L -4.1875 -5.03125 L -3.015625 -4.34375 C -3.285156 -4.695312 -3.453125 -5.0625 -3.515625 -5.4375 C -3.585938 -5.8125 -3.503906 -6.203125 -3.265625 -6.609375 C -2.910156 -7.210938 -2.429688 -7.5625 -1.828125 -7.65625 C -1.222656 -7.757812 -0.457031 -7.546875 0.46875 -7.015625 C 0.90625 -6.753906 1.265625 -6.46875 1.546875 -6.15625 C 1.828125 -5.84375 2.023438 -5.507812 2.140625 -5.15625 C 2.265625 -4.800781 2.304688 -4.429688 2.265625 -4.046875 C 2.222656 -3.671875 2.09375 -3.300781 1.875 -2.9375 C 1.726562 -2.6875 1.597656 -2.5 1.484375 -2.375 C 1.367188 -2.25 1.222656 -2.117188 1.046875 -1.984375 L 2.6875 -1.03125 C 2.769531 -1.132812 2.863281 -1.226562 2.96875 -1.3125 C 3.070312 -1.40625 3.195312 -1.492188 3.34375 -1.578125 Z M -2.828125 -5.890625 C -3.023438 -5.546875 -3.070312 -5.210938 -2.96875 -4.890625 C -2.875 -4.566406 -2.664062 -4.253906 -2.34375 -3.953125 L 0.578125 -2.265625 C 0.710938 -2.347656 0.84375 -2.457031 0.96875 -2.59375 C 1.101562 -2.726562 1.242188 -2.921875 1.390625 -3.171875 C 1.515625 -3.398438 1.570312 -3.640625 1.5625 -3.890625 C 1.5625 -4.140625 1.488281 -4.382812 1.34375 -4.625 C 1.207031 -4.875 1.015625 -5.113281 0.765625 -5.34375 C 0.515625 -5.582031 0.21875 -5.804688 -0.125 -6.015625 C -0.414062 -6.179688 -0.691406 -6.3125 -0.953125 -6.40625 C -1.210938 -6.5 -1.457031 -6.546875 -1.6875 -6.546875 C -1.925781 -6.554688 -2.140625 -6.507812 -2.328125 -6.40625 C -2.523438 -6.300781 -2.691406 -6.128906 -2.828125 -5.890625 Z M -2.828125 -5.890625 "/></g></g></g><g fill="#3382d7" fill-opacity="1"><g transform="translate(317.642397, 211.859134)"><g><path d="M 1.96875 -5.046875 C 2.050781 -4.921875 2.109375 -4.769531 2.140625 -4.59375 C 2.171875 -4.414062 2.179688 -4.226562 2.171875 -4.03125 C 2.160156 -3.84375 2.125 -3.644531 2.0625 -3.4375 C 2.007812 -3.226562 1.929688 -3.03125 1.828125 -2.84375 C 1.585938 -2.425781 1.3125 -2.097656 1 -1.859375 C 0.695312 -1.628906 0.363281 -1.476562 0 -1.40625 C -0.351562 -1.34375 -0.726562 -1.351562 -1.125 -1.4375 C -1.519531 -1.519531 -1.925781 -1.6875 -2.34375 -1.9375 C -3.226562 -2.445312 -3.785156 -3.039062 -4.015625 -3.71875 C -4.242188 -4.394531 -4.140625 -5.109375 -3.703125 -5.859375 C -3.554688 -6.109375 -3.382812 -6.328125 -3.1875 -6.515625 C -2.988281 -6.710938 -2.757812 -6.859375 -2.5 -6.953125 C -2.238281 -7.054688 -1.945312 -7.085938 -1.625 -7.046875 C -1.3125 -7.015625 -0.960938 -6.890625 -0.578125 -6.671875 C -0.460938 -6.609375 -0.347656 -6.535156 -0.234375 -6.453125 C -0.117188 -6.367188 0 -6.273438 0.125 -6.171875 L -1.765625 -2.9375 C -1.472656 -2.757812 -1.179688 -2.632812 -0.890625 -2.5625 C -0.597656 -2.488281 -0.316406 -2.46875 -0.046875 -2.5 C 0.222656 -2.539062 0.476562 -2.640625 0.71875 -2.796875 C 0.957031 -2.953125 1.164062 -3.179688 1.34375 -3.484375 C 1.476562 -3.722656 1.582031 -3.988281 1.65625 -4.28125 C 1.726562 -4.570312 1.75 -4.8125 1.71875 -5 Z M -3.25 -5.5625 C -3.488281 -5.164062 -3.535156 -4.785156 -3.390625 -4.421875 C -3.242188 -4.054688 -2.847656 -3.660156 -2.203125 -3.234375 L -0.875 -5.515625 C -0.9375 -5.546875 -0.992188 -5.582031 -1.046875 -5.625 C -1.109375 -5.664062 -1.164062 -5.703125 -1.21875 -5.734375 C -1.65625 -5.984375 -2.050781 -6.101562 -2.40625 -6.09375 C -2.769531 -6.082031 -3.050781 -5.90625 -3.25 -5.5625 Z M -3.25 -5.5625 "/></g></g></g></svg>