<?xml version="1.0" encoding="UTF-8" standalone="no"?>
<!DOCTYPE svg PUBLIC "-//W3C//DTD SVG 1.1//EN" "http://www.w3.org/Graphics/SVG/1.1/DTD/svg11.dtd">
<svg width="100%" height="100%" viewBox="0 0 1008 576" version="1.1" xmlns="http://www.w3.org/2000/svg" xmlns:xlink="http://www.w3.org/1999/xlink" xml:space="preserve" xmlns:serif="http://www.serif.com/" style="fill-rule:evenodd;clip-rule:evenodd;stroke-linejoin:round;stroke-miterlimit:2;">
    <rect id="Artboard1" x="0" y="0" width="1008" height="576" style="fill:none;"/>
    <clipPath id="_clip1">
        <rect id="Artboard11" serif:id="Artboard1" x="0" y="0" width="1008" height="576"/>
    </clipPath>
    <g clip-path="url(#_clip1)">
        <g transform="matrix(0.252,0,0,0.27573,0,-526.92)">
            <rect x="0" y="1911" width="4000" height="2089" style="fill:rgb(44,38,38);"/>
            <clipPath id="_clip2">
                <rect x="0" y="1911" width="4000" height="2089"/>
            </clipPath>
            <g clip-path="url(#_clip2)">
                <g transform="matrix(-3.30135,1.27998,-1.87969,-4.04957,4381.49,4284.11)">
                    <path d="M-253.739,492.38C-253.739,492.38 -143.787,415.914 75.815,378.021C288.25,341.366 553.392,353.982 558.358,379.188C566.504,420.537 348.782,453.677 421.685,457.53C494.588,461.382 671.04,439.494 833.217,458.005C1033.48,480.863 1031.74,554.785 1031.74,554.785L1013.28,582.983C1013.28,582.983 1047.59,502.528 890.386,471.597C685.728,431.329 316.013,525.312 321.685,484.53C327.356,443.747 547.81,419.115 503.041,387.676C469.601,364.193 314.19,342.047 74.241,382.897C-168.142,424.162 -277.94,534.883 -277.94,534.883L-253.739,492.38Z" style="fill:rgb(242,101,46);"/>
                </g>
                <g transform="matrix(-3.30135,1.27998,-1.87969,-4.04957,4087.84,4501.71)">
                    <path d="M-253.765,492.359L-253.686,492.302L-253.447,492.135L-253.268,492.01L-253.147,491.926L-253.049,491.859L-252.79,491.681L-252.491,491.478L-252.153,491.248L-251.774,490.994L-251.356,490.714L-250.898,490.409L-250.4,490.08L-249.862,489.727L-249.284,489.35L-248.666,488.949L-248.009,488.526L-247.311,488.079L-246.574,487.61L-246.19,487.368L-245.796,487.119L-245.393,486.866L-244.979,486.607L-244.555,486.342L-244.122,486.072L-243.678,485.797L-243.225,485.517L-242.761,485.231L-242.287,484.941L-241.804,484.645L-241.31,484.344L-240.807,484.038L-240.293,483.727L-239.77,483.411L-239.236,483.09L-238.693,482.764L-238.139,482.434L-237.576,482.098L-237.002,481.758L-236.419,481.414L-235.826,481.064L-235.222,480.71L-234.609,480.351L-233.985,479.988L-233.352,479.62L-232.708,479.248L-232.055,478.871L-231.391,478.49L-230.718,478.105L-230.034,477.715L-229.341,477.321L-228.637,476.923L-227.924,476.52L-227.2,476.114L-226.467,475.703L-226.019,475.454L-225.723,475.289L-224.968,474.871L-224.203,474.45L-223.428,474.025L-222.643,473.596L-221.848,473.163L-221.043,472.726L-220.228,472.285L-219.403,471.841L-218.568,471.393L-217.723,470.941L-216.868,470.486L-216.003,470.028L-215.128,469.565L-214.243,469.1L-213.348,468.631L-212.442,468.158L-211.527,467.682L-210.602,467.203L-209.667,466.721L-208.721,466.235L-207.766,465.746L-206.8,465.254L-205.825,464.759L-204.839,464.261L-203.844,463.76L-202.838,463.256L-201.823,462.749L-200.797,462.239L-199.761,461.727L-198.715,461.211L-197.66,460.693L-196.594,460.172L-195.518,459.648L-194.432,459.122L-193.336,458.593L-192.23,458.061L-191.114,457.527L-189.988,456.991L-188.851,456.452L-187.705,455.91L-186.549,455.367L-185.383,454.821L-184.206,454.272L-183.02,453.722L-181.823,453.169L-180.617,452.614L-179.4,452.057L-178.173,451.498L-176.937,450.937L-175.69,450.374L-174.433,449.809L-173.166,449.242L-171.889,448.674L-170.602,448.103L-169.305,447.531L-167.998,446.956L-166.68,446.381L-165.353,445.803L-164.016,445.224L-163.044,444.805L-162.668,444.644L-161.309,444.064L-159.94,443.483L-159.251,443.192L-158.56,442.9L-157.867,442.608L-157.171,442.316L-156.472,442.023L-155.771,441.73L-155.068,441.437L-154.362,441.143L-153.653,440.849L-152.942,440.555L-152.228,440.261L-151.512,439.966L-150.794,439.671L-150.072,439.375L-149.349,439.079L-148.623,438.783L-147.894,438.487L-147.163,438.191L-146.429,437.894L-145.693,437.597L-144.954,437.299L-144.213,437.002L-143.469,436.704L-142.723,436.406L-141.974,436.108L-141.222,435.809L-140.468,435.51L-139.712,435.211L-138.953,434.912L-138.192,434.613L-137.428,434.313L-136.661,434.013L-135.892,433.714L-135.121,433.413L-134.347,433.113L-133.57,432.812L-132.791,432.512L-132.009,432.211L-131.225,431.91L-130.439,431.609L-129.65,431.307L-128.858,431.006L-128.064,430.704L-127.267,430.402L-126.468,430.1L-125.666,429.798L-124.862,429.496L-124.055,429.194L-123.246,428.892L-122.434,428.589L-121.619,428.287L-120.802,427.984L-119.983,427.681L-119.845,427.63L-119.161,427.379L-118.335,427.077L-117.508,426.776L-116.677,426.474L-115.845,426.172L-115.009,425.87L-114.172,425.567L-113.331,425.265L-112.488,424.963L-111.643,424.661L-110.795,424.359L-109.945,424.056L-109.092,423.754L-108.237,423.452L-107.379,423.149L-106.518,422.847L-105.655,422.545L-104.79,422.242L-103.922,421.94L-103.051,421.638L-102.178,421.336L-101.302,421.033L-100.424,420.731L-99.544,420.429L-98.66,420.127L-97.775,419.825L-96.887,419.523L-95.996,419.221L-95.103,418.919L-94.207,418.617L-93.309,418.315L-92.408,418.014L-91.504,417.712L-90.599,417.41L-89.69,417.109L-88.779,416.808L-87.866,416.506L-86.95,416.205L-86.031,415.904L-85.11,415.604L-84.187,415.303L-83.261,415.002L-82.332,414.702L-81.401,414.401L-80.468,414.101L-79.532,413.801L-78.593,413.501L-77.652,413.201L-76.708,412.902L-75.762,412.602L-74.813,412.303L-73.862,412.004L-72.908,411.705L-71.952,411.407L-70.993,411.108L-70.037,410.812L-70.032,410.81L-69.067,410.513L-68.1,410.217L-67.13,409.921L-66.158,409.625L-65.183,409.33L-64.206,409.034L-63.226,408.739L-62.243,408.444L-61.258,408.15L-60.271,407.855L-59.281,407.561L-58.289,407.267L-57.294,406.974L-56.296,406.68L-55.296,406.387L-54.294,406.095L-53.289,405.802L-52.281,405.51L-51.271,405.218L-50.258,404.927L-49.243,404.636L-48.226,404.345L-47.205,404.054L-46.183,403.764L-45.158,403.474L-44.13,403.185L-43.1,402.896L-42.067,402.607L-41.032,402.318L-39.994,402.03L-38.953,401.742L-37.911,401.455L-36.865,401.168L-35.817,400.881L-34.767,400.595L-33.714,400.309L-32.658,400.024L-31.6,399.739L-30.54,399.454L-29.477,399.17L-28.411,398.886L-27.343,398.603L-26.273,398.32L-25.2,398.037L-24.124,397.755L-23.046,397.473L-21.965,397.192L-20.882,396.912L-19.796,396.631L-18.708,396.351L-17.617,396.072L-16.524,395.793L-15.428,395.515L-14.783,395.352L-14.329,395.238L-13.228,394.962L-12.124,394.686L-11.017,394.411L-9.908,394.137L-8.797,393.863L-7.683,393.59L-6.566,393.317L-5.447,393.045L-4.325,392.773L-3.201,392.502L-2.074,392.231L-0.945,391.961L0.187,391.691L1.321,391.422L2.458,391.154L3.597,390.886L4.739,390.619L5.883,390.352L7.03,390.086L8.18,389.82L9.331,389.555L10.486,389.291L11.643,389.027L12.802,388.764L13.964,388.502L14.468,388.388L15.129,388.241L16.296,387.981L17.466,387.721L18.639,387.462L19.814,387.204L20.991,386.947L22.171,386.69L23.354,386.434L24.539,386.178L25.727,385.924L26.917,385.669L28.109,385.416L29.305,385.163L30.502,384.911L31.702,384.66L32.905,384.409L34.11,384.159L35.318,383.91L36.528,383.661L37.741,383.414L38.956,383.167L40.174,382.92L41.394,382.675L42.617,382.43L43.843,382.186L44.557,382.044L45.071,381.943L46.301,381.701L47.534,381.46L48.77,381.22L50.008,380.981L51.249,380.743L52.493,380.505L53.738,380.268L54.987,380.032L56.237,379.797L57.491,379.563L58.747,379.329L60.005,379.096L61.266,378.864L62.529,378.633L63.795,378.403L65.063,378.173L66.334,377.945L67.608,377.717L68.884,377.49L70.162,377.264L71.443,377.039L72.727,376.814L74.013,376.591L75.301,376.368L76.549,376.154L77.799,375.941L79.05,375.729L80.302,375.518L81.555,375.308L82.809,375.099L84.065,374.892L85.321,374.685L86.579,374.48L87.837,374.275L89.097,374.072L90.358,373.87L91.619,373.669L92.882,373.47L94.146,373.271L95.41,373.073L96.676,372.877L97.943,372.682L99.21,372.487L100.479,372.294L101.748,372.102L103.019,371.911L104.29,371.721L104.589,371.677L105.562,371.533L106.835,371.346L108.109,371.16L109.384,370.975L110.659,370.791L111.936,370.608L113.213,370.426L114.491,370.246L115.769,370.066L117.049,369.888L118.329,369.71L119.61,369.534L120.891,369.359L122.174,369.184L123.457,369.011L124.74,368.839L126.025,368.668L127.309,368.498L128.595,368.33L129.881,368.162L131.168,367.995L132.455,367.829L133.743,367.665L135.031,367.501L136.32,367.339L137.61,367.177L138.9,367.017L140.19,366.858L141.481,366.699L142.773,366.542L144.065,366.386L145.357,366.231L146.65,366.077L147.943,365.924L149.237,365.771L150.531,365.62L151.825,365.471L153.12,365.322L154.415,365.174L155.71,365.027L157.006,364.881L158.302,364.736L159.598,364.592L160.894,364.45L162.191,364.308L163.488,364.167L164.786,364.027L166.083,363.889L167.381,363.751L168.679,363.614L169.977,363.479L171.275,363.344L172.573,363.21L173.872,363.078L175.171,362.946L176.469,362.815L177.768,362.686L179.067,362.557L180.366,362.429L180.971,362.37L181.665,362.303L182.964,362.178L184.263,362.053L185.563,361.93L186.862,361.808L188.161,361.687L189.46,361.566L190.759,361.447L192.058,361.329L193.357,361.211L194.656,361.095L195.954,360.98L197.253,360.865L198.552,360.752L199.85,360.639L201.148,360.528L202.446,360.417L203.744,360.308L205.041,360.199L206.339,360.091L207.636,359.985L208.933,359.879L210.23,359.774L211.526,359.67L212.822,359.567L214.118,359.466L215.414,359.365L216.709,359.265L218.004,359.166L219.298,359.067L220.592,358.97L221.886,358.874L223.179,358.779L224.472,358.685L225.765,358.591L227.057,358.499L228.348,358.407L229.64,358.317L230.93,358.227L232.22,358.138L233.51,358.05L234.799,357.964L236.088,357.878L237.376,357.793L238.663,357.709L239.95,357.625L241.237,357.543L242.522,357.462L243.808,357.381L245.092,357.302L246.376,357.223L247.659,357.146L248.942,357.069L250.223,356.993L251.505,356.918L252.785,356.844L254.065,356.771L255.344,356.699L256.622,356.627L257.899,356.557L259.176,356.487L260.452,356.419L261.727,356.351L263.001,356.284L264.274,356.218L265.547,356.153L266.818,356.089L268.089,356.025L269.359,355.963L270.628,355.901L271.896,355.84L273.163,355.781L274.429,355.722L275.694,355.664L276.958,355.606L278.221,355.55L279.483,355.495L280.745,355.44L282.005,355.386L283.264,355.334L284.522,355.282L285.779,355.23L287.034,355.18L288.289,355.131L289.543,355.082L290.795,355.034L292.046,354.988L293.297,354.942L294.546,354.896L295.793,354.852L297.04,354.809L298.285,354.766L299.529,354.724L300.772,354.683L302.014,354.643L303.254,354.604L304.493,354.565L305.731,354.528L306.967,354.491L308.203,354.455L309.436,354.42L310.669,354.386L311.9,354.352L313.129,354.32L314.358,354.288L315.585,354.257L316.81,354.227L318.034,354.197L319.256,354.169L320.478,354.141L321.697,354.114L322.915,354.088L324.132,354.063L325.347,354.039L326.56,354.015L327.772,353.992L328.983,353.97L330.191,353.949L331.399,353.928L332.604,353.909L333.808,353.89L335.011,353.872L336.211,353.854L337.41,353.838L338.608,353.822L339.803,353.807L340.997,353.793L342.19,353.78L343.38,353.767L344.569,353.755L345.756,353.744L346.941,353.734L348.125,353.725L349.306,353.716L350.486,353.708L351.664,353.701L352.84,353.695L354.015,353.689L355.187,353.684L356.358,353.68L357.526,353.677L358.693,353.674L359.858,353.673L361.021,353.672L362.182,353.671L363.34,353.672L364.497,353.673L365.652,353.675L366.805,353.678L367.956,353.681L369.105,353.686L370.252,353.691L371.397,353.696L371.698,353.698L372.539,353.703L373.68,353.711L374.818,353.719L375.955,353.728L377.089,353.737L378.221,353.748L379.351,353.759L380.479,353.771L381.604,353.783L382.728,353.797L383.849,353.811L384.967,353.826L386.084,353.841L387.198,353.857L388.311,353.874L389.42,353.892L390.528,353.91L391.633,353.929L392.736,353.949L393.836,353.969L394.934,353.991L396.03,354.013L397.124,354.035L398.215,354.058L399.303,354.083L400.389,354.107L401.473,354.133L402.554,354.159L403.633,354.186L404.709,354.213L405.783,354.241L406.854,354.27L407.923,354.3L408.989,354.33L410.053,354.361L411.114,354.392L412.172,354.425L413.228,354.458L414.282,354.491L415.332,354.526L416.38,354.561L417.426,354.596L418.468,354.633L419.508,354.67L420.546,354.708L421.58,354.746L422.612,354.785L423.641,354.825L424.668,354.865L425.691,354.906L426.712,354.948L427.73,354.99L428.746,355.033L429.758,355.077L430.768,355.121L431.775,355.166L432.779,355.211L433.78,355.258L434.778,355.305L435.773,355.352L436.766,355.4L437.755,355.449L438.742,355.499L439.725,355.549L440.706,355.599L441.683,355.651L442.658,355.703L443.629,355.755L444.598,355.809L445.564,355.862L446.526,355.917L447.485,355.972L448.442,356.028L449.395,356.084L450.345,356.141L451.292,356.199L452.236,356.257L453.177,356.316L454.114,356.375L455.049,356.435L455.98,356.496L456.908,356.557L457.832,356.619L458.754,356.682L459.672,356.745L460.587,356.808L461.499,356.873L462.408,356.938L463.313,357.003L464.215,357.069L465.113,357.136L466.008,357.203L466.9,357.271L467.788,357.34L468.674,357.409L469.555,357.478L470.433,357.548L471.308,357.619L472.18,357.691L473.048,357.763L473.912,357.835L474.773,357.908L475.631,357.982L476.485,358.056L477.335,358.131L478.182,358.206L479.025,358.282L479.865,358.359L480.701,358.436L481.534,358.514L482.363,358.592L483.189,358.671L484.01,358.75L484.829,358.83L485.643,358.91L486.454,358.991L487.261,359.073L488.065,359.155L488.864,359.238L489.66,359.321L490.453,359.405L491.241,359.489L492.026,359.574L492.807,359.659L493.584,359.745L494.358,359.832L495.127,359.919L495.893,360.006L496.655,360.094L497.413,360.183L498.167,360.272L498.917,360.362L499.664,360.452L500.406,360.542L501.144,360.634L501.879,360.726L502.61,360.818L503.336,360.911L504.059,361.004L504.778,361.098L505.492,361.192L506.203,361.287L506.91,361.382L507.612,361.478L508.311,361.575L509.005,361.672L509.695,361.769L510.382,361.867L511.064,361.966L511.742,362.065L512.416,362.164L513.085,362.264L513.751,362.364L514.412,362.465L515.069,362.567L515.722,362.669L516.371,362.771L517.016,362.874L517.656,362.978L518.292,363.082L518.924,363.186L519.551,363.291L520.174,363.396L520.793,363.502L521.408,363.609L522.018,363.715L522.624,363.823L523.225,363.931L523.822,364.039L524.415,364.148L525.003,364.257L525.587,364.367L526.166,364.477L526.742,364.587L527.312,364.699L527.878,364.81L528.44,364.922L528.997,365.035L529.55,365.148L530.098,365.262L530.642,365.376L531.181,365.49L531.715,365.605L532.245,365.72L532.771,365.836L533.291,365.953L533.808,366.069L534.319,366.187L534.826,366.304L535.329,366.423L535.826,366.541L536.32,366.661L536.808,366.78L537.292,366.9L537.771,367.021L538.245,367.142L538.715,367.263L539.18,367.385L539.64,367.508L540.096,367.631L540.546,367.754L540.992,367.878L541.433,368.002L541.87,368.127L542.301,368.252L542.728,368.378L543.15,368.504L543.567,368.631L543.98,368.758L544.387,368.886L544.79,369.014L545.188,369.142L545.581,369.272L545.969,369.401L546.352,369.531L546.73,369.662L547.103,369.793L547.472,369.925L547.835,370.057L548.194,370.19L548.547,370.323L548.896,370.457L549.24,370.591L549.578,370.726L549.912,370.861L550.241,370.997L550.564,371.133L550.883,371.271L551.197,371.408L551.506,371.546L551.809,371.685L552.108,371.825L552.4,371.964L552.546,372.035L552.69,372.105L552.832,372.176L552.974,372.247L553.113,372.318L553.252,372.389L553.389,372.46L553.525,372.532L553.66,372.603L553.793,372.675L553.926,372.747L554.057,372.819L554.186,372.891L554.315,372.964L554.442,373.037L554.567,373.109L554.692,373.182L554.815,373.256L554.937,373.329L555.058,373.403L555.177,373.477L555.295,373.551L555.412,373.625L555.527,373.699L555.641,373.774L555.754,373.849L555.865,373.924L555.976,373.999L556.085,374.075L556.192,374.151L556.298,374.227L556.403,374.303L556.507,374.379L556.609,374.456L556.71,374.533L556.81,374.61L556.908,374.688L557.005,374.765L557.1,374.843L557.194,374.921L557.287,375L557.379,375.079L557.469,375.158L557.557,375.237L557.645,375.316L557.731,375.396L557.815,375.476L557.898,375.557L557.98,375.637L558.06,375.718L558.139,375.799L558.217,375.881L558.293,375.963L558.367,376.045L558.44,376.127L558.512,376.21L558.582,376.293L558.651,376.376L558.718,376.46L558.783,376.544L558.848,376.628L558.91,376.713L558.971,376.797L559.031,376.883L559.089,376.968L559.145,377.054L559.2,377.14L559.253,377.226L559.305,377.313L559.355,377.4L559.403,377.488L559.45,377.575L559.495,377.663L559.538,377.751L559.58,377.84L559.62,377.929L559.658,378.018L559.695,378.107L559.73,378.196L559.763,378.286L559.794,378.376L559.824,378.467L559.852,378.557L559.878,378.648L559.902,378.739L559.924,378.83L559.945,378.921L559.963,379.01L559.988,379.142L560.012,379.271L560.034,379.401L560.055,379.53L560.075,379.659L560.093,379.788L560.111,379.917L560.127,380.046L560.142,380.175L560.155,380.304L560.168,380.433L560.179,380.562L560.19,380.691L560.199,380.82L560.206,380.949L560.213,381.077L560.219,381.206L560.223,381.335L560.226,381.463L560.228,381.592L560.229,381.72L560.228,381.849L560.227,381.977L560.224,382.105L560.22,382.233L560.215,382.361L560.209,382.49L560.202,382.618L560.194,382.745L560.184,382.873L560.174,383.001L560.162,383.129L560.149,383.257L560.135,383.384L560.12,383.512L560.103,383.639L560.086,383.767L560.068,383.894L560.048,384.021L560.027,384.148L560.005,384.275L559.983,384.402L559.959,384.529L559.933,384.656L559.907,384.783L559.88,384.909L559.852,385.036L559.822,385.163L559.792,385.289L559.76,385.415L559.728,385.542L559.694,385.668L559.659,385.794L559.624,385.92L559.587,386.046L559.549,386.171L559.51,386.297L559.47,386.423L559.429,386.548L559.387,386.674L559.344,386.799L559.3,386.924L559.255,387.05L559.209,387.175L559.161,387.3L559.113,387.424L559.064,387.549L559.014,387.674L558.963,387.799L558.911,387.923L558.857,388.047L558.803,388.172L558.748,388.296L558.692,388.42L558.635,388.544L558.577,388.668L558.518,388.792L558.458,388.916L558.397,389.039L558.335,389.163L558.272,389.286L558.208,389.41L558.143,389.533L558.077,389.656L558.011,389.779L557.943,389.902L557.875,390.025L557.805,390.148L557.735,390.27L557.663,390.393L557.591,390.515L557.518,390.638L557.444,390.76L557.368,390.882L557.292,391.004L557.216,391.126L557.138,391.248L557.058,391.371L556.899,391.613L556.735,391.856L556.568,392.098L556.398,392.34L556.223,392.582L556.046,392.823L555.865,393.064L555.68,393.304L555.492,393.544L555.301,393.784L555.106,394.024L554.908,394.262L554.707,394.501L554.503,394.739L554.295,394.977L554.084,395.214L553.87,395.451L553.653,395.688L553.432,395.924L553.209,396.16L552.982,396.396L552.752,396.631L552.519,396.866L552.283,397.1L552.044,397.334L551.802,397.568L551.558,397.802L551.31,398.035L551.059,398.267L550.805,398.5L550.586,398.698L550.549,398.731L550.289,398.963L550.027,399.194L549.762,399.425L549.494,399.655L549.223,399.886L548.95,400.115L548.674,400.345L548.395,400.574L548.113,400.803L547.829,401.031L547.542,401.259L547.252,401.487L546.96,401.714L546.665,401.941L546.368,402.168L546.068,402.394L545.766,402.62L545.461,402.846L545.154,403.071L544.844,403.296L544.532,403.52L544.217,403.745L543.9,403.969L543.58,404.192L543.259,404.416L542.935,404.639L542.608,404.861L542.279,405.083L541.948,405.305L541.615,405.527L541.279,405.748L540.942,405.969L540.602,406.19L540.26,406.41L539.915,406.63L539.569,406.849L539.22,407.069L538.87,407.288L538.517,407.506L538.162,407.724L537.806,407.942L537.447,408.16L537.086,408.377L536.723,408.594L536.359,408.811L535.992,409.027L535.624,409.243L535.253,409.458L534.881,409.673L534.507,409.888L534.131,410.103L533.753,410.317L533.374,410.531L532.992,410.745L532.609,410.958L532.224,411.171L531.838,411.383L531.45,411.595L531.06,411.807L530.669,412.019L530.275,412.23L529.881,412.441L529.484,412.651L529.087,412.862L528.687,413.071L528.286,413.281L527.884,413.49L527.48,413.699L527.075,413.907L526.668,414.115L526.26,414.323L525.85,414.531L525.439,414.738L525.027,414.944L524.613,415.151L524.198,415.357L523.781,415.563L523.364,415.768L522.945,415.973L522.525,416.178L522.104,416.382L521.681,416.586L521.257,416.789L520.833,416.993L520.407,417.196L519.98,417.398L519.551,417.6L519.122,417.802L518.692,418.004L518.261,418.205L517.828,418.406L517.395,418.606L516.961,418.806L516.525,419.006L516.089,419.205L515.652,419.404L515.214,419.603L514.775,419.801L514.335,419.999L513.894,420.196L513.012,420.59L512.125,420.983L511.236,421.374L510.343,421.763L509.449,422.151L508.552,422.538L507.652,422.923L506.751,423.306L505.847,423.689L504.942,424.069L504.036,424.448L503.127,424.826L502.218,425.201L501.308,425.576L500.396,425.949L499.484,426.32L498.571,426.69L497.658,427.058L496.745,427.424L495.831,427.789L494.918,428.153L494.004,428.514L493.091,428.875L492.179,429.233L491.267,429.59L490.357,429.945L489.447,430.299L488.539,430.651L487.632,431.001L486.726,431.35L485.822,431.697L484.921,432.042L484.021,432.385L483.123,432.727L482.228,433.067L481.335,433.406L479.558,434.077L477.793,434.742L476.042,435.4L474.305,436.05L472.585,436.694L469.198,437.959L467.535,438.58L465.892,439.194L464.273,439.801L462.678,440.4L461.108,440.991L459.565,441.575L458.804,441.863L458.051,442.15L457.304,442.435L456.566,442.718L455.835,442.999L455.112,443.278L454.397,443.554L453.69,443.829L452.992,444.102L452.302,444.373L451.621,444.641L450.949,444.908L450.287,445.172L449.633,445.435L448.989,445.695L448.354,445.953L447.73,446.209L447.115,446.463L446.511,446.715L445.916,446.964L445.333,447.212L444.76,447.457L444.198,447.7L443.647,447.94L443.107,448.179L442.578,448.415L442.319,448.532L442.062,448.648L441.808,448.764L441.557,448.88L441.309,448.995L441.064,449.109L440.822,449.222L440.583,449.335L440.347,449.448L440.114,449.56L439.885,449.671L439.659,449.781L439.435,449.891L439.215,450L438.999,450.109L438.785,450.217L438.575,450.325L438.368,450.431L438.165,450.537L437.964,450.643L437.768,450.747L437.574,450.852L437.384,450.955L437.198,451.058L437.015,451.16L436.836,451.261L436.66,451.361L436.487,451.461L436.319,451.56L436.154,451.659L435.992,451.756L435.835,451.853L435.681,451.949L435.53,452.044L435.384,452.139L435.241,452.232L435.103,452.325L434.968,452.416L434.837,452.507L434.709,452.597L434.586,452.686L434.467,452.774L434.352,452.862L434.241,452.948L434.134,453.033L434.03,453.116L433.932,453.199L433.837,453.281L433.746,453.361L433.66,453.44L433.577,453.518L433.499,453.595L433.425,453.67L433.355,453.743L433.29,453.815L433.229,453.886L433.171,453.955L433.118,454.022L433.069,454.087L433.024,454.151L432.981,454.216L432.964,454.243L432.946,454.273L432.929,454.302L432.913,454.33L432.898,454.358L432.883,454.386L432.87,454.413L432.858,454.44L432.846,454.466L432.835,454.491L432.825,454.516L432.816,454.54L432.808,454.564L432.8,454.587L432.793,454.61L432.787,454.633L432.782,454.654L432.777,454.675L432.773,454.696L432.769,454.716L432.766,454.736L432.764,454.755L432.762,454.774L432.761,454.793L432.76,454.811L432.76,454.828L432.761,454.845L432.761,454.862L432.763,454.879L432.765,454.895L432.767,454.912L432.769,454.927L432.773,454.946L432.776,454.959L432.781,454.977L432.784,454.99L432.79,455.007L432.795,455.02L432.802,455.038L432.807,455.051L432.814,455.066L432.822,455.082L432.83,455.098L432.838,455.113L432.848,455.129L432.858,455.146L432.869,455.162L432.88,455.179L432.892,455.196L432.906,455.213L432.92,455.23L432.934,455.248L432.95,455.266L432.967,455.284L432.985,455.303L433.003,455.322L433.023,455.341L433.044,455.361L433.066,455.38L433.089,455.401L433.114,455.421L433.139,455.442L433.166,455.462L433.194,455.484L433.223,455.505L433.253,455.527L433.285,455.549L433.318,455.571L433.352,455.593L433.388,455.616L433.425,455.638L433.464,455.661L433.503,455.684L433.544,455.707L433.587,455.731L433.631,455.754L433.676,455.778L433.723,455.802L433.771,455.825L433.821,455.849L433.872,455.873L433.921,455.896L434.034,455.946L434.149,455.994L434.269,456.043L434.396,456.091L434.528,456.14L434.666,456.189L434.81,456.237L434.96,456.286L435.115,456.334L435.276,456.382L435.443,456.429L435.616,456.477L435.794,456.524L435.979,456.571L436.169,456.617L436.364,456.663L436.566,456.708L436.773,456.753L436.986,456.798L437.205,456.842L437.43,456.886L437.66,456.929L437.896,456.971L438.138,457.013L438.386,457.055L438.639,457.096L438.898,457.136L439.163,457.176L439.434,457.215L439.711,457.254L439.993,457.292L440.282,457.33L440.576,457.367L440.876,457.403L441.182,457.439L441.493,457.474L441.811,457.508L442.135,457.542L442.464,457.575L442.8,457.608L443.141,457.639L443.488,457.671L443.841,457.701L444.201,457.731L444.566,457.76L444.937,457.789L445.314,457.817L445.698,457.844L446.087,457.871L446.483,457.897L446.884,457.922L447.292,457.947L447.706,457.971L448.126,457.994L448.551,458.017L448.978,458.039L449.406,458.06L449.837,458.081L450.269,458.101L450.703,458.121L451.139,458.14L451.577,458.159L452.016,458.177L452.458,458.194L452.901,458.211L453.345,458.227L453.792,458.242L454.24,458.257L454.69,458.272L455.142,458.286L456.051,458.312L456.967,458.335L457.89,458.357L458.82,458.376L459.756,458.393L460.7,458.408L461.65,458.421L462.607,458.432L463.571,458.441L464.542,458.448L465.52,458.452L466.504,458.455L467.495,458.456L468.493,458.454L469.497,458.451L470.508,458.446L471.525,458.439L472.55,458.43L473.58,458.42L474.617,458.407L475.661,458.393L476.711,458.377L477.768,458.359L478.831,458.34L479.9,458.318L480.976,458.296L482.058,458.271L483.146,458.245L484.241,458.217L485.342,458.188L486.449,458.157L487.563,458.125L488.683,458.091L489.808,458.056L490.94,458.019L492.079,457.981L493.223,457.942L494.373,457.901L495.529,457.859L496.692,457.815L497.86,457.77L499.035,457.724L500.215,457.677L501.401,457.628L502.593,457.579L503.791,457.528L504.995,457.476L506.205,457.422L507.421,457.368L508.642,457.313L509.869,457.256L511.102,457.199L512.34,457.14L513.585,457.081L514.835,457.02L516.09,456.959L517.546,456.887L518.618,456.834L521.168,456.706L523.741,456.574L526.335,456.439L528.951,456.302L531.588,456.162L534.247,456.019L536.927,455.874L539.627,455.728L542.349,455.579L547.854,455.277L553.439,454.97L559.103,454.66L561.965,454.504L564.845,454.348L567.745,454.192L570.664,454.036L573.601,453.88L576.557,453.725L579.531,453.57L582.523,453.417L585.533,453.264L588.56,453.113L590.081,453.038L591.605,452.964L593.135,452.889L594.668,452.816L596.206,452.742L597.748,452.67L599.294,452.598L600.844,452.526L602.399,452.455L603.958,452.384L605.521,452.315L607.088,452.245L608.659,452.177L610.234,452.109L611.814,452.042L613.397,451.976L614.984,451.91L616.576,451.845L618.171,451.782L619.77,451.719L621.373,451.656L622.98,451.595L624.591,451.535L626.206,451.475L627.824,451.417L629.447,451.359L631.073,451.303L632.702,451.248L634.336,451.193L635.973,451.14L637.614,451.088L639.259,451.037L640.907,450.987L642.559,450.939L644.214,450.891L645.873,450.845L647.536,450.8L649.202,450.757L650.871,450.714L652.544,450.674L654.22,450.634L655.9,450.596L657.583,450.559L659.27,450.524L660.96,450.49L662.653,450.458L664.35,450.427L666.05,450.398L667.753,450.37L669.459,450.344L671.168,450.319L672.881,450.297L674.597,450.275L676.316,450.256L678.038,450.238L679.763,450.222L681.491,450.208L683.223,450.195L684.957,450.184L686.694,450.176L688.435,450.169L690.178,450.163L691.924,450.16L693.673,450.159L695.425,450.16L697.18,450.162L698.937,450.167L700.698,450.174L702.461,450.183L704.227,450.193L705.995,450.206L707.767,450.221L709.541,450.239L711.318,450.258L713.097,450.28L714.879,450.304L716.664,450.33L718.451,450.358L720.24,450.389L722.033,450.422L723.827,450.457L725.625,450.495L727.424,450.535L729.226,450.578L731.031,450.623L732.838,450.671L734.647,450.721L736.459,450.773L737.365,450.8L738.273,450.828L739.181,450.857L740.089,450.886L740.998,450.916L741.907,450.946L742.817,450.977L743.728,451.009L744.639,451.042L745.551,451.075L746.463,451.108L747.376,451.143L748.29,451.178L749.203,451.214L750.118,451.25L751.033,451.288L751.948,451.325L752.864,451.364L753.781,451.403L754.698,451.443L755.616,451.484L756.534,451.525L757.453,451.567L758.372,451.61L759.291,451.653L760.212,451.698L761.132,451.743L762.053,451.788L762.975,451.834L763.897,451.882L764.82,451.929L765.743,451.978L766.667,452.027L767.591,452.077L768.515,452.128L769.44,452.179L770.366,452.232L771.292,452.285L772.218,452.338L773.145,452.393L774.073,452.448L775.001,452.504L775.929,452.561L776.858,452.619L777.787,452.677L778.717,452.736L779.647,452.796L780.577,452.857L781.508,452.918L782.44,452.981L783.371,453.044L784.304,453.107L785.236,453.172L786.17,453.238L787.103,453.304L788.037,453.371L788.971,453.439L789.906,453.507L790.841,453.577L791.777,453.647L792.713,453.718L793.649,453.79L794.586,453.863L795.523,453.937L796.461,454.011L797.399,454.087L798.337,454.163L799.276,454.24L800.215,454.318L801.155,454.396L802.095,454.476L803.035,454.556L803.975,454.638L804.916,454.72L805.858,454.803L806.799,454.886L807.741,454.971L808.684,455.057L809.627,455.143L810.57,455.231L811.513,455.319L812.457,455.408L813.401,455.498L814.345,455.589L815.29,455.681L816.235,455.774L817.181,455.867L818.127,455.962L819.073,456.057L820.019,456.153L820.966,456.251L821.913,456.349L822.86,456.448L823.808,456.548L824.756,456.649L825.704,456.751L826.652,456.854L827.601,456.957L828.55,457.062L829.5,457.168L830.449,457.274L831.399,457.382L832.35,457.49L833.3,457.6L834.472,457.736L835.639,457.874L836.802,458.012L837.96,458.152L839.113,458.293L840.262,458.435L841.406,458.578L842.546,458.723L843.681,458.868L844.811,459.015L845.937,459.162L847.059,459.311L848.176,459.461L849.288,459.612L850.396,459.764L851.5,459.917L852.599,460.071L853.693,460.226L854.783,460.383L855.869,460.54L856.95,460.699L858.027,460.858L859.099,461.019L860.167,461.18L861.23,461.343L862.289,461.506L863.344,461.671L864.394,461.837L865.44,462.003L866.482,462.171L867.519,462.34L868.552,462.509L869.58,462.68L870.604,462.851L871.624,463.024L872.64,463.197L873.651,463.372L874.658,463.547L875.661,463.724L876.659,463.901L877.653,464.08L878.643,464.259L879.629,464.439L880.61,464.62L881.588,464.802L882.561,464.985L883.529,465.169L884.494,465.353L885.454,465.539L886.41,465.726L887.362,465.913L888.31,466.101L889.254,466.29L890.194,466.48L891.129,466.671L892.06,466.863L892.987,467.056L893.911,467.249L894.83,467.443L895.744,467.638L896.655,467.834L897.562,468.031L898.465,468.229L899.363,468.427L900.258,468.626L901.148,468.826L902.035,469.027L902.917,469.229L903.796,469.431L904.67,469.634L905.541,469.838L906.407,470.043L907.27,470.248L908.128,470.455L908.983,470.662L909.834,470.869L910.68,471.078L911.523,471.287L912.362,471.497L913.197,471.707L913.3,471.734L914.028,471.919L914.855,472.131L915.679,472.344L916.498,472.557L917.314,472.772L918.125,472.986L918.933,473.202L919.737,473.418L920.538,473.635L921.334,473.853L922.126,474.071L922.915,474.29L923.7,474.51L924.481,474.73L925.259,474.951L926.033,475.172L926.802,475.394L927.569,475.617L928.331,475.841L929.09,476.065L929.845,476.289L930.596,476.514L931.344,476.74L932.088,476.966L932.828,477.193L933.564,477.421L934.297,477.649L935.027,477.878L935.752,478.107L936.474,478.337L937.192,478.567L937.907,478.798L938.618,479.029L939.326,479.261L940.03,479.494L940.73,479.727L941.427,479.96L942.12,480.194L942.81,480.429L943.496,480.664L944.178,480.899L944.857,481.135L945.533,481.372L946.205,481.609L946.873,481.846L947.538,482.084L948.2,482.323L948.858,482.561L949.513,482.801L950.164,483.04L950.812,483.281L951.456,483.521L952.097,483.762L952.734,484.004L953.368,484.245L953.999,484.488L954.626,484.73L955.25,484.974L955.871,485.217L956.488,485.461L957.102,485.705L957.712,485.95L958.319,486.195L958.923,486.44L959.523,486.686L960.121,486.932L960.714,487.178L961.305,487.425L961.892,487.672L962.476,487.919L963.057,488.167L963.635,488.415L964.209,488.664L964.78,488.912L965.348,489.161L965.912,489.411L966.474,489.66L967.032,489.91L967.587,490.16L968.139,490.411L968.687,490.661L969.233,490.912L969.775,491.164L970.314,491.415L970.851,491.667L971.384,491.919L971.913,492.171L972.44,492.423L972.964,492.676L973.484,492.929L974.002,493.182L974.516,493.435L975.027,493.689L975.536,493.943L976.041,494.197L976.543,494.451L977.042,494.705L977.538,494.959L978.032,495.214L978.522,495.469L979.009,495.724L979.493,495.979L979.974,496.234L980.453,496.49L980.928,496.745L981.4,497.001L981.87,497.256L982.336,497.512L982.8,497.768L983.26,498.025L983.718,498.281L984.173,498.537L984.625,498.793L985.074,499.05L985.521,499.307L985.964,499.563L986.405,499.82L986.842,500.077L987.277,500.334L987.709,500.591L988.139,500.847L988.565,501.104L988.989,501.361L989.41,501.619L989.828,501.876L990.244,502.133L990.656,502.39L991.066,502.647L991.473,502.904L991.878,503.161L992.28,503.418L992.679,503.675L993.075,503.932L993.469,504.19L993.86,504.447L994.248,504.704L994.634,504.961L995.017,505.217L995.397,505.474L995.775,505.731L996.15,505.988L996.523,506.244L996.893,506.501L997.26,506.757L997.625,507.014L997.987,507.27L998.346,507.526L998.703,507.782L999.058,508.038L999.41,508.294L999.759,508.55L1000.11,508.806L1000.45,509.061L1000.79,509.317L1001.13,509.572L1001.47,509.827L1001.8,510.082L1002.13,510.337L1002.46,510.591L1002.79,510.846L1003.12,511.1L1003.44,511.354L1003.76,511.608L1004.08,511.862L1004.39,512.115L1004.7,512.368L1005.01,512.621L1005.32,512.874L1005.63,513.127L1005.93,513.379L1006.23,513.632L1006.53,513.883L1006.82,514.135L1007.12,514.387L1007.41,514.638L1007.7,514.889L1007.99,515.139L1008.27,515.39L1008.55,515.64L1008.83,515.89L1009.11,516.139L1009.38,516.389L1009.66,516.637L1009.93,516.886L1010.2,517.134L1010.46,517.383L1010.73,517.63L1010.99,517.878L1011.25,518.125L1011.51,518.371L1011.76,518.618L1012.02,518.864L1012.27,519.109L1012.52,519.355L1012.76,519.6L1013.01,519.844L1013.25,520.088L1013.49,520.332L1013.73,520.575L1013.97,520.819L1014.2,521.061L1014.44,521.303L1014.67,521.545L1014.89,521.786L1015.12,522.027L1015.34,522.268L1015.57,522.508L1015.79,522.748L1016,522.987L1016.22,523.226L1016.44,523.464L1016.65,523.702L1016.86,523.939L1017.07,524.176L1017.27,524.413L1017.48,524.648L1017.68,524.884L1017.88,525.119L1018.08,525.353L1018.27,525.587L1018.47,525.821L1018.66,526.054L1018.85,526.286L1019.04,526.518L1019.23,526.749L1019.42,526.98L1019.6,527.21L1019.78,527.44L1019.96,527.669L1020.14,527.898L1020.32,528.126L1020.49,528.353L1020.66,528.58L1020.84,528.806L1021,529.032L1021.17,529.257L1021.34,529.482L1021.5,529.706L1021.66,529.929L1021.83,530.151L1021.98,530.373L1022.14,530.595L1022.3,530.816L1022.45,531.036L1022.6,531.255L1022.75,531.474L1022.9,531.692L1023.05,531.91L1023.2,532.127L1023.34,532.343L1023.48,532.558L1023.62,532.773L1023.76,532.987L1023.9,533.201L1024.03,533.413L1024.17,533.625L1024.3,533.837L1024.43,534.047L1024.56,534.257L1024.69,534.466L1024.82,534.675L1024.94,534.882L1025.07,535.089L1025.19,535.295L1025.31,535.501L1025.43,535.706L1025.55,535.909L1025.66,536.112L1025.78,536.315L1025.89,536.516L1026,536.717L1026.11,536.917L1026.22,537.116L1026.33,537.315L1026.43,537.512L1026.54,537.709L1026.64,537.905L1026.75,538.1L1026.85,538.294L1026.95,538.487L1027.04,538.68L1027.14,538.872L1027.24,539.062L1027.33,539.252L1027.51,539.63L1027.69,540.003L1027.87,540.374L1028.04,540.74L1028.2,541.103L1028.36,541.463L1028.51,541.818L1028.66,542.17L1028.81,542.518L1028.95,542.862L1029.09,543.202L1029.22,543.538L1029.34,543.87L1029.47,544.199L1029.59,544.523L1029.7,544.842L1029.81,545.158L1029.92,545.47L1030.02,545.777L1030.12,546.08L1030.21,546.378L1030.31,546.672L1030.39,546.962L1030.48,547.247L1030.56,547.528L1030.63,547.804L1030.71,548.075L1030.78,548.342L1030.85,548.604L1030.91,548.861L1030.97,549.113L1031.03,549.361L1031.09,549.603L1031.14,549.841L1031.19,550.074L1031.24,550.302L1031.28,550.524L1031.32,550.742L1031.36,550.954L1031.4,551.161L1031.43,551.363L1031.47,551.56L1031.5,551.751L1031.53,551.937L1031.55,552.117L1031.58,552.292L1031.6,552.461L1031.62,552.625L1031.64,552.783L1031.66,552.936L1031.67,553.083L1031.69,553.224L1031.7,553.359L1031.71,553.489L1031.73,553.73L1031.75,553.948L1031.76,554.141L1031.77,554.31L1031.77,554.453L1031.78,554.572L1031.78,554.664L1031.78,554.731L1031.78,554.785L1031.74,554.814L1031.7,554.785L1031.7,554.731L1031.7,554.665L1031.7,554.573L1031.69,554.455L1031.69,554.311L1031.68,554.143L1031.67,553.951L1031.65,553.734L1031.63,553.493L1031.62,553.364L1031.6,553.229L1031.59,553.088L1031.57,552.942L1031.55,552.789L1031.53,552.631L1031.51,552.468L1031.49,552.299L1031.46,552.124L1031.43,551.944L1031.41,551.759L1031.37,551.568L1031.34,551.395L1031.34,551.372L1031.3,551.171L1031.27,550.964L1031.22,550.752L1031.18,550.535L1031.14,550.313L1031.09,550.086L1031.04,549.854L1030.98,549.617L1030.92,549.375L1030.87,549.128L1030.8,548.876L1030.74,548.619L1030.67,548.358L1030.6,548.092L1030.52,547.821L1030.44,547.546L1030.36,547.266L1030.28,546.982L1030.19,546.693L1030.09,546.399L1030,546.102L1029.9,545.8L1029.79,545.493L1029.68,545.183L1029.57,544.868L1029.46,544.549L1029.34,544.226L1029.21,543.899L1029.08,543.567L1028.95,543.232L1028.81,542.893L1028.67,542.55L1028.52,542.203L1028.37,541.852L1028.21,541.498L1028.06,541.14L1027.89,540.778L1027.72,540.413L1027.54,540.044L1027.36,539.671L1027.18,539.295L1027.08,539.106L1026.98,538.915L1026.89,538.724L1026.79,538.533L1026.69,538.34L1026.59,538.146L1026.48,537.952L1026.38,537.757L1026.27,537.561L1026.17,537.364L1026.06,537.166L1025.95,536.968L1025.84,536.769L1025.72,536.569L1025.61,536.368L1025.49,536.166L1025.38,535.964L1025.26,535.761L1025.14,535.557L1025.02,535.352L1024.89,535.147L1024.77,534.941L1024.64,534.734L1024.52,534.526L1024.39,534.318L1024.26,534.109L1024.12,533.899L1023.99,533.689L1023.85,533.477L1023.72,533.266L1023.58,533.053L1023.44,532.84L1023.3,532.626L1023.15,532.411L1023.01,532.196L1022.86,531.98L1022.72,531.763L1022.57,531.546L1022.41,531.328L1022.26,531.11L1022.11,530.89L1021.95,530.671L1021.79,530.45L1021.63,530.229L1021.47,530.007L1021.31,529.785L1021.14,529.562L1020.98,529.339L1020.81,529.114L1020.64,528.89L1020.46,528.665L1020.29,528.439L1020.12,528.212L1019.94,527.985L1019.76,527.758L1019.58,527.53L1019.39,527.301L1019.21,527.072L1019.02,526.842L1018.84,526.612L1018.65,526.381L1018.45,526.15L1018.26,525.918L1018.06,525.686L1017.87,525.453L1017.67,525.22L1017.47,524.986L1017.26,524.751L1017.06,524.517L1016.85,524.281L1016.64,524.046L1016.43,523.81L1016.22,523.573L1016,523.336L1015.78,523.098L1015.57,522.86L1015.35,522.622L1015.12,522.383L1014.9,522.144L1014.67,521.904L1014.44,521.664L1014.21,521.423L1013.98,521.182L1013.74,520.941L1013.5,520.699L1013.26,520.457L1013.02,520.215L1012.78,519.972L1012.53,519.729L1012.29,519.485L1012.04,519.241L1011.78,518.997L1011.53,518.752L1011.27,518.507L1011.01,518.262L1010.75,518.016L1010.49,517.77L1010.23,517.524L1009.96,517.278L1009.69,517.031L1009.42,516.783L1009.14,516.536L1008.87,516.288L1008.59,516.04L1008.31,515.792L1008.03,515.543L1007.74,515.294L1007.45,515.045L1007.16,514.795L1006.87,514.546L1006.58,514.296L1006.28,514.046L1005.98,513.795L1005.68,513.545L1005.38,513.294L1005.07,513.043L1004.76,512.791L1004.45,512.54L1004.14,512.288L1003.82,512.036L1003.51,511.784L1003.19,511.532L1002.86,511.28L1002.54,511.027L1002.21,510.774L1001.88,510.521L1001.55,510.268L1001.21,510.015L1000.88,509.761L1000.53,509.508L1000.19,509.254L999.848,509L999.5,508.747L999.15,508.492L998.798,508.238L998.443,507.984L998.086,507.73L997.726,507.475L997.363,507.221L996.998,506.966L996.63,506.711L996.26,506.457L995.887,506.202L995.511,505.947L995.133,505.692L994.752,505.437L994.369,505.182L993.982,504.927L993.594,504.671L993.202,504.416L992.808,504.161L992.412,503.906L992.012,503.651L991.61,503.395L991.205,503.14L990.798,502.885L990.387,502.63L989.974,502.375L989.558,502.119L989.14,501.864L988.719,501.609L988.295,501.354L987.868,501.099L987.438,500.844L987.006,500.589L986.57,500.334L986.132,500.08L985.692,499.825L985.248,499.57L984.801,499.316L984.352,499.061L983.9,498.807L983.445,498.552L982.987,498.298L982.526,498.044L982.062,497.79L981.595,497.536L981.125,497.283L980.653,497.029L980.177,496.776L979.699,496.523L979.218,496.269L978.733,496.016L978.246,495.764L977.756,495.511L977.262,495.259L976.766,495.006L976.267,494.754L975.765,494.502L975.259,494.25L974.751,493.999L974.239,493.748L973.725,493.497L973.207,493.246L972.687,492.995L972.163,492.745L971.636,492.494L971.106,492.244L970.574,491.995L970.037,491.745L969.498,491.496L968.956,491.247L968.41,490.998L967.862,490.75L967.31,490.502L966.755,490.254L966.197,490.007L965.635,489.759L965.071,489.512L964.503,489.266L963.932,489.019L963.358,488.773L962.78,488.528L962.2,488.282L961.616,488.037L961.029,487.793L960.438,487.548L959.844,487.304L959.247,487.061L958.647,486.817L958.043,486.574L957.436,486.332L956.826,486.09L956.213,485.848L955.596,485.607L954.975,485.366L954.352,485.125L953.725,484.885L953.094,484.645L952.46,484.406L951.823,484.167L951.182,483.928L950.538,483.69L949.891,483.453L949.24,483.216L948.586,482.979L947.928,482.743L947.267,482.507L946.602,482.272L945.934,482.037L945.262,481.802L944.587,481.568L943.908,481.335L943.226,481.102L942.54,480.87L941.851,480.638L941.158,480.407L940.461,480.176L939.761,479.945L939.058,479.716L938.351,479.486L937.64,479.258L936.926,479.03L936.208,478.802L935.486,478.575L934.761,478.348L934.032,478.122L933.3,477.897L932.564,477.672L931.824,477.448L931.081,477.225L930.334,477.002L929.583,476.779L928.828,476.558L928.07,476.336L927.308,476.116L926.542,475.896L925.773,475.677L925,475.458L924.223,475.24L923.442,475.023L922.658,474.806L921.87,474.59L921.078,474.375L920.282,474.16L919.482,473.946L918.679,473.732L917.872,473.52L917.061,473.308L916.246,473.097L915.427,472.886L914.604,472.676L913.778,472.467L913.05,472.284L912.947,472.259L912.113,472.051L911.275,471.844L910.433,471.637L909.587,471.432L908.737,471.227L907.883,471.023L907.025,470.82L906.164,470.617L905.298,470.416L904.428,470.215L903.554,470.014L902.677,469.815L901.795,469.616L900.909,469.419L900.02,469.222L899.126,469.025L898.228,468.83L897.326,468.635L896.421,468.442L895.511,468.249L894.597,468.057L893.679,467.865L892.756,467.675L891.83,467.486L890.9,467.297L889.965,467.109L889.027,466.922L888.084,466.736L887.137,466.551L886.186,466.367L885.231,466.183L884.271,466.001L883.308,465.819L882.34,465.639L881.368,465.459L880.392,465.28L879.411,465.102L878.427,464.925L877.438,464.749L876.445,464.574L875.447,464.4L874.446,464.227L873.44,464.055L872.43,463.883L871.415,463.713L870.396,463.544L869.373,463.376L868.346,463.208L867.314,463.042L866.278,462.877L865.238,462.712L864.193,462.549L863.144,462.387L862.09,462.225L861.032,462.065L859.97,461.906L858.903,461.748L857.832,461.591L856.757,461.435L855.677,461.28L854.592,461.126L853.503,460.973L852.41,460.821L851.312,460.67L850.21,460.521L849.103,460.372L847.992,460.225L846.877,460.078L845.756,459.933L844.632,459.789L843.502,459.646L842.368,459.504L841.23,459.363L840.087,459.224L838.94,459.085L837.788,458.948L836.631,458.811L835.47,458.676L834.304,458.543L833.134,458.41L832.184,458.303L831.235,458.198L830.285,458.093L829.337,457.989L828.388,457.887L827.44,457.785L826.492,457.684L825.544,457.584L824.597,457.485L823.65,457.387L822.703,457.29L821.756,457.194L820.81,457.098L819.865,457.004L818.919,456.911L817.974,456.818L817.029,456.726L816.085,456.636L815.14,456.546L814.197,456.457L813.253,456.369L812.31,456.282L811.367,456.195L810.425,456.11L809.482,456.025L808.541,455.942L807.599,455.859L806.658,455.777L805.717,455.696L804.777,455.616L803.837,455.537L802.898,455.458L801.958,455.381L801.019,455.304L800.081,455.228L799.143,455.153L798.205,455.079L797.268,455.006L796.331,454.933L795.394,454.862L794.458,454.791L793.522,454.721L792.587,454.652L791.652,454.583L790.718,454.516L789.783,454.449L788.85,454.383L787.916,454.318L786.983,454.254L786.051,454.19L785.119,454.128L784.187,454.066L783.256,454.005L782.325,453.944L781.395,453.885L780.465,453.826L779.536,453.768L778.607,453.711L777.678,453.655L776.75,453.599L775.822,453.545L774.895,453.49L773.968,453.437L773.042,453.385L772.116,453.333L771.191,453.282L770.266,453.232L769.342,453.182L768.418,453.133L767.494,453.085L766.571,453.038L765.649,452.992L764.727,452.946L763.805,452.901L762.884,452.856L761.964,452.813L761.044,452.77L760.124,452.728L759.205,452.686L758.287,452.646L757.369,452.605L756.451,452.566L755.535,452.528L754.618,452.49L753.702,452.452L752.787,452.416L751.872,452.38L750.958,452.345L750.044,452.31L749.131,452.277L748.218,452.243L747.306,452.211L746.394,452.179L745.483,452.148L744.572,452.118L743.662,452.088L742.753,452.059L741.844,452.03L740.936,452.003L740.028,451.975L739.121,451.949L738.214,451.923L737.308,451.898L736.403,451.873L734.594,451.826L732.787,451.781L730.982,451.739L729.18,451.699L727.381,451.662L725.583,451.627L723.789,451.594L721.996,451.564L720.207,451.537L718.419,451.511L716.635,451.488L714.853,451.467L713.073,451.448L711.296,451.432L709.522,451.417L707.75,451.405L705.981,451.395L704.215,451.388L702.452,451.382L700.691,451.378L698.933,451.377L697.178,451.377L695.426,451.379L693.676,451.384L691.93,451.39L690.186,451.398L688.446,451.408L686.708,451.42L684.973,451.434L683.241,451.45L681.512,451.468L679.786,451.487L678.064,451.508L676.344,451.531L674.628,451.555L672.914,451.581L671.204,451.609L669.497,451.638L667.793,451.669L666.092,451.702L664.395,451.736L662.701,451.772L661.01,451.809L659.322,451.848L657.638,451.888L655.957,451.929L654.28,451.972L652.606,452.016L650.935,452.062L649.268,452.109L647.604,452.157L645.944,452.207L644.287,452.258L642.634,452.31L640.984,452.363L639.338,452.418L637.696,452.473L636.057,452.53L634.422,452.588L632.791,452.647L631.163,452.707L629.539,452.768L627.919,452.83L626.303,452.893L624.69,452.957L623.081,453.022L621.476,453.088L619.875,453.155L618.278,453.223L616.684,453.291L615.095,453.36L613.51,453.43L611.928,453.501L610.351,453.573L608.777,453.645L607.208,453.718L605.643,453.792L604.082,453.866L602.525,453.941L600.972,454.016L599.423,454.092L597.878,454.169L596.338,454.246L594.802,454.324L593.27,454.402L591.743,454.48L590.219,454.559L588.7,454.639L585.676,454.798L582.668,454.959L579.679,455.121L576.707,455.284L573.754,455.448L570.819,455.612L567.902,455.777L565.005,455.941L562.126,456.106L559.266,456.27L553.604,456.596L548.02,456.919L542.517,457.237L539.795,457.394L537.094,457.549L534.414,457.701L531.755,457.851L529.117,457.999L526.5,458.144L523.904,458.287L521.33,458.426L518.778,458.562L517.705,458.618L516.248,458.694L514.991,458.759L513.74,458.823L512.494,458.886L511.254,458.947L510.019,459.008L508.791,459.068L507.568,459.127L506.35,459.185L505.138,459.241L503.932,459.297L502.732,459.351L501.538,459.404L500.349,459.456L499.166,459.506L497.989,459.556L496.818,459.604L495.653,459.651L494.494,459.696L493.341,459.74L492.193,459.783L491.052,459.824L489.917,459.864L488.787,459.902L487.664,459.939L486.547,459.975L485.436,460.008L484.331,460.041L483.232,460.071L482.139,460.101L481.053,460.128L479.972,460.154L478.898,460.178L477.83,460.2L476.769,460.221L475.714,460.24L474.665,460.257L473.622,460.272L472.586,460.286L471.556,460.298L470.532,460.307L469.515,460.315L468.505,460.321L467.501,460.325L466.503,460.327L465.512,460.327L464.527,460.325L463.549,460.321L462.577,460.315L461.612,460.306L460.654,460.296L459.702,460.283L458.757,460.269L457.819,460.252L456.887,460.232L455.962,460.211L455.045,460.187L454.588,460.174L454.133,460.161L453.679,460.147L453.228,460.132L452.778,460.117L452.33,460.102L451.884,460.085L451.439,460.068L450.996,460.051L450.555,460.033L450.115,460.014L449.677,459.995L449.241,459.975L448.807,459.954L448.374,459.933L447.943,459.911L447.515,459.888L447.092,459.865L446.676,459.841L446.265,459.816L445.86,459.791L445.461,459.765L445.068,459.738L444.68,459.71L444.299,459.682L443.923,459.652L443.552,459.623L443.187,459.592L442.828,459.561L442.475,459.529L442.127,459.496L441.785,459.462L441.448,459.428L441.117,459.393L440.791,459.357L440.47,459.321L440.155,459.284L439.846,459.246L439.541,459.207L439.242,459.167L438.949,459.127L438.66,459.086L438.377,459.044L438.099,459.002L437.826,458.958L437.558,458.914L437.295,458.869L437.038,458.824L436.785,458.777L436.537,458.73L436.294,458.681L436.056,458.632L435.823,458.582L435.595,458.531L435.371,458.48L435.153,458.427L434.938,458.373L434.729,458.319L434.524,458.263L434.324,458.206L434.128,458.149L433.936,458.09L433.749,458.03L433.567,457.969L433.388,457.907L433.214,457.844L433.044,457.779L432.879,457.713L432.717,457.645L432.563,457.578L432.483,457.541L432.407,457.506L432.332,457.47L432.258,457.434L432.185,457.397L432.113,457.36L432.042,457.322L431.973,457.284L431.904,457.246L431.836,457.207L431.769,457.167L431.703,457.127L431.639,457.087L431.575,457.046L431.513,457.004L431.451,456.962L431.391,456.92L431.332,456.876L431.274,456.833L431.217,456.788L431.161,456.744L431.106,456.698L431.052,456.652L431,456.605L430.949,456.558L430.899,456.51L430.851,456.462L430.804,456.412L430.758,456.363L430.713,456.312L430.67,456.261L430.628,456.21L430.588,456.158L430.549,456.105L430.512,456.052L430.476,455.998L430.442,455.944L430.409,455.889L430.378,455.833L430.349,455.778L430.321,455.721L430.295,455.665L430.271,455.608L430.249,455.55L430.228,455.492L430.209,455.434L430.191,455.376L430.176,455.318L430.162,455.259L430.15,455.2L430.14,455.141L430.131,455.082L430.125,455.023L430.12,454.963L430.116,454.904L430.115,454.845L430.115,454.786L430.116,454.727L430.12,454.668L430.125,454.609L430.131,454.55L430.139,454.492L430.149,454.433L430.16,454.375L430.173,454.317L430.187,454.259L430.203,454.202L430.22,454.144L430.238,454.087L430.258,454.03L430.278,453.974L430.301,453.917L430.324,453.861L430.349,453.805L430.375,453.749L430.402,453.694L430.43,453.638L430.46,453.583L430.49,453.528L430.522,453.474L430.555,453.419L430.591,453.362L430.66,453.257L430.735,453.15L430.814,453.043L430.897,452.937L430.984,452.832L431.074,452.727L431.169,452.622L431.267,452.518L431.369,452.414L431.474,452.31L431.583,452.206L431.695,452.102L431.811,451.999L431.931,451.895L432.053,451.792L432.18,451.688L432.309,451.585L432.442,451.481L432.579,451.377L432.719,451.273L432.862,451.169L433.008,451.064L433.158,450.96L433.311,450.855L433.468,450.75L433.627,450.644L433.79,450.538L433.957,450.432L434.126,450.326L434.299,450.219L434.475,450.112L434.654,450.004L434.837,449.896L435.022,449.788L435.211,449.679L435.403,449.57L435.598,449.461L435.796,449.351L435.997,449.24L436.202,449.129L436.409,449.018L436.62,448.906L436.833,448.794L437.05,448.682L437.269,448.569L437.492,448.455L437.718,448.341L437.946,448.227L438.178,448.112L438.412,447.996L438.65,447.88L438.89,447.764L439.133,447.647L439.379,447.53L439.628,447.412L439.88,447.294L440.134,447.175L440.392,447.056L440.652,446.936L440.915,446.816L441.181,446.695L441.72,446.452L442.27,446.207L442.831,445.96L443.402,445.711L443.984,445.46L444.576,445.207L445.178,444.953L445.789,444.696L446.411,444.437L447.042,444.176L447.682,443.913L448.331,443.649L448.99,443.382L449.658,443.113L450.334,442.843L451.019,442.57L451.712,442.296L452.414,442.019L453.123,441.741L453.841,441.46L454.567,441.178L455.3,440.894L456.04,440.608L456.788,440.32L457.543,440.03L458.306,439.738L459.85,439.148L461.42,438.552L463.015,437.947L464.634,437.336L466.274,436.717L467.936,436.091L471.316,434.817L473.031,434.17L474.763,433.515L476.508,432.854L478.267,432.186L480.037,431.511L480.925,431.171L481.817,430.829L482.71,430.486L483.606,430.141L484.503,429.794L485.402,429.446L486.303,429.096L487.205,428.745L488.108,428.392L489.012,428.037L489.918,427.681L490.824,427.323L491.73,426.964L492.637,426.603L493.544,426.24L494.451,425.876L495.359,425.511L496.265,425.144L497.172,424.775L498.078,424.405L498.983,424.034L499.887,423.661L500.79,423.286L501.691,422.91L502.591,422.533L503.49,422.154L504.387,421.774L505.282,421.392L506.175,421.009L507.065,420.625L507.953,420.239L508.839,419.852L509.721,419.463L510.601,419.073L511.478,418.682L512.352,418.289L512.787,418.092L513.221,417.895L513.655,417.698L514.087,417.5L514.519,417.302L514.95,417.103L515.38,416.905L515.809,416.706L516.236,416.506L516.663,416.306L517.089,416.106L517.513,415.906L517.937,415.705L518.359,415.504L518.78,415.303L519.2,415.101L519.619,414.899L520.036,414.697L520.452,414.495L520.867,414.292L521.281,414.089L521.694,413.885L522.105,413.681L522.515,413.477L522.923,413.273L523.33,413.068L523.736,412.864L524.14,412.658L524.542,412.453L524.944,412.247L525.343,412.041L525.742,411.834L526.138,411.628L526.534,411.421L526.927,411.214L527.319,411.006L527.709,410.798L528.098,410.59L528.485,410.382L528.871,410.173L529.254,409.964L529.636,409.755L530.016,409.546L530.395,409.336L530.772,409.126L531.146,408.916L531.519,408.706L531.891,408.495L532.26,408.284L532.627,408.073L532.993,407.861L533.356,407.649L533.718,407.437L534.077,407.225L534.435,407.013L534.791,406.8L535.144,406.587L535.496,406.374L535.845,406.16L536.192,405.947L536.537,405.733L536.88,405.519L537.221,405.304L537.56,405.09L537.896,404.875L538.231,404.66L538.563,404.444L538.892,404.229L539.22,404.013L539.545,403.797L539.867,403.581L540.188,403.365L540.506,403.148L540.821,402.932L541.135,402.715L541.445,402.497L541.754,402.28L542.059,402.063L542.363,401.845L542.663,401.627L542.962,401.409L543.257,401.191L543.55,400.972L543.841,400.753L544.129,400.535L544.414,400.316L544.696,400.096L544.976,399.877L545.253,399.658L545.528,399.438L545.799,399.218L546.068,398.998L546.334,398.778L546.597,398.558L546.858,398.337L547.115,398.117L547.37,397.896L547.622,397.675L547.871,397.454L548.117,397.233L548.152,397.202L548.36,397.012L548.6,396.791L548.837,396.569L549.071,396.348L549.302,396.126L549.53,395.905L549.755,395.683L549.977,395.461L550.195,395.239L550.411,395.017L550.623,394.794L550.833,394.572L551.039,394.35L551.242,394.127L551.441,393.904L551.638,393.682L551.831,393.459L552.021,393.236L552.207,393.013L552.391,392.791L552.571,392.568L552.747,392.345L552.92,392.122L553.09,391.898L553.257,391.675L553.42,391.452L553.579,391.229L553.736,391.006L553.888,390.782L554.038,390.559L554.184,390.334L554.255,390.224L554.326,390.112L554.395,390.001L554.464,389.889L554.532,389.777L554.6,389.666L554.666,389.554L554.731,389.442L554.796,389.331L554.859,389.219L554.922,389.107L554.984,388.995L555.045,388.884L555.105,388.772L555.164,388.66L555.222,388.548L555.279,388.437L555.336,388.325L555.391,388.213L555.446,388.102L555.499,387.99L555.552,387.878L555.604,387.766L555.655,387.655L555.705,387.543L555.754,387.431L555.802,387.32L555.849,387.208L555.895,387.096L555.941,386.984L555.985,386.873L556.029,386.761L556.071,386.649L556.113,386.537L556.153,386.426L556.193,386.314L556.232,386.202L556.27,386.09L556.307,385.979L556.343,385.867L556.378,385.755L556.412,385.643L556.445,385.532L556.477,385.42L556.508,385.308L556.539,385.196L556.568,385.085L556.596,384.973L556.624,384.861L556.65,384.749L556.676,384.638L556.7,384.526L556.724,384.414L556.746,384.302L556.768,384.19L556.789,384.079L556.808,383.967L556.827,383.855L556.845,383.743L556.861,383.631L556.877,383.519L556.892,383.407L556.906,383.295L556.918,383.184L556.93,383.072L556.941,382.96L556.951,382.848L556.96,382.736L556.968,382.624L556.975,382.512L556.98,382.4L556.985,382.288L556.989,382.176L556.992,382.064L556.994,381.951L556.995,381.839L556.994,381.727L556.993,381.615L556.991,381.503L556.988,381.39L556.983,381.278L556.978,381.166L556.972,381.053L556.965,380.941L556.956,380.829L556.947,380.716L556.936,380.604L556.925,380.491L556.912,380.379L556.899,380.266L556.884,380.154L556.869,380.041L556.852,379.928L556.834,379.815L556.815,379.703L556.795,379.59L556.775,379.477L556.753,379.366L556.741,379.308L556.728,379.252L556.714,379.196L556.698,379.139L556.682,379.083L556.664,379.027L556.646,378.97L556.626,378.914L556.605,378.857L556.582,378.8L556.559,378.744L556.534,378.687L556.508,378.629L556.48,378.572L556.452,378.515L556.422,378.457L556.391,378.4L556.359,378.342L556.325,378.284L556.29,378.226L556.254,378.168L556.217,378.109L556.178,378.051L556.138,377.992L556.096,377.933L556.053,377.874L556.009,377.815L555.964,377.756L555.917,377.696L555.869,377.636L555.819,377.577L555.768,377.517L555.716,377.457L555.662,377.396L555.607,377.336L555.55,377.276L555.492,377.215L555.432,377.154L555.372,377.093L555.309,377.032L555.246,376.971L555.181,376.91L555.114,376.848L555.046,376.787L554.977,376.725L554.906,376.663L554.833,376.602L554.76,376.54L554.684,376.478L554.608,376.416L554.53,376.353L554.45,376.291L554.369,376.229L554.286,376.166L554.203,376.104L554.117,376.041L554.03,375.978L553.942,375.916L553.852,375.853L553.761,375.79L553.668,375.727L553.574,375.664L553.479,375.601L553.382,375.538L553.283,375.475L553.183,375.412L553.082,375.349L552.979,375.285L552.875,375.222L552.769,375.159L552.662,375.096L552.554,375.032L552.444,374.969L552.332,374.906L552.219,374.842L552.105,374.779L551.989,374.716L551.872,374.652L551.754,374.589L551.634,374.526L551.512,374.462L551.389,374.399L551.265,374.336L551.139,374.272L551.012,374.209L550.884,374.146L550.754,374.083L550.624,374.02L550.355,373.893L550.083,373.767L549.805,373.64L549.521,373.514L549.232,373.388L548.937,373.263L548.637,373.137L548.331,373.012L548.02,372.886L547.704,372.761L547.382,372.636L547.054,372.512L546.721,372.387L546.383,372.263L546.039,372.139L545.69,372.016L545.336,371.892L544.977,371.769L544.612,371.646L544.242,371.524L543.867,371.402L543.486,371.28L543.1,371.158L542.709,371.037L542.313,370.916L541.912,370.795L541.506,370.675L541.094,370.554L540.678,370.435L540.256,370.315L539.83,370.196L539.398,370.078L538.961,369.959L538.519,369.841L538.073,369.724L537.621,369.606L537.164,369.49L536.703,369.373L536.236,369.257L535.765,369.141L535.289,369.026L534.808,368.911L534.322,368.796L533.831,368.682L533.335,368.568L532.835,368.455L532.329,368.342L531.819,368.229L531.305,368.117L530.785,368.005L530.261,367.894L529.732,367.783L529.198,367.673L528.66,367.563L528.117,367.453L527.57,367.344L527.017,367.235L526.46,367.127L525.899,367.019L525.333,366.911L524.762,366.804L524.187,366.697L523.608,366.591L523.024,366.486L522.435,366.38L521.842,366.276L521.244,366.171L520.642,366.067L520.036,365.964L519.425,365.861L518.809,365.758L518.189,365.656L517.565,365.555L516.937,365.454L516.304,365.353L515.667,365.253L515.025,365.153L514.379,365.054L513.729,364.955L513.075,364.857L512.416,364.759L511.753,364.662L511.086,364.565L510.415,364.469L509.739,364.373L509.06,364.278L508.376,364.183L507.688,364.089L506.996,363.995L506.299,363.902L505.599,363.809L504.894,363.716L504.186,363.625L503.473,363.533L502.756,363.443L502.035,363.352L501.311,363.263L500.582,363.173L499.849,363.085L499.112,362.996L498.371,362.909L497.627,362.822L496.878,362.735L496.125,362.649L495.369,362.563L494.609,362.478L493.844,362.394L493.076,362.31L492.304,362.226L491.528,362.143L490.749,362.061L489.965,361.979L489.178,361.898L488.387,361.817L487.592,361.737L486.794,361.657L485.991,361.578L485.185,361.5L484.376,361.422L483.562,361.344L482.745,361.268L481.925,361.191L481.1,361.116L480.272,361.04L479.441,360.966L478.605,360.892L477.766,360.818L476.924,360.745L476.078,360.673L475.229,360.601L474.375,360.53L473.519,360.459L472.659,360.389L471.795,360.32L470.928,360.251L470.058,360.183L469.184,360.115L468.306,360.048L467.425,359.981L466.541,359.915L465.653,359.85L464.762,359.785L463.868,359.721L462.97,359.657L462.069,359.594L461.165,359.532L460.257,359.47L459.346,359.409L458.432,359.348L457.514,359.288L456.594,359.229L455.67,359.17L454.742,359.112L453.812,359.055L452.878,358.998L451.941,358.941L451.001,358.886L450.058,358.831L449.112,358.776L448.163,358.722L447.21,358.669L446.255,358.617L445.296,358.565L444.334,358.513L443.369,358.463L442.401,358.413L441.431,358.363L440.457,358.314L439.48,358.266L438.5,358.219L437.517,358.172L436.531,358.126L435.543,358.08L434.551,358.035L433.556,357.991L432.559,357.947L431.559,357.904L430.555,357.862L429.549,357.82L428.54,357.779L427.529,357.739L426.514,357.699L425.497,357.66L424.477,357.622L423.454,357.584L422.428,357.547L421.4,357.51L420.369,357.475L419.335,357.44L418.298,357.405L417.259,357.372L416.217,357.338L415.173,357.306L414.126,357.274L413.076,357.243L412.023,357.213L410.968,357.184L409.911,357.155L408.851,357.126L407.788,357.099L406.722,357.072L405.655,357.046L404.584,357.02L403.511,356.995L402.436,356.971L401.358,356.948L400.278,356.925L399.195,356.903L398.11,356.882L397.023,356.861L395.933,356.841L394.84,356.822L393.746,356.804L392.649,356.786L391.549,356.769L390.447,356.753L389.343,356.737L388.237,356.722L387.128,356.708L386.017,356.694L384.904,356.682L383.789,356.67L382.671,356.658L381.551,356.648L380.429,356.638L379.305,356.629L378.178,356.621L377.049,356.613L375.919,356.606L374.786,356.6L373.651,356.594L372.513,356.59L371.675,356.587L371.374,356.586L370.233,356.582L369.089,356.58L367.944,356.578L366.796,356.576L365.647,356.576L364.495,356.576L363.342,356.577L362.186,356.579L361.029,356.582L359.869,356.585L358.708,356.589L357.545,356.594L356.379,356.599L355.212,356.606L354.043,356.613L352.872,356.621L351.7,356.63L350.525,356.639L349.349,356.649L348.17,356.66L346.99,356.672L345.809,356.685L344.625,356.698L343.44,356.712L342.253,356.727L341.064,356.742L339.873,356.759L338.681,356.776L337.487,356.794L336.292,356.813L335.094,356.833L333.896,356.853L332.695,356.874L331.493,356.896L330.289,356.919L329.084,356.943L327.877,356.967L326.669,356.992L325.459,357.018L324.247,357.045L323.034,357.073L321.819,357.101L320.603,357.13L319.386,357.16L318.167,357.191L316.946,357.223L315.725,357.255L314.501,357.289L313.277,357.323L312.051,357.358L310.823,357.394L309.594,357.43L308.364,357.468L307.133,357.506L305.9,357.545L304.666,357.585L303.43,357.626L302.193,357.668L300.955,357.71L299.716,357.753L298.476,357.797L297.234,357.842L295.991,357.888L294.747,357.935L293.502,357.982L292.255,358.031L291.008,358.08L289.759,358.13L288.509,358.181L287.258,358.233L286.006,358.285L284.753,358.339L283.499,358.393L282.244,358.448L280.987,358.504L279.73,358.561L278.471,358.619L277.212,358.678L275.952,358.737L274.69,358.798L273.428,358.859L272.165,358.921L270.901,358.984L269.636,359.048L268.37,359.113L267.103,359.179L265.835,359.245L264.567,359.313L263.297,359.381L262.027,359.45L260.756,359.52L259.484,359.591L258.212,359.663L256.938,359.736L255.664,359.81L254.389,359.884L253.113,359.96L251.837,360.036L250.56,360.113L249.282,360.192L248.004,360.271L246.725,360.351L245.445,360.432L244.164,360.513L242.883,360.596L241.602,360.68L240.32,360.764L239.037,360.85L237.753,360.936L236.47,361.023L235.185,361.112L233.9,361.201L232.615,361.291L231.329,361.382L230.042,361.474L228.755,361.567L227.468,361.661L226.18,361.755L224.892,361.851L223.603,361.948L222.314,362.045L221.025,362.144L219.735,362.243L218.445,362.343L217.155,362.445L215.864,362.547L214.573,362.65L213.281,362.754L211.99,362.859L210.698,362.965L209.406,363.072L208.113,363.18L206.821,363.289L205.528,363.399L204.235,363.51L202.941,363.622L201.648,363.735L200.354,363.848L199.061,363.963L197.767,364.079L196.473,364.195L195.179,364.313L193.885,364.431L192.59,364.551L191.296,364.672L190.002,364.793L188.708,364.916L187.413,365.039L186.119,365.163L184.824,365.289L183.53,365.415L182.236,365.543L181.545,365.611L180.942,365.671L179.647,365.8L178.353,365.93L177.059,366.061L175.765,366.193L174.471,366.326L173.178,366.46L171.884,366.595L170.591,366.731L169.298,366.868L168.005,367.006L166.712,367.145L165.419,367.285L164.127,367.426L162.835,367.568L161.543,367.711L160.252,367.855L158.96,368L157.669,368.146L156.379,368.293L155.089,368.441L153.799,368.59L152.509,368.74L151.22,368.892L149.931,369.044L148.643,369.197L147.355,369.351L146.067,369.507L144.78,369.663L143.494,369.82L142.207,369.979L140.922,370.138L139.637,370.299L138.352,370.46L137.068,370.623L135.784,370.787L134.501,370.951L133.219,371.117L131.937,371.284L130.656,371.452L129.375,371.62L128.095,371.79L126.816,371.961L125.537,372.133L124.259,372.307L122.982,372.481L121.705,372.656L120.429,372.832L119.154,373.01L117.88,373.188L116.606,373.368L115.333,373.548L114.061,373.73L112.79,373.913L111.519,374.096L110.249,374.281L108.981,374.467L107.713,374.654L106.446,374.842L105.477,374.987L105.179,375.031L103.914,375.221L102.649,375.412L101.386,375.604L100.123,375.797L98.861,375.991L97.6,376.186L96.341,376.383L95.082,376.58L93.824,376.779L92.567,376.978L91.311,377.179L90.057,377.381L88.803,377.584L87.551,377.788L86.299,377.993L85.049,378.199L83.8,378.407L82.552,378.615L81.305,378.825L80.059,379.036L78.814,379.247L77.571,379.46L76.329,379.675L75.046,379.897L73.766,380.12L72.489,380.344L71.214,380.569L69.941,380.795L68.672,381.022L67.404,381.249L66.139,381.478L64.877,381.707L63.617,381.937L62.36,382.168L61.105,382.399L59.852,382.632L58.602,382.865L57.355,383.099L56.11,383.334L54.868,383.57L53.628,383.807L52.391,384.044L51.156,384.282L49.924,384.521L48.694,384.761L47.467,385.001L46.242,385.242L45.731,385.343L45.019,385.483L43.799,385.725L42.582,385.967L41.367,386.211L40.154,386.454L38.944,386.699L37.736,386.944L36.531,387.19L35.329,387.437L34.128,387.685L32.931,387.933L31.736,388.182L30.543,388.431L29.353,388.682L28.166,388.933L26.981,389.184L25.798,389.437L24.618,389.69L23.44,389.943L22.265,390.198L21.093,390.453L19.923,390.708L18.755,390.964L17.59,391.221L16.428,391.479L15.769,391.625L15.268,391.737L14.11,391.994L12.954,392.252L11.801,392.511L10.651,392.771L9.503,393.031L8.357,393.291L7.214,393.553L6.074,393.815L4.936,394.077L3.8,394.34L2.667,394.604L1.537,394.868L0.409,395.133L-0.716,395.398L-1.839,395.664L-2.96,395.93L-4.078,396.197L-5.193,396.465L-6.306,396.733L-7.417,397.001L-8.525,397.27L-9.63,397.54L-10.733,397.81L-11.833,398.081L-12.931,398.352L-13.383,398.464L-14.027,398.623L-15.121,398.893L-16.212,399.165L-17.3,399.436L-18.386,399.708L-19.47,399.981L-20.551,400.254L-21.63,400.528L-22.706,400.802L-23.779,401.076L-24.85,401.351L-25.919,401.626L-26.985,401.902L-28.049,402.178L-29.11,402.455L-30.168,402.732L-31.224,403.01L-32.278,403.288L-33.329,403.566L-34.378,403.845L-35.424,404.124L-36.467,404.403L-37.508,404.683L-38.547,404.964L-39.583,405.244L-40.617,405.525L-41.648,405.807L-42.676,406.089L-43.702,406.371L-44.726,406.653L-45.747,406.936L-46.766,407.22L-47.782,407.503L-48.795,407.787L-49.806,408.071L-50.815,408.356L-51.821,408.641L-52.825,408.926L-53.826,409.211L-54.824,409.497L-55.82,409.783L-56.814,410.07L-57.805,410.356L-58.793,410.643L-59.779,410.931L-60.763,411.218L-61.744,411.506L-62.723,411.794L-63.699,412.082L-64.672,412.371L-65.643,412.66L-66.612,412.949L-67.578,413.238L-68.541,413.528L-68.546,413.529L-69.503,413.816L-70.463,414.104L-71.419,414.393L-72.374,414.682L-73.326,414.971L-74.275,415.26L-75.222,415.55L-76.166,415.839L-77.108,416.129L-78.048,416.419L-78.984,416.709L-79.919,417L-80.851,417.29L-81.78,417.581L-82.707,417.872L-83.631,418.163L-84.553,418.454L-85.473,418.746L-86.389,419.037L-87.304,419.329L-88.216,419.621L-89.125,419.913L-90.032,420.205L-90.936,420.497L-91.838,420.789L-92.737,421.081L-93.634,421.374L-94.529,421.666L-95.421,421.959L-96.31,422.252L-97.197,422.544L-98.081,422.837L-98.963,423.13L-99.842,423.423L-100.719,423.716L-101.593,424.009L-102.465,424.302L-103.335,424.596L-104.201,424.889L-105.066,425.182L-105.928,425.475L-106.787,425.769L-107.644,426.062L-108.498,426.355L-109.35,426.649L-110.199,426.942L-111.046,427.235L-111.89,427.528L-112.732,427.822L-113.571,428.115L-114.408,428.408L-115.242,428.702L-116.074,428.995L-116.903,429.288L-117.73,429.581L-118.416,429.825L-118.555,429.874L-119.377,430.166L-120.197,430.458L-121.015,430.749L-121.83,431.041L-122.642,431.333L-123.452,431.624L-124.259,431.916L-125.064,432.207L-125.867,432.498L-126.667,432.789L-127.464,433.08L-128.259,433.371L-129.052,433.662L-129.842,433.953L-130.629,434.244L-131.414,434.534L-132.197,434.824L-132.976,435.115L-133.754,435.405L-134.529,435.695L-135.301,435.984L-136.071,436.274L-136.838,436.563L-137.603,436.853L-138.366,437.142L-139.126,437.431L-139.883,437.719L-140.638,438.008L-141.39,438.296L-142.14,438.584L-142.888,438.872L-143.632,439.16L-144.375,439.447L-145.115,439.735L-145.852,440.022L-146.587,440.309L-147.319,440.595L-148.049,440.881L-148.776,441.168L-149.501,441.453L-150.223,441.739L-150.943,442.024L-151.66,442.309L-152.375,442.594L-153.087,442.879L-153.797,443.163L-154.504,443.447L-155.209,443.73L-155.911,444.014L-156.611,444.297L-157.308,444.58L-158.003,444.862L-158.695,445.144L-160.072,445.707L-161.439,446.269L-161.817,446.425L-162.797,446.828L-164.145,447.385L-165.484,447.94L-166.812,448.494L-168.13,449.047L-169.438,449.598L-170.737,450.147L-172.025,450.694L-173.303,451.24L-174.571,451.784L-175.829,452.327L-177.077,452.867L-178.315,453.406L-179.543,453.943L-180.761,454.478L-181.969,455.011L-183.167,455.542L-184.354,456.071L-185.532,456.597L-186.7,457.122L-187.857,457.644L-189.005,458.165L-190.142,458.683L-191.269,459.198L-192.387,459.712L-193.494,460.222L-194.591,460.731L-195.678,461.237L-196.755,461.74L-197.822,462.241L-198.879,462.74L-199.926,463.235L-200.963,463.728L-201.99,464.219L-203.007,464.706L-204.013,465.191L-205.01,465.673L-205.996,466.152L-206.972,466.628L-207.939,467.101L-208.895,467.571L-209.841,468.038L-210.777,468.502L-211.703,468.963L-212.619,469.421L-213.525,469.875L-214.421,470.326L-215.306,470.774L-216.182,471.219L-217.048,471.66L-217.903,472.098L-218.748,472.532L-219.584,472.963L-220.409,473.39L-221.224,473.814L-222.029,474.234L-222.824,474.65L-223.608,475.063L-224.383,475.472L-225.148,475.877L-225.448,476.037L-225.903,476.278L-226.649,476.674L-227.384,477.066L-228.11,477.455L-228.825,477.839L-229.53,478.219L-230.225,478.596L-230.91,478.968L-231.585,479.336L-232.25,479.7L-232.904,480.059L-233.549,480.415L-234.183,480.766L-234.808,481.113L-235.422,481.455L-236.026,481.793L-236.62,482.126L-237.204,482.455L-237.777,482.78L-238.341,483.099L-238.894,483.415L-239.438,483.725L-239.971,484.031L-240.494,484.332L-241.007,484.628L-241.51,484.919L-242.002,485.206L-242.485,485.487L-242.957,485.764L-243.419,486.035L-243.871,486.302L-244.313,486.563L-244.745,486.819L-245.167,487.071L-245.579,487.316L-245.98,487.557L-246.371,487.792L-247.123,488.247L-247.835,488.68L-248.506,489.091L-249.136,489.479L-249.726,489.845L-250.275,490.188L-250.783,490.507L-251.251,490.803L-251.678,491.075L-252.065,491.323L-252.411,491.545L-252.716,491.743L-252.98,491.916L-253.08,491.981L-253.204,492.063L-253.388,492.183L-253.632,492.346L-253.713,492.401L-253.768,492.399L-253.765,492.359Z" style="fill:rgb(242,101,46);"/>
                </g>
                <g transform="matrix(3.96825,0,0,3.62674,583.333,1936.39)">
                    <ellipse cx="614" cy="185" rx="42" ry="44" style="fill:rgb(191,52,38);"/>
                </g>
            </g>
        </g>
    </g>
</svg>
