<svg xmlns="http://www.w3.org/2000/svg" xmlns:xlink="http://www.w3.org/1999/xlink" width="1024" zoomAndPan="magnify" viewBox="0 0 768 767.999994" height="1024" preserveAspectRatio="xMidYMid meet" version="1.0"><defs><clipPath id="a962eb9efb"><path d="M 63.496094 63.496094 L 704.746094 63.496094 L 704.746094 704.746094 L 63.496094 704.746094 Z M 63.496094 63.496094 " clip-rule="nonzero"/></clipPath></defs><g clip-path="url(#a962eb9efb)"><path fill="#1b9df0" d="M 704.746094 384.121094 C 704.746094 389.367188 704.617188 394.609375 704.359375 399.851562 C 704.101562 405.09375 703.714844 410.324219 703.199219 415.546875 C 702.6875 420.769531 702.042969 425.972656 701.273438 431.164062 C 700.503906 436.355469 699.605469 441.523438 698.582031 446.671875 C 697.558594 451.816406 696.410156 456.933594 695.136719 462.023438 C 693.859375 467.113281 692.460938 472.171875 690.9375 477.191406 C 689.414062 482.214844 687.769531 487.195312 686 492.132812 C 684.234375 497.074219 682.347656 501.96875 680.339844 506.816406 C 678.328125 511.664062 676.203125 516.460938 673.960938 521.203125 C 671.71875 525.949219 669.359375 530.632812 666.886719 535.261719 C 664.410156 539.886719 661.824219 544.453125 659.128906 548.953125 C 656.429688 553.453125 653.625 557.886719 650.710938 562.25 C 647.792969 566.613281 644.773438 570.902344 641.648438 575.113281 C 638.523438 579.328125 635.292969 583.464844 631.964844 587.519531 C 628.636719 591.578125 625.210938 595.550781 621.6875 599.4375 C 618.164062 603.324219 614.546875 607.125 610.835938 610.835938 C 607.125 614.546875 603.324219 618.164062 599.4375 621.6875 C 595.550781 625.210938 591.578125 628.636719 587.519531 631.964844 C 583.464844 635.292969 579.328125 638.523438 575.113281 641.648438 C 570.902344 644.773438 566.613281 647.792969 562.25 650.710938 C 557.886719 653.625 553.453125 656.429688 548.953125 659.128906 C 544.453125 661.824219 539.886719 664.410156 535.261719 666.886719 C 530.632812 669.359375 525.949219 671.71875 521.203125 673.960938 C 516.460938 676.203125 511.664062 678.328125 506.816406 680.339844 C 501.96875 682.347656 497.074219 684.234375 492.132812 686 C 487.195312 687.769531 482.214844 689.414062 477.191406 690.9375 C 472.171875 692.460938 467.113281 693.859375 462.023438 695.136719 C 456.933594 696.410156 451.816406 697.558594 446.671875 698.582031 C 441.523438 699.605469 436.355469 700.503906 431.164062 701.273438 C 425.972656 702.042969 420.769531 702.6875 415.546875 703.199219 C 410.324219 703.714844 405.09375 704.101562 399.851562 704.359375 C 394.609375 704.617188 389.367188 704.746094 384.121094 704.746094 C 378.871094 704.746094 373.628906 704.617188 368.386719 704.359375 C 363.144531 704.101562 357.914062 703.714844 352.691406 703.199219 C 347.46875 702.6875 342.265625 702.042969 337.074219 701.273438 C 331.882812 700.503906 326.714844 699.605469 321.566406 698.582031 C 316.421875 697.558594 311.304688 696.410156 306.214844 695.136719 C 301.125 693.859375 296.066406 692.460938 291.046875 690.9375 C 286.023438 689.414062 281.042969 687.769531 276.105469 686 C 271.164062 684.234375 266.269531 682.347656 261.421875 680.339844 C 256.574219 678.328125 251.777344 676.203125 247.035156 673.960938 C 242.289062 671.71875 237.605469 669.359375 232.976562 666.886719 C 228.351562 664.410156 223.785156 661.824219 219.285156 659.128906 C 214.785156 656.429688 210.351562 653.625 205.988281 650.710938 C 201.625 647.792969 197.335938 644.773438 193.125 641.648438 C 188.910156 638.523438 184.773438 635.292969 180.71875 631.964844 C 176.660156 628.636719 172.6875 625.210938 168.800781 621.6875 C 164.914062 618.164062 161.113281 614.546875 157.402344 610.835938 C 153.691406 607.125 150.074219 603.324219 146.550781 599.4375 C 143.027344 595.550781 139.601562 591.578125 136.273438 587.519531 C 132.945312 583.464844 129.714844 579.328125 126.589844 575.113281 C 123.464844 570.902344 120.445312 566.613281 117.527344 562.25 C 114.613281 557.886719 111.808594 553.453125 109.109375 548.953125 C 106.414062 544.453125 103.828125 539.886719 101.351562 535.261719 C 98.878906 530.632812 96.519531 525.949219 94.277344 521.203125 C 92.035156 516.460938 89.910156 511.664062 87.898438 506.816406 C 85.890625 501.96875 84.003906 497.074219 82.238281 492.132812 C 80.46875 487.195312 78.824219 482.214844 77.300781 477.191406 C 75.777344 472.171875 74.378906 467.113281 73.101562 462.023438 C 71.828125 456.933594 70.679688 451.816406 69.65625 446.671875 C 68.632812 441.523438 67.734375 436.355469 66.964844 431.164062 C 66.195312 425.972656 65.550781 420.769531 65.039062 415.546875 C 64.523438 410.324219 64.136719 405.09375 63.878906 399.851562 C 63.621094 394.609375 63.496094 389.367188 63.496094 384.121094 C 63.496094 378.871094 63.621094 373.628906 63.878906 368.386719 C 64.136719 363.144531 64.523438 357.914062 65.039062 352.691406 C 65.550781 347.46875 66.195312 342.265625 66.964844 337.074219 C 67.734375 331.882812 68.632812 326.714844 69.65625 321.570312 C 70.679688 316.421875 71.828125 311.304688 73.101562 306.214844 C 74.378906 301.125 75.777344 296.066406 77.300781 291.046875 C 78.824219 286.023438 80.46875 281.042969 82.238281 276.105469 C 84.003906 271.164062 85.890625 266.269531 87.898438 261.421875 C 89.910156 256.574219 92.035156 251.777344 94.277344 247.035156 C 96.519531 242.289062 98.878906 237.605469 101.351562 232.976562 C 103.828125 228.351562 106.414062 223.785156 109.109375 219.285156 C 111.808594 214.785156 114.613281 210.351562 117.527344 205.988281 C 120.445312 201.625 123.464844 197.335938 126.589844 193.125 C 129.714844 188.910156 132.945312 184.773438 136.273438 180.71875 C 139.601562 176.660156 143.027344 172.6875 146.550781 168.800781 C 150.074219 164.914062 153.691406 161.113281 157.402344 157.402344 C 161.113281 153.691406 164.914062 150.074219 168.800781 146.550781 C 172.6875 143.027344 176.660156 139.601562 180.71875 136.273438 C 184.773438 132.945312 188.910156 129.714844 193.125 126.589844 C 197.335938 123.464844 201.625 120.445312 205.988281 117.527344 C 210.351562 114.613281 214.785156 111.808594 219.285156 109.109375 C 223.785156 106.414062 228.351562 103.828125 232.976562 101.351562 C 237.605469 98.878906 242.289062 96.519531 247.035156 94.277344 C 251.777344 92.035156 256.574219 89.910156 261.421875 87.898438 C 266.269531 85.890625 271.164062 84.003906 276.105469 82.238281 C 281.042969 80.46875 286.023438 78.824219 291.046875 77.300781 C 296.066406 75.777344 301.125 74.378906 306.214844 73.101562 C 311.304688 71.828125 316.421875 70.679688 321.566406 69.65625 C 326.714844 68.632812 331.882812 67.734375 337.074219 66.964844 C 342.265625 66.195312 347.46875 65.550781 352.691406 65.039062 C 357.914062 64.523438 363.144531 64.136719 368.386719 63.878906 C 373.628906 63.621094 378.871094 63.496094 384.121094 63.496094 C 389.367188 63.496094 394.609375 63.621094 399.851562 63.878906 C 405.09375 64.136719 410.324219 64.523438 415.546875 65.039062 C 420.769531 65.550781 425.972656 66.195312 431.164062 66.964844 C 436.355469 67.734375 441.523438 68.632812 446.671875 69.65625 C 451.816406 70.679688 456.933594 71.828125 462.023438 73.101562 C 467.113281 74.378906 472.171875 75.777344 477.191406 77.300781 C 482.214844 78.824219 487.195312 80.46875 492.132812 82.238281 C 497.074219 84.003906 501.96875 85.890625 506.816406 87.898438 C 511.664062 89.910156 516.460938 92.035156 521.203125 94.277344 C 525.949219 96.519531 530.632812 98.878906 535.261719 101.351562 C 539.886719 103.828125 544.453125 106.414062 548.953125 109.109375 C 553.453125 111.808594 557.886719 114.613281 562.25 117.527344 C 566.613281 120.445312 570.902344 123.464844 575.113281 126.589844 C 579.328125 129.714844 583.464844 132.945312 587.519531 136.273438 C 591.578125 139.601562 595.550781 143.027344 599.4375 146.550781 C 603.324219 150.074219 607.125 153.691406 610.835938 157.402344 C 614.546875 161.113281 618.164062 164.914062 621.6875 168.800781 C 625.210938 172.6875 628.636719 176.660156 631.964844 180.71875 C 635.292969 184.773438 638.523438 188.910156 641.648438 193.125 C 644.773438 197.335938 647.792969 201.625 650.710938 205.988281 C 653.625 210.351562 656.429688 214.785156 659.128906 219.285156 C 661.824219 223.785156 664.410156 228.351562 666.886719 232.976562 C 669.359375 237.605469 671.71875 242.289062 673.960938 247.035156 C 676.203125 251.777344 678.328125 256.574219 680.339844 261.421875 C 682.347656 266.269531 684.234375 271.164062 686 276.105469 C 687.769531 281.042969 689.414062 286.023438 690.9375 291.046875 C 692.460938 296.066406 693.859375 301.125 695.136719 306.214844 C 696.410156 311.304688 697.558594 316.421875 698.582031 321.566406 C 699.605469 326.714844 700.503906 331.882812 701.273438 337.074219 C 702.042969 342.265625 702.6875 347.46875 703.199219 352.691406 C 703.714844 357.914062 704.101562 363.144531 704.359375 368.386719 C 704.617188 373.628906 704.746094 378.871094 704.746094 384.121094 Z M 704.746094 384.121094 " fill-opacity="1" fill-rule="nonzero"/></g><path fill="#ffffff" d="M 325.445312 553.25 C 467.640625 553.25 545.394531 435.417969 545.394531 333.300781 C 545.394531 329.933594 545.394531 326.566406 545.234375 323.359375 C 560.300781 312.460938 573.449219 298.832031 583.867188 283.28125 C 570.082031 289.375 555.171875 293.542969 539.460938 295.464844 C 555.492188 285.847656 567.675781 270.777344 573.449219 252.664062 C 558.539062 261.480469 542.027344 267.894531 524.390625 271.417969 C 510.285156 256.351562 490.246094 247.050781 467.960938 247.050781 C 425.320312 247.050781 390.691406 281.679688 390.691406 324.324219 C 390.691406 330.414062 391.332031 336.347656 392.777344 341.957031 C 328.492188 338.75 271.578125 307.972656 233.425781 261.160156 C 226.851562 272.542969 223.003906 285.847656 223.003906 299.957031 C 223.003906 326.726562 236.632812 350.453125 257.472656 364.242188 C 244.808594 363.917969 232.945312 360.394531 222.523438 354.621094 C 222.523438 354.941406 222.523438 355.261719 222.523438 355.582031 C 222.523438 393.097656 249.136719 424.199219 284.566406 431.410156 C 278.152344 433.175781 271.257812 434.136719 264.207031 434.136719 C 259.234375 434.136719 254.425781 433.65625 249.617188 432.695312 C 259.394531 463.472656 287.933594 485.757812 321.757812 486.398438 C 295.304688 507.078125 261.960938 519.421875 225.730469 519.421875 C 219.476562 519.421875 213.386719 519.101562 207.292969 518.300781 C 241.121094 540.425781 281.839844 553.25 325.445312 553.25 " fill-opacity="1" fill-rule="nonzero"/></svg>