<svg xmlns="http://www.w3.org/2000/svg" xmlns:xlink="http://www.w3.org/1999/xlink" width="1024" zoomAndPan="magnify" viewBox="0 0 768 767.999994" height="1024" preserveAspectRatio="xMidYMid meet" version="1.0"><defs><clipPath id="90dab9f841"><path d="M 63.4375 63.4375 L 675 63.4375 L 675 675 L 63.4375 675 Z M 63.4375 63.4375 " clip-rule="nonzero"/></clipPath></defs><g clip-path="url(#90dab9f841)"><path fill="#d42428" d="M 63.4375 369.152344 C 63.4375 200.335938 200.335938 63.4375 369.152344 63.4375 C 537.964844 63.4375 674.867188 200.335938 674.867188 369.152344 C 674.867188 537.964844 537.964844 674.867188 369.152344 674.867188 C 200.335938 674.867188 63.4375 537.964844 63.4375 369.152344 Z M 63.4375 369.152344 " fill-opacity="1" fill-rule="nonzero"/></g><path fill="#cc202d" d="M 585.28125 153.019531 C 704.6875 272.421875 704.6875 466.003906 585.28125 585.285156 C 465.878906 704.6875 272.296875 704.6875 153.019531 585.285156 Z M 585.28125 153.019531 " fill-opacity="1" fill-rule="nonzero"/><path fill="#ba202e" d="M 668.703125 430.394531 L 517.386719 279.074219 L 338.960938 299.40625 L 231.019531 466.496094 L 432.734375 668.210938 C 551.273438 643.074219 644.554688 549.300781 668.703125 430.394531 " fill-opacity="1" fill-rule="nonzero"/><path fill="#ffffff" d="M 529.09375 310.128906 C 529.09375 284.496094 508.390625 263.796875 482.761719 263.796875 L 265.152344 263.796875 C 239.519531 263.796875 218.820312 284.621094 218.820312 310.128906 L 218.820312 434.582031 C 218.820312 460.210938 239.519531 481.035156 265.152344 481.035156 L 482.640625 481.035156 C 508.269531 481.035156 528.96875 460.210938 528.96875 434.582031 L 528.96875 310.128906 Z M 342.90625 424.847656 L 342.90625 308.03125 L 431.5 366.441406 Z M 342.90625 424.847656 " fill-opacity="1" fill-rule="evenodd"/></svg>