<svg xmlns="http://www.w3.org/2000/svg" xmlns:xlink="http://www.w3.org/1999/xlink" viewBox="0 0 258 223.43"><defs><style>.cls-1{isolation:isolate;}.cls-2{fill:url(#linear-gradient);}.cls-3{fill:url(#linear-gradient-2);}.cls-4{fill:url(#linear-gradient-3);}.cls-16,.cls-18,.cls-20,.cls-5{fill:#fff;mix-blend-mode:overlay;}.cls-5{opacity:0.1;}.cls-6{fill:url(#linear-gradient-4);}.cls-7{fill:url(#linear-gradient-5);}.cls-8{fill:url(#linear-gradient-6);}.cls-9{fill:url(#linear-gradient-7);}.cls-10{fill:url(#linear-gradient-8);}.cls-11{fill:url(#linear-gradient-9);}.cls-12{fill:url(#linear-gradient-10);}.cls-13{fill:url(#linear-gradient-11);}.cls-14{fill:url(#linear-gradient-12);}.cls-15{fill:url(#linear-gradient-13);}.cls-16{opacity:0.05;}.cls-17{fill:url(#linear-gradient-14);}.cls-18{opacity:0.03;}.cls-19{fill:url(#linear-gradient-15);}.cls-20{opacity:0.02;}</style><linearGradient id="linear-gradient" x1="18.57" y1="36.02" x2="161.89" y2="174.91" gradientUnits="userSpaceOnUse"><stop offset="0" stop-color="#d84598"/><stop offset="1" stop-color="#fcd24f"/></linearGradient><linearGradient id="linear-gradient-2" x1="65.46" y1="-12.37" x2="208.78" y2="126.53" xlink:href="#linear-gradient"/><linearGradient id="linear-gradient-3" x1="122.86" y1="-71.59" x2="266.18" y2="67.3" xlink:href="#linear-gradient"/><linearGradient id="linear-gradient-4" x1="28.35" y1="25.93" x2="171.67" y2="164.82" xlink:href="#linear-gradient"/><linearGradient id="linear-gradient-5" x1="68.77" y1="-15.77" x2="212.08" y2="123.12" xlink:href="#linear-gradient"/><linearGradient id="linear-gradient-6" x1="38.13" y1="15.84" x2="181.45" y2="154.73" xlink:href="#linear-gradient"/><linearGradient id="linear-gradient-7" x1="117.46" y1="-66.02" x2="260.78" y2="72.87" xlink:href="#linear-gradient"/><linearGradient id="linear-gradient-8" x1="52.56" y1="0.94" x2="195.88" y2="139.84" xlink:href="#linear-gradient"/><linearGradient id="linear-gradient-9" x1="78.85" y1="-26.18" x2="222.17" y2="112.71" xlink:href="#linear-gradient"/><linearGradient id="linear-gradient-10" x1="63.09" y1="-9.92" x2="206.41" y2="128.97" xlink:href="#linear-gradient"/><linearGradient id="linear-gradient-11" x1="24.45" y1="29.96" x2="167.77" y2="168.85" xlink:href="#linear-gradient"/><linearGradient id="linear-gradient-12" x1="28.07" y1="26.22" x2="171.39" y2="165.11" xlink:href="#linear-gradient"/><linearGradient id="linear-gradient-13" x1="78.67" y1="-25.99" x2="221.99" y2="112.9" xlink:href="#linear-gradient"/><linearGradient id="linear-gradient-14" x1="81.97" y1="-29.4" x2="225.29" y2="109.49" xlink:href="#linear-gradient"/><linearGradient id="linear-gradient-15" x1="85.27" y1="-32.81" x2="228.59" y2="106.08" xlink:href="#linear-gradient"/></defs><g class="cls-1"><g id="Layer_2" data-name="Layer 2"><g id="Layer_1-2" data-name="Layer 1"><polygon class="cls-2" points="0 0 69.25 119.95 79.28 107.32 17.32 0 0 0"/><polygon class="cls-3" points="81.97 111.97 71.94 124.6 129 223.44 258 0 240.68 0 129 193.44 81.97 111.97"/><polygon class="cls-4" points="224.83 0 223.36 0 203.72 34.01 224.83 0"/><polygon class="cls-5" points="224.83 0 223.36 0 203.72 34.01 224.83 0"/><polygon class="cls-6" points="34.64 0 17.32 0 79.28 107.32 89.31 94.69 34.64 0"/><polygon class="cls-5" points="34.64 0 17.32 0 79.28 107.32 89.31 94.69 34.64 0"/><path class="cls-7" d="M202.83,44.93a6.3,6.3,0,0,1-9.89,7.76L129,163.43,92,99.34,82,112l47,81.46L240.68,0h-10Z"/><path class="cls-5" d="M202.83,44.93a6.3,6.3,0,0,1-9.89,7.76L129,163.43,92,99.34,82,112l47,81.46L240.68,0h-10Z"/><path class="cls-8" d="M95.19,83.37a6.25,6.25,0,0,1,2.17-4.74L52,0H34.64L89.31,94.69l6.63-8.34A6.24,6.24,0,0,1,95.19,83.37Z"/><path class="cls-5" d="M95.19,83.37a6.25,6.25,0,0,1,2.17-4.74L52,0H34.64L89.31,94.69l6.63-8.34A6.24,6.24,0,0,1,95.19,83.37Z"/><path class="cls-5" d="M95.19,83.37a6.25,6.25,0,0,1,2.17-4.74L52,0H34.64L89.31,94.69l6.63-8.34A6.24,6.24,0,0,1,95.19,83.37Z"/><path class="cls-9" d="M186.43,35.93a6.55,6.55,0,0,1-.15,1.34l8.15,5.86a6.22,6.22,0,0,1,3.23-.9,7,7,0,0,1,.92.07L203.72,34,223.36,0H206L186.22,34.33A6.5,6.5,0,0,1,186.43,35.93Z"/><path class="cls-5" d="M186.43,35.93a6.55,6.55,0,0,1-.15,1.34l8.15,5.86a6.22,6.22,0,0,1,3.23-.9,7,7,0,0,1,.92.07L203.72,34,223.36,0H206L186.22,34.33A6.5,6.5,0,0,1,186.43,35.93Z"/><path class="cls-5" d="M186.43,35.93a6.55,6.55,0,0,1-.15,1.34l8.15,5.86a6.22,6.22,0,0,1,3.23-.9,7,7,0,0,1,.92.07L203.72,34,223.36,0H206L186.22,34.33A6.5,6.5,0,0,1,186.43,35.93Z"/><path class="cls-10" d="M191.51,47.18l-8.15-5.85a6.63,6.63,0,0,1-1.57.67l-46.73,80.94a6.2,6.2,0,0,1-4.47,7.73L129,133.43l-1.59-2.76a6.29,6.29,0,0,1-4.71-6.09,6.38,6.38,0,0,1,.23-1.65l-12.51-21.67-7.8-11.69a7,7,0,0,1-1.13.1,6.36,6.36,0,0,1-1.64-.22L92,99.34l37,64.09L192.94,52.69a6.28,6.28,0,0,1-1.58-4.16A6,6,0,0,1,191.51,47.18Z"/><path class="cls-5" d="M191.51,47.18l-8.15-5.85a6.63,6.63,0,0,1-1.57.67l-46.73,80.94a6.2,6.2,0,0,1-4.47,7.73L129,133.43l-1.59-2.76a6.29,6.29,0,0,1-4.71-6.09,6.38,6.38,0,0,1,.23-1.65l-12.51-21.67-7.8-11.69a7,7,0,0,1-1.13.1,6.36,6.36,0,0,1-1.64-.22L92,99.34l37,64.09L192.94,52.69a6.28,6.28,0,0,1-1.58-4.16A6,6,0,0,1,191.51,47.18Z"/><path class="cls-5" d="M191.51,47.18l-8.15-5.85a6.63,6.63,0,0,1-1.57.67l-46.73,80.94a6.2,6.2,0,0,1-4.47,7.73L129,133.43l-1.59-2.76a6.29,6.29,0,0,1-4.71-6.09,6.38,6.38,0,0,1,.23-1.65l-12.51-21.67-7.8-11.69a7,7,0,0,1-1.13.1,6.36,6.36,0,0,1-1.64-.22L92,99.34l37,64.09L192.94,52.69a6.28,6.28,0,0,1-1.58-4.16A6,6,0,0,1,191.51,47.18Z"/><path class="cls-11" d="M129,103.43,69.28,0H52l45.4,78.63a6.23,6.23,0,0,1,4.13-1.56,6.3,6.3,0,0,1,5.29,9.72l21.09,31.6a6,6,0,0,1,1.13-.11,5.81,5.81,0,0,1,.72,0l45.36-78.65a6.22,6.22,0,0,1-1.25-3.75,6.3,6.3,0,0,1,12.39-1.6L206,0H188.72Z"/><path class="cls-5" d="M129,103.43,69.28,0H52l45.4,78.63a6.23,6.23,0,0,1,4.13-1.56,6.3,6.3,0,0,1,5.29,9.72l21.09,31.6a6,6,0,0,1,1.13-.11,5.81,5.81,0,0,1,.72,0l45.36-78.65a6.22,6.22,0,0,1-1.25-3.75,6.3,6.3,0,0,1,12.39-1.6L206,0H188.72Z"/><path class="cls-5" d="M129,103.43,69.28,0H52l45.4,78.63a6.23,6.23,0,0,1,4.13-1.56,6.3,6.3,0,0,1,5.29,9.72l21.09,31.6a6,6,0,0,1,1.13-.11,5.81,5.81,0,0,1,.72,0l45.36-78.65a6.22,6.22,0,0,1-1.25-3.75,6.3,6.3,0,0,1,12.39-1.6L206,0H188.72Z"/><path class="cls-5" d="M129,103.43,69.28,0H52l45.4,78.63a6.23,6.23,0,0,1,4.13-1.56,6.3,6.3,0,0,1,5.29,9.72l21.09,31.6a6,6,0,0,1,1.13-.11,5.81,5.81,0,0,1,.72,0l45.36-78.65a6.22,6.22,0,0,1-1.25-3.75,6.3,6.3,0,0,1,12.39-1.6L206,0H188.72Z"/><path class="cls-12" d="M179.4,42.18l-45.35,78.65a6.34,6.34,0,0,1,1,2.11L181.79,42a6.52,6.52,0,0,1-1.66.23A5.84,5.84,0,0,1,179.4,42.18Z"/><path class="cls-5" d="M179.4,42.18l-45.35,78.65a6.34,6.34,0,0,1,1,2.11L181.79,42a6.52,6.52,0,0,1-1.66.23A5.84,5.84,0,0,1,179.4,42.18Z"/><path class="cls-5" d="M179.4,42.18l-45.35,78.65a6.34,6.34,0,0,1,1,2.11L181.79,42a6.52,6.52,0,0,1-1.66.23A5.84,5.84,0,0,1,179.4,42.18Z"/><path class="cls-5" d="M179.4,42.18l-45.35,78.65a6.34,6.34,0,0,1,1,2.11L181.79,42a6.52,6.52,0,0,1-1.66.23A5.84,5.84,0,0,1,179.4,42.18Z"/><path class="cls-13" d="M127.41,130.67l1.59,2.76,1.59-2.76a6.12,6.12,0,0,1-3.18,0Z"/><path class="cls-5" d="M127.41,130.67l1.59,2.76,1.59-2.76a6.12,6.12,0,0,1-3.18,0Z"/><path class="cls-5" d="M127.41,130.67l1.59,2.76,1.59-2.76a6.12,6.12,0,0,1-3.18,0Z"/><path class="cls-5" d="M127.41,130.67l1.59,2.76,1.59-2.76a6.12,6.12,0,0,1-3.18,0Z"/><path class="cls-14" d="M110.42,101.26l12.51,21.67a6.65,6.65,0,0,1,.78-1.76Z"/><path class="cls-5" d="M110.42,101.26l12.51,21.67a6.65,6.65,0,0,1,.78-1.76Z"/><path class="cls-5" d="M110.42,101.26l12.51,21.67a6.65,6.65,0,0,1,.78-1.76Z"/><path class="cls-5" d="M110.42,101.26l12.51,21.67a6.65,6.65,0,0,1,.78-1.76Z"/><polygon class="cls-15" points="171.4 0 129 73.44 86.6 0 69.28 0 129 103.44 188.72 0 171.4 0"/><polygon class="cls-5" points="171.4 0 129 73.44 86.6 0 69.28 0 129 103.44 188.72 0 171.4 0"/><polygon class="cls-5" points="171.4 0 129 73.44 86.6 0 69.28 0 129 103.44 188.72 0 171.4 0"/><polygon class="cls-5" points="171.4 0 129 73.44 86.6 0 69.28 0 129 103.44 188.72 0 171.4 0"/><polygon class="cls-16" points="171.4 0 129 73.44 86.6 0 69.28 0 129 103.44 188.72 0 171.4 0"/><polygon class="cls-17" points="171.4 0 154.08 0 129 43.44 103.92 0 86.6 0 129 73.44 171.4 0"/><polygon class="cls-5" points="171.4 0 154.08 0 129 43.44 103.92 0 86.6 0 129 73.44 171.4 0"/><polygon class="cls-5" points="171.4 0 154.08 0 129 43.44 103.92 0 86.6 0 129 73.44 171.4 0"/><polygon class="cls-5" points="171.4 0 154.08 0 129 43.44 103.92 0 86.6 0 129 73.44 171.4 0"/><polygon class="cls-5" points="171.4 0 154.08 0 129 43.44 103.92 0 86.6 0 129 73.44 171.4 0"/><polygon class="cls-18" points="171.4 0 154.08 0 129 43.44 103.92 0 86.6 0 129 73.44 171.4 0"/><polygon class="cls-19" points="154.08 0 103.92 0 129 43.44 154.08 0"/><polygon class="cls-5" points="154.08 0 103.92 0 129 43.44 154.08 0"/><polygon class="cls-5" points="154.08 0 103.92 0 129 43.44 154.08 0"/><polygon class="cls-5" points="154.08 0 103.92 0 129 43.44 154.08 0"/><polygon class="cls-5" points="154.08 0 103.92 0 129 43.44 154.08 0"/><polygon class="cls-5" points="154.08 0 103.92 0 129 43.44 154.08 0"/><polygon class="cls-20" points="154.08 0 103.92 0 129 43.44 154.08 0"/></g></g></g></svg>