<?xml version="1.0" encoding="utf-8"?>
<!-- Generator: Adobe Illustrator 24.1.1, SVG Export Plug-In . SVG Version: 6.00 Build 0)  -->
<svg version="1.1" id="Layer_1" xmlns="http://www.w3.org/2000/svg" xmlns:xlink="http://www.w3.org/1999/xlink" x="0px" y="0px"
	 viewBox="0 0 846 846" style="enable-background:new 0 0 846 846;" xml:space="preserve">
<style type="text/css">
	.st0{fill:#361644;}
</style>
<g>
	<rect width="846" height="846"/>
</g>
<g>
	<path class="st0" d="M162.38,361.03"/>
	<path class="st0" d="M162.37,210.34c-26.29,45.3-40.3,96.92-40.3,150.69c0,53.77,14.01,105.39,40.3,150.69"/>
	<path class="st0" d="M640.86,504.14l29.02,29.02c2.2-3.16,4.35-6.36,6.44-9.61c31.15-48.46,47.61-104.66,47.61-162.51
		c0-46.56-10.35-91.21-30.77-132.7c-1.81-3.68-3.7-7.32-5.65-10.92l-30.08,30.1c17.67,35.91,26.2,73.18,26.2,113.52
		c0,50.11-14.25,98.78-41.21,140.72C641.9,502.55,641.38,503.35,640.86,504.14z"/>
	<polyline class="st0" points="162.37,511.73 162.38,361.03 162.37,210.34 	"/>
	<path class="st0" d="M289.67,449.36h71.87l31.28,30.31L693.36,182.7v-69.19H563.72L361.54,315.02h-71.87V137.18
		c39.03-23.34,84.64-36.77,133.33-36.77c35.98,0,70.82,7.19,103.54,21.37l29.86-29.87c-5.75-3.02-9.62-5.29-13.83-7.11
		c-37.81-16.39-78.04-24.7-119.57-24.7c-80.38,0-155.95,31.3-212.79,88.14c-12.64,12.64-24.02,26.21-34.08,40.56l0,88.59
		c0,0,0,0,0,0v375.16l113.53,133.33V449.36z"/>
	<path class="st0" d="M308.28,639.4c35.9,14.8,74.71,22.57,114.72,22.57c32.63,0,64.72-5.2,95.39-15.44
		c3.74-1.25,7.46-2.57,11.14-3.97l-31.78-31.77C473.6,618,448.5,621.66,423,621.66c-41.56,0-80.63-9.79-115.21-27.17L308.28,639.4z"
		/>
	<polygon class="st0" points="506.49,395.49 406.49,494.31 563.72,651.55 693.36,651.55 693.36,582.36 	"/>
</g>
</svg>
