<svg id="Square_Black" data-name="Square Black" xmlns="http://www.w3.org/2000/svg" viewBox="0 0 85 85"><defs><style>.cls-1{fill:#262626;}.cls-2{fill:#fff;}</style></defs><title>Dribbble_4</title><g id="Dribbble"><rect id="back" class="cls-1" width="85" height="85"/><path id="dribble" class="cls-2" d="M53.73,58.9A72.39,72.39,0,0,0,50,45.36a39.58,39.58,0,0,1,12.12.51A20,20,0,0,1,53.73,58.9Zm-23.29-.61c3.35-5.06,8-10.06,15.63-12.16a67.83,67.83,0,0,1,4,14.76,20.11,20.11,0,0,1-7.58,1.48A19.81,19.81,0,0,1,30.44,58.29ZM22.63,42.5v-.64h.12c7.08,0,14.12-.47,20.42-2.32.46,1,.94,1.93,1.37,2.94-8.29,2.44-13.46,7.89-17,13.09A19.67,19.67,0,0,1,22.63,42.5ZM34,24.55A98.58,98.58,0,0,1,41.31,36a70.63,70.63,0,0,1-18.15,2A20,20,0,0,1,34,24.55Zm21.42,2.82a24.85,24.85,0,0,1-10.29,7.34,102.83,102.83,0,0,0-7.26-11.53,20.11,20.11,0,0,1,4.68-.55A19.73,19.73,0,0,1,55.37,27.37Zm2.74,2.85a19.81,19.81,0,0,1,4.26,11.72,42.1,42.1,0,0,0-13.92-.33c-.51-1.15-1-2.29-1.57-3.38A28.41,28.41,0,0,0,58.11,30.22ZM42.5,18.7A23.8,23.8,0,1,0,66.3,42.5,23.79,23.79,0,0,0,42.5,18.7Z"/></g></svg>