<svg id="Square_Black" data-name="Square Black" xmlns="http://www.w3.org/2000/svg" viewBox="0 0 85 85"><defs><style>.cls-1{fill:#262626;}.cls-2{fill:#fff;}</style></defs><title>Facebook_5</title><g id="Facebook"><rect id="back" class="cls-1" width="85" height="85"/><path id="Facebook-2" data-name="Facebook" class="cls-2" d="M63.67,18.7H21.33a2.63,2.63,0,0,0-2.63,2.63V63.67a2.63,2.63,0,0,0,2.63,2.63H44.12V47.87h-6.2V40.68h6.2V35.39c0-6.15,3.76-9.5,9.24-9.5a53.46,53.46,0,0,1,5.55.28V32.6H55.1c-3,0-3.56,1.42-3.56,3.5v4.58h7.12l-.93,7.19H51.54V66.3H63.67a2.63,2.63,0,0,0,2.63-2.63V21.33A2.63,2.63,0,0,0,63.67,18.7Z"/></g></svg>