<svg id="Square_Black" data-name="Square Black" xmlns="http://www.w3.org/2000/svg" viewBox="0 0 85 85"><defs><style>.cls-1{fill:#262626;}.cls-2{fill:#fff;}</style></defs><title>Pinterest_5</title><g id="Pinterest"><rect id="back" class="cls-1" width="85" height="85"/><path id="pinterest-2" data-name="pinterest" class="cls-2" d="M60.92,34.36c0,10.73-6,18.74-14.75,18.74-3,0-5.73-1.59-6.68-3.41,0,0-1.59,6.3-1.92,7.52-1.18,4.29-4.67,8.59-4.93,8.95A.37.37,0,0,1,32,66c-.07-.55-1-6,.09-10.39.52-2.22,3.51-14.9,3.51-14.9a10.57,10.57,0,0,1-.87-4.33c0-4.05,2.35-7.07,5.27-7.07,2.49,0,3.69,1.86,3.69,4.1,0,2.5-1.59,6.24-2.41,9.7a4.23,4.23,0,0,0,4.31,5.27c5.18,0,8.67-6.65,8.67-14.54,0-6-4-10.47-11.37-10.47-8.3,0-13.47,6.18-13.47,13.09a7.89,7.89,0,0,0,1.81,5.36,1.33,1.33,0,0,1,.39,1.53c-.13.5-.43,1.71-.56,2.19a1,1,0,0,1-1.37.69c-3.81-1.57-5.59-5.75-5.59-10.45,0-7.77,6.55-17.08,19.54-17.08C54.06,18.7,60.92,26.25,60.92,34.36Z"/></g></svg>